<svg xmlns="http://www.w3.org/2000/svg" xmlns:xlink="http://www.w3.org/1999/xlink" viewBox="0 0 48 48"><defs><style>.cls-1{fill:#333;}.cls-2,.cls-3{opacity:0.1;}.cls-2{fill:url(#linear-gradient);}.cls-3{fill:url(#linear-gradient-2);}.cls-4{fill:#fff;}</style><linearGradient id="linear-gradient" x1="24" y1="48" x2="24" gradientUnits="userSpaceOnUse"><stop offset="0" stop-color="#fff" stop-opacity="0"/><stop offset="1" stop-color="#fff"/></linearGradient><linearGradient id="linear-gradient-2" x1="0" y1="48" x2="48" xlink:href="#linear-gradient"/></defs><g id="Layer_2" data-name="Layer 2"><g id="Confidential"><g id="Background"><rect id="Color" class="cls-1" width="48" height="48"/><rect id="Linear_Gradient" data-name="Linear Gradient" class="cls-2" width="48" height="48"/><rect id="Diagonal_Gradient" data-name="Diagonal Gradient" class="cls-3" width="48" height="48"/></g><g id="Icon"><path class="cls-4" d="M34.741,17.945H30.088v-.717A3.748,3.748,0,0,0,26.34,13.48H21.66a3.748,3.748,0,0,0-3.748,3.748v.717H13.259a2.435,2.435,0,0,0-2.435,2.435V31.953a2.435,2.435,0,0,0,2.435,2.435H34.741a2.435,2.435,0,0,0,2.435-2.435V20.38A2.435,2.435,0,0,0,34.741,17.945Zm-14.829-.717A1.75,1.75,0,0,1,21.66,15.48h4.68a1.75,1.75,0,0,1,1.748,1.748v.717H19.912Z"/></g></g></g></svg>