<svg xmlns="http://www.w3.org/2000/svg" viewBox="0 0 48 48"><defs><style>.cls-1{fill:#fff;}</style></defs><g id="Layer_2" data-name="Layer 2"><g id="General"><rect id="Background" width="48" height="48"/><g id="Icon"><path class="cls-1" d="M35.929,13.838A3.35,3.35,0,0,0,32.565,17.2a3.5,3.5,0,0,0,.509,1.8l-6.355,8.089a6.684,6.684,0,0,1,1.971,1.529l6.424-8.157a3.364,3.364,0,1,0,.815-6.627Z"/><path class="cls-1" d="M24,29.2a2.933,2.933,0,0,0-.952.136l-6.355-8.123a6.162,6.162,0,0,1-1.971,1.529l6.355,8.123a3.256,3.256,0,0,0-.442,1.7A3.365,3.365,0,1,0,24,29.2Z"/><path class="cls-1" d="M30.016,15.571a6.138,6.138,0,0,1,1.155-2.243A21.215,21.215,0,0,0,24,12.071a20.432,20.432,0,0,0-9.924,2.549,3.365,3.365,0,0,0-2.005-.646,3.348,3.348,0,1,0,3.364,3.331,2.994,2.994,0,0,0-.068-.578,18.24,18.24,0,0,1,14.649-1.156Z"/></g></g></g></svg>