<svg xmlns="http://www.w3.org/2000/svg" xmlns:xlink="http://www.w3.org/1999/xlink" viewBox="0 0 48 48"><defs><style>.cls-1{fill:#d8742a;}.cls-2,.cls-3{opacity:0.15;}.cls-2{fill:url(#linear-gradient);}.cls-3{fill:url(#linear-gradient-2);}.cls-4{fill:#fff;}</style><linearGradient id="linear-gradient" x1="24" y1="48" x2="24" gradientUnits="userSpaceOnUse"><stop offset="0" stop-color="#fff" stop-opacity="0"/><stop offset="1" stop-color="#fff"/></linearGradient><linearGradient id="linear-gradient-2" x1="0" y1="48" x2="48" xlink:href="#linear-gradient"/></defs><g id="Layer_2" data-name="Layer 2"><g id="Hardware"><g id="Background"><rect id="Color" class="cls-1" width="48" height="48"/><rect id="Linear_Gradient" data-name="Linear Gradient" class="cls-2" width="48" height="48"/><rect id="Diagonal_Gradient" data-name="Diagonal Gradient" class="cls-3" width="48" height="48"/></g><g id="Icon"><g id="Gears"><polygon class="cls-4" points="19.968 6.857 17.89 6.857 17.064 10.089 20.794 10.089 19.968 6.857"/><polygon class="cls-4" points="17.89 27.029 19.968 27.029 20.794 23.797 17.064 23.797 17.89 27.029"/><polygon class="cls-4" points="29.015 17.982 29.015 15.904 25.783 15.078 25.783 18.807 29.015 17.982"/><polygon class="cls-4" points="8.843 15.904 8.843 17.982 12.075 18.807 12.075 15.078 8.843 15.904"/><path class="cls-4" d="M18.929,9.6a7.339,7.339,0,1,0,7.339,7.339A7.339,7.339,0,0,0,18.929,9.6Zm0,10.09a2.751,2.751,0,1,1,2.751-2.751A2.751,2.751,0,0,1,18.929,19.694Z"/><polygon class="cls-4" points="26.796 10.546 25.326 9.076 22.457 10.778 25.094 13.415 26.796 10.546"/><polygon class="cls-4" points="11.062 23.34 12.532 24.81 15.401 23.108 12.764 20.471 11.062 23.34"/><polygon class="cls-4" points="12.532 9.076 11.062 10.546 12.764 13.415 15.401 10.778 12.532 9.076"/><polygon class="cls-4" points="25.326 24.81 26.796 23.34 25.094 20.471 22.457 23.108 25.326 24.81"/><polygon class="cls-4" points="22.674 23.19 21.204 24.66 22.906 27.529 25.543 24.892 22.674 23.19"/><polygon class="cls-4" points="35.468 38.924 36.938 37.454 35.236 34.585 32.599 37.222 35.468 38.924"/><polygon class="cls-4" points="36.938 24.66 35.468 23.19 32.599 24.892 35.236 27.529 36.938 24.66"/><polygon class="cls-4" points="21.204 37.454 22.674 38.924 25.543 37.222 22.906 34.585 21.204 37.454"/><path class="cls-4" d="M23.881,25.867a7.34,7.34,0,1,0,10.38,0A7.34,7.34,0,0,0,23.881,25.867ZM31.016,33a2.751,2.751,0,1,1,0-3.89A2.749,2.749,0,0,1,31.016,33Z"/><polygon class="cls-4" points="30.11 20.971 28.032 20.971 27.206 24.203 30.936 24.203 30.11 20.971"/><polygon class="cls-4" points="28.032 41.143 30.11 41.143 30.936 37.911 27.206 37.911 28.032 41.143"/><polygon class="cls-4" points="18.985 30.018 18.985 32.096 22.217 32.922 22.217 29.193 18.985 30.018"/><polygon class="cls-4" points="39.157 32.096 39.157 30.018 35.925 29.193 35.925 32.922 39.157 32.096"/></g></g></g></g></svg>