<svg xmlns="http://www.w3.org/2000/svg" xmlns:xlink="http://www.w3.org/1999/xlink" viewBox="0 0 48 48"><defs><style>.cls-1{fill:#493102;}.cls-2,.cls-3{opacity:0.1;}.cls-2{fill:url(#linear-gradient);}.cls-3{fill:url(#linear-gradient-2);}.cls-4{fill:#fff;}.cls-5{fill:none;stroke:#fff;stroke-linecap:round;stroke-miterlimit:10;stroke-width:2.118px;}</style><linearGradient id="linear-gradient" x1="24" y1="48" x2="24" gradientUnits="userSpaceOnUse"><stop offset="0" stop-color="#fff" stop-opacity="0"/><stop offset="1" stop-color="#fff"/></linearGradient><linearGradient id="linear-gradient-2" x1="0" y1="48" x2="48" xlink:href="#linear-gradient"/></defs><g id="Layer_2" data-name="Layer 2"><g id="Mesh_TV" data-name="Mesh TV"><g id="Background"><rect id="Color" class="cls-1" width="48" height="48"/><rect id="Linear_Gradient" data-name="Linear Gradient" class="cls-2" width="48" height="48"/><rect id="Diagonal_Gradient" data-name="Diagonal Gradient" class="cls-3" width="48" height="48"/></g><g id="Icon"><path class="cls-4" d="M36.914,18.142H11.086A1.762,1.762,0,0,0,9.323,19.9V35.193a1.762,1.762,0,0,0,1.763,1.762H36.914a1.762,1.762,0,0,0,1.763-1.762V19.9A1.762,1.762,0,0,0,36.914,18.142Zm-5.48,14.143a1.688,1.688,0,0,1-1.688,1.688H14.012a1.688,1.688,0,0,1-1.688-1.688V22.812a1.688,1.688,0,0,1,1.688-1.688H29.746a1.688,1.688,0,0,1,1.688,1.688Zm3.621,0a1.592,1.592,0,1,1,1.592-1.591A1.591,1.591,0,0,1,35.055,32.285Zm0-6.289A1.592,1.592,0,1,1,36.647,24.4,1.592,1.592,0,0,1,35.055,26Z"/><polyline class="cls-5" points="16.589 9.045 21.879 18.209 27.17 9.045"/></g></g></g></svg>