<svg xmlns="http://www.w3.org/2000/svg" xmlns:xlink="http://www.w3.org/1999/xlink" viewBox="0 0 48 48"><defs><style>.cls-1{fill:#ad0e7c;}.cls-2,.cls-3{opacity:0.2;}.cls-2{fill:url(#linear-gradient);}.cls-3{fill:url(#linear-gradient-2);}.cls-4{fill:#fff;}</style><linearGradient id="linear-gradient" x1="24" y1="48" x2="24" gradientUnits="userSpaceOnUse"><stop offset="0" stop-color="#fff" stop-opacity="0"/><stop offset="1" stop-color="#fff"/></linearGradient><linearGradient id="linear-gradient-2" x1="0" y1="48" x2="48" xlink:href="#linear-gradient"/></defs><g id="Layer_2" data-name="Layer 2"><g id="Reading_Networks" data-name="Reading Networks"><g id="Background"><rect id="Color" class="cls-1" width="48" height="48"/><rect id="Linear_Gradient" data-name="Linear Gradient" class="cls-2" width="48" height="48"/><rect id="Diagonal_Gradient" data-name="Diagonal Gradient" class="cls-3" width="48" height="48"/></g><g id="Icon"><path class="cls-4" d="M13.272,10.807V37.193H34.728V10.807Zm2.256,7.617h.36L17.87,13.56h2.009l1.936,4.864h.361v1.027h-2.8V18.424h.667l-.261-.658H17.663l-.261.658h.666v1.027h-2.54ZM32.653,35.037H15.528V34.008H32.653Zm0-3.117H15.528V30.891H32.653Zm0-3.117H15.528V27.775H32.653Zm0-3.117H15.528V24.658H32.653Zm0-3.116H15.528V21.541H32.653Zm0-3.117H23.824V18.424h8.829Z"/><polygon class="cls-4" points="18.735 14.848 18.717 14.848 18.041 16.793 19.401 16.793 18.735 14.848"/></g></g></g></svg>