<svg xmlns="http://www.w3.org/2000/svg" xmlns:xlink="http://www.w3.org/1999/xlink" viewBox="0 0 48 48"><defs><style>.cls-1{fill:#1ab5ad;}.cls-2,.cls-3{opacity:0.3;}.cls-2{fill:url(#linear-gradient);}.cls-3{fill:url(#linear-gradient-2);}.cls-4{fill:#fff;}</style><linearGradient id="linear-gradient" x1="24" y1="48" x2="24" gradientUnits="userSpaceOnUse"><stop offset="0" stop-color="#fff" stop-opacity="0"/><stop offset="1" stop-color="#fff"/></linearGradient><linearGradient id="linear-gradient-2" x1="0" y1="48" x2="48" xlink:href="#linear-gradient"/></defs><g id="Layer_2" data-name="Layer 2"><g id="Software"><g id="Background"><rect id="Color" class="cls-1" width="48" height="48"/><rect id="Linear_Gradient" data-name="Linear Gradient" class="cls-2" width="48" height="48"/><rect id="Diagonal_Gradient" data-name="Diagonal Gradient" class="cls-3" width="48" height="48"/><path class="cls-4" d="M34.74,21.25,13.586,13.007a.447.447,0,0,0-.579.579L21.25,34.74a.447.447,0,0,0,.823.023l2.741-6.011a.18.18,0,0,1,.292-.053l5.266,5.266a2.576,2.576,0,0,0,3.579.087A2.541,2.541,0,0,0,34,30.409l-5.3-5.3a.18.18,0,0,1,.053-.292l6.011-2.741A.447.447,0,0,0,34.74,21.25Z"/></g></g></g></svg>