<svg xmlns="http://www.w3.org/2000/svg" xmlns:xlink="http://www.w3.org/1999/xlink" viewBox="0 0 48 48"><defs><style>.cls-1{fill:#b51818;}.cls-2,.cls-3{opacity:0.15;}.cls-2{fill:url(#linear-gradient);}.cls-3{fill:url(#linear-gradient-2);}.cls-4{fill:#fff;}</style><linearGradient id="linear-gradient" x1="24" y1="48" x2="24" gradientUnits="userSpaceOnUse"><stop offset="0" stop-color="#fff" stop-opacity="0"/><stop offset="1" stop-color="#fff"/></linearGradient><linearGradient id="linear-gradient-2" x1="0" y1="48" x2="48" xlink:href="#linear-gradient"/></defs><g id="Layer_2" data-name="Layer 2"><g id="Tools"><g id="Background"><rect id="Color" class="cls-1" width="48" height="48"/><rect id="Linear_Gradient" data-name="Linear Gradient" class="cls-2" width="48" height="48"/><rect id="Diagonal_Gradient" data-name="Diagonal Gradient" class="cls-3" width="48" height="48"/></g><g id="Icon"><path class="cls-4" d="M27.98,22.526h4.932a.753.753,0,0,1,.753.753V35.148a3.219,3.219,0,0,1-3.219,3.219h0a3.219,3.219,0,0,1-3.219-3.219V23.279a.753.753,0,0,1,.753-.753Z" transform="translate(-12.611 30.446) rotate(-45)"/><rect class="cls-4" x="21.291" y="23.817" width="6.257" height="1.206" rx="0.603" transform="translate(-10.115 24.419) rotate(-45)"/><rect class="cls-4" x="18.727" y="13.107" width="1.513" height="12.754" transform="translate(-8.07 19.484) rotate(-45)"/><polygon class="cls-4" points="14.44 15.51 15.51 14.44 14.098 12.426 12.085 11.015 11.015 12.085 12.426 14.098 14.44 15.51"/></g></g></g></svg>