<?xml version="1.0" encoding="UTF-8" standalone="no"?>
<svg
   xmlns:dc="http://purl.org/dc/elements/1.1/"
   xmlns:cc="http://creativecommons.org/ns#"
   xmlns:rdf="http://www.w3.org/1999/02/22-rdf-syntax-ns#"
   xmlns:svg="http://www.w3.org/2000/svg"
   xmlns="http://www.w3.org/2000/svg"
   viewBox="0 0 1333.3333 1333.3333"
   height="1333.3333"
   width="1333.3333"
   xml:space="preserve"
   id="svg2"
   version="1.1"><metadata
     id="metadata8"><rdf:RDF><cc:Work
         rdf:about=""><dc:format>image/svg+xml</dc:format><dc:type
           rdf:resource="http://purl.org/dc/dcmitype/StillImage" /></cc:Work></rdf:RDF></metadata><defs
     id="defs6"><clipPath
       id="clipPath18"
       clipPathUnits="userSpaceOnUse"><path
         id="path16"
         d="M 0,1000 H 1000 V 0 H 0 Z" /></clipPath><clipPath
       id="clipPath26"
       clipPathUnits="userSpaceOnUse"><path
         id="path24"
         d="M 188.427,811.073 H 811.573 V 187.927 H 188.427 Z" /></clipPath><clipPath
       id="clipPath42"
       clipPathUnits="userSpaceOnUse"><path
         id="path40"
         d="M 0,1000 H 1000 V 0 H 0 Z" /></clipPath><clipPath
       id="clipPath54"
       clipPathUnits="userSpaceOnUse"><path
         id="path52"
         d="M 0,1000 H 1000 V 0 H 0 Z" /></clipPath><clipPath
       id="clipPath62"
       clipPathUnits="userSpaceOnUse"><path
         id="path60"
         d="M 188.427,811.073 H 811.573 V 187.927 H 188.427 Z" /></clipPath><clipPath
       id="clipPath78"
       clipPathUnits="userSpaceOnUse"><path
         id="path76"
         d="M 0,1000 H 1000 V 0 H 0 Z" /></clipPath><clipPath
       id="clipPath90"
       clipPathUnits="userSpaceOnUse"><path
         id="path88"
         d="M 0,1000 H 1000 V 0 H 0 Z" /></clipPath></defs><g
     transform="matrix(1.3333333,0,0,-1.3333333,0,1333.3333)"
     id="g10"><g
       id="g12"><g
         clip-path="url(#clipPath18)"
         id="g14"><g
           id="g20"><g
             id="g22" /><g
             id="g34"><g
               style="opacity:0.75"
               id="g32"
               clip-path="url(#clipPath26)"><g
                 id="g30"
                 transform="translate(188.4268,499.5)"><path
                   id="path28"
                   style="fill:#ffffff;fill-opacity:1;fill-rule:nonzero;stroke:none"
                   d="m 0,0 c 0,-172.077 139.496,-311.573 311.573,-311.573 172.077,0 311.573,139.496 311.573,311.573 0,172.077 -139.496,311.573 -311.573,311.573 C 139.496,311.573 0,172.077 0,0" /></g></g></g></g></g></g><g
       id="g36"><g
         clip-path="url(#clipPath42)"
         id="g38"><g
           transform="translate(624.8281,812.0835)"
           id="g44"><path
             id="path46"
             style="fill:#0176c3;fill-opacity:1;fill-rule:nonzero;stroke:none"
             d="M 0,0 C -44.414,0 -86.653,-9.283 -124.914,-25.983 -163.175,-9.283 -205.414,0 -249.828,0 c -172.635,0 -312.584,-139.948 -312.584,-312.583 0,-172.635 139.949,-312.584 312.584,-312.584 44.414,0 86.653,9.283 124.914,25.983 38.261,-16.7 80.5,-25.983 124.914,-25.983 172.635,0 312.584,139.949 312.584,312.584 C 312.584,-139.948 172.635,0 0,0" /></g></g></g><g
       id="g48"><g
         clip-path="url(#clipPath54)"
         id="g50"><g
           id="g56"><g
             id="g58" /><g
             id="g70"><g
               style="opacity:0.75"
               id="g68"
               clip-path="url(#clipPath62)"><g
                 id="g66"
                 transform="translate(188.4268,499.5)"><path
                   id="path64"
                   style="fill:#274490;fill-opacity:1;fill-rule:nonzero;stroke:none"
                   d="m 0,0 c 0,-172.077 139.496,-311.573 311.573,-311.573 172.077,0 311.573,139.496 311.573,311.573 0,172.077 -139.496,311.573 -311.573,311.573 C 139.496,311.573 0,172.077 0,0" /></g></g></g></g></g></g><g
       id="g72"><g
         clip-path="url(#clipPath78)"
         id="g74"><g
           transform="translate(499.9141,786.1099)"
           id="g80"><path
             id="path82"
             style="fill:#292e37;fill-opacity:1;fill-rule:nonzero;stroke:none"
             d="m 0,0 c -110.642,-48.171 -187.997,-158.357 -187.997,-286.605 0,-128.248 77.355,-238.435 187.997,-286.605 110.643,48.17 187.998,158.357 187.998,286.605 C 187.998,-158.357 110.643,-48.171 0,0" /></g></g></g><g
       id="g84"><g
         clip-path="url(#clipPath90)"
         id="g86"><g
           transform="translate(554.585,327.6045)"
           id="g92"><path
             id="path94"
             style="fill:#ffffff;fill-opacity:1;fill-rule:nonzero;stroke:none"
             d="m 0,0 c -6.41,-11.798 -20.312,-18.791 -28.771,-20.889 l -0.012,0.368 0.553,0.207 c 17.378,6.475 20.056,19.671 20.398,21.998 0.166,1.622 1.945,7.834 -2.182,14.562 -5.348,8.724 -17.555,14.314 -36.271,16.609 -45.758,5.624 -56.75,-19.602 -57.194,-20.678 l -0.152,-0.481 c -3.797,-17.594 12.914,-28.624 22.306,-32.01 l -0.008,-0.55 c -4.48,1.739 -23.657,9.956 -30.108,25.366 -3.355,8.015 -2.747,16.889 1.808,26.376 1.921,4.006 4.595,7.395 7.759,10.299 l 1.632,1.427 -0.011,0.018 c 11.975,9.782 30.275,12.988 45.92,12.33 18.208,-0.748 34.514,-6.187 44.876,-14.304 L -8.971,40.27 C -4.363,36.558 -0.979,32.309 0.778,27.701 4.697,17.473 4.433,8.15 0,0 m -49.766,-99.524 0.039,5.042 6.621,-1.608 0.002,-5.049 z m 0.743,97.342 0.054,6.882 5.797,-1.565 0.006,-6.74 z m -0.081,-10.812 0.041,5.04 5.903,-1.437 0.003,-5.048 z m -0.084,-10.818 0.039,5.042 5.992,-1.455 0.006,-5.051 z m -0.082,-10.816 0.04,5.039 6.079,-1.475 0.005,-5.049 z m -0.084,-10.815 0.04,5.039 6.171,-1.499 0.004,-5.049 z m -0.081,-10.81 0.039,5.036 6.263,-1.523 0.006,-5.046 z m -0.085,-10.825 0.043,5.046 6.353,-1.539 0.003,-5.055 z m -0.081,-10.81 0.039,5.04 6.441,-1.568 0.006,-5.046 z m 6.492,-12.411 -6.573,1.593 0.039,5.04 6.534,-1.587 z m -15.486,118.328 0.671,-15.56 -5.2,-0.845 -7.821,15.456 c 3.642,0.625 7.743,0.967 12.35,0.949 m 10.467,-16.011 -4.198,1.157 -0.634,14.656 c 1.923,-0.126 3.91,-0.298 5.986,-0.556 1.764,-0.216 3.402,-0.465 4.983,-0.733 z m 9.073,-2.492 -3.603,0.99 6.307,14.911 c 3.171,-0.745 5.903,-1.593 8.274,-2.509 z m 9.006,-2.473 -3.068,0.842 10.305,12.567 c 2.416,-1.352 4.255,-2.774 5.628,-4.159 z m 0.697,-6.434 15.381,11.063 c 2.02,-4.508 0.793,-8.268 0.74,-8.424 l -0.151,-0.661 c -0.055,-0.469 -1.481,-11.276 -15.56,-17.12 z m -46.412,8.952 0.168,0.109 -8.506,13.334 c 2.177,1.054 4.664,2.01 7.492,2.8 l 7.662,-15.136 z m -22.482,0.313 17.277,-12.763 -0.229,-11.39 c -5.181,2.354 -19.57,10.233 -17.048,24.153 m 9.267,10.311 8.215,-12.883 -0.065,-3.303 -14.396,10.633 c 1.44,1.697 3.475,3.66 6.246,5.553 m -27.717,44.029 c 2.84,12.408 22.536,31.364 63.703,30.234 15.81,-0.447 29.564,-4.204 40.879,-11.161 C -0.761,76.322 5.487,68.353 6.759,64.972 8.294,60.879 6.945,53.981 5.46,48.895 4.463,51.103 3.219,53.324 1.587,55.493 -8.34,68.698 -27.611,75.691 -55.708,75.691 h -0.253 c -28.769,0 -48.164,-7.155 -57.65,-20.555 -0.971,-1.373 -1.76,-2.771 -2.468,-4.168 -0.503,3.51 -0.86,8.023 -0.617,13.256 m 26,36.632 c 9.903,10.771 26.568,14.365 49.528,10.665 26.28,-4.234 29.276,-17.922 29.574,-22.057 -11.684,6.578 -25.519,10.172 -41.24,10.62 -18.367,0.525 -31.953,-2.903 -41.414,-6.924 0.27,2.07 1.096,5.025 3.552,7.696 m 26.703,141.151 v 0 c 1.349,2.446 3.453,2.686 7.219,2.711 L -58.19,118.425 c -2.31,-0.019 -4.538,-0.307 -6.691,-0.518 z m -3.216,13.493 c 6.375,5.594 15.003,4.535 18.414,3.815 6.248,-1.312 10.704,-4.335 11.721,-6.513 1.505,-3.224 1.736,-6.712 0.595,-9.1 -0.322,-0.671 -0.75,-1.218 -1.257,-1.668 -1.878,2.617 -6.512,7.307 -15.587,7.307 h -0.154 c -8.584,0 -13.127,-1.18 -16.141,-5.318 -0.878,1.016 -1.732,2.375 -1.854,3.976 -0.181,2.341 1.253,4.862 4.263,7.501 m 9.363,74.544 c 0.005,0.351 0.182,2.455 4.898,2.455 h 0.069 c 4.153,0 4.742,-1.768 4.817,-2.421 v -65.19 c -3.377,0.667 -6.673,0.802 -9.784,0.43 z m 2.447,29.327 c 0,0.76 0.387,1.699 2.49,1.717 0.435,0.002 2.299,0.046 2.401,-1.475 v -22.425 c -0.724,0.126 -1.506,0.204 -2.365,0.204 h -0.111 c -0.88,0 -1.678,-0.07 -2.415,-0.186 z m 4.23,-114.656 c 3.498,-0.455 5.827,-1.944 7.278,-3.348 l -0.652,-123.681 c -2.768,0.354 -5.436,0.583 -8.023,0.72 z M -1.217,48.762 c 2.752,-4.583 3.859,-9.256 4.18,-13.229 -1.975,2.948 -4.607,5.839 -7.834,8.559 z M -55.399,68.35 c 10.472,-0.019 19.578,-0.905 27.3,-2.703 l -3.1,-8.453 c -6.792,1.833 -14.435,3.035 -22.906,3.387 -0.426,0.015 -0.865,0.012 -1.294,0.027 z m -27.248,-10.93 -3.413,7.681 c 7.238,1.915 15.841,2.963 25.767,3.198 v -7.682 c -7.376,-0.159 -15.056,-1.151 -22.354,-3.197 m -25.713,-5.548 c 3.85,5.019 9.495,8.838 16.899,11.528 l 3.426,-7.709 c -5.841,-2.145 -11.289,-5.036 -15.922,-8.84 z m -5.146,-11.302 c 0.425,2.052 1.087,4.165 2.074,6.275 l 3.396,-3.88 c -2.394,-2.564 -4.464,-5.448 -6.134,-8.682 0.014,1.881 0.195,3.919 0.615,6.034 z m 87.694,14.968 3.168,8.634 C -15.008,61.727 -9.01,58.183 -4.691,53.447 L -9.35,47.494 c -4.591,3.11 -10.085,5.862 -16.462,8.044 M 8.195,39.821 8.958,41.709 c 0.667,1.649 6.398,16.359 3.068,25.243 -1.74,4.622 -8.101,12.294 -18.132,19.119 l 0.147,1.782 c 0.018,0.258 0.444,6.227 -3.808,12.829 -5.296,8.228 -15.128,13.631 -29.156,16.129 l 0.628,118.713 c 3.068,0.857 5.521,2.873 6.894,5.758 1.87,3.928 1.653,9.124 -0.578,13.903 -1.552,3.327 -5.823,6.421 -11.19,8.349 l -0.006,66.211 c -0.102,1.516 -0.839,3.588 -2.585,5.198 l 0.145,24.736 c -0.061,2.189 -1.451,5.799 -4.893,6.786 v 56.532 c 0,1.349 -1.094,2.445 -2.443,2.445 -1.353,0 -2.447,-1.096 -2.447,-2.445 V 366.18 c -3.056,-0.394 -4.702,-3.297 -4.828,-5.52 l -0.065,-25.556 c -1.856,-1.627 -2.427,-3.74 -2.445,-5.024 v -65.823 c -3.057,-0.971 -5.841,-2.475 -8.181,-4.531 -4.412,-3.87 -6.483,-7.959 -6.163,-12.157 0.479,-6.262 6.261,-10.009 6.509,-10.169 l 0.917,-0.586 -0.857,-119.423 c -10.108,-1.891 -18.255,-6.131 -24.322,-12.733 -5.229,-5.677 -5.25,-12.396 -5.145,-14.251 -0.79,-0.427 -1.552,-0.853 -2.26,-1.271 -10.665,-6.335 -18.142,-15.284 -20.004,-23.948 l -0.059,-0.451 c -0.694,-13.931 2.503,-23.2 2.639,-23.591 l 0.254,-0.717 c -1.215,-8.196 0.498,-15.131 1.15,-17.331 -1.618,-7.276 -1.105,-14.239 1.645,-20.793 8.283,-19.743 33.375,-28.494 34.439,-28.862 l 0.725,-0.243 -1.508,-73.797 5.566,-3.055 2.191,107.604 10.528,1.71 -3.063,-114.241 5.561,-2.81 3.153,117.973 5.186,0.845 -0.75,-122.134 4.73,2.106 0.053,7.292 6.714,-1.626 0.002,-2.485 4.818,2.386 V 3.475 l 3.24,-0.887 2.847,-106.455 5.578,3.053 -2.003,74.173 c 8.039,1.71 25.384,8.916 33.561,23.952 4.44,8.168 5.35,17.222 2.801,26.98 0.46,1.962 1.656,8.096 0.439,15.53" /></g></g></g></g></svg>