<?xml version="1.0" encoding="utf-8"?>
<!-- Generator: Adobe Illustrator 23.0.1, SVG Export Plug-In . SVG Version: 6.00 Build 0)  -->
<svg version="1.1" id="Layer_1" xmlns="http://www.w3.org/2000/svg" xmlns:xlink="http://www.w3.org/1999/xlink" x="0px" y="0px"
	 viewBox="0 0 1920 505.9" style="enable-background:new 0 0 1920 505.9;" xml:space="preserve">
<style type="text/css">
	.st0{fill:#BDCADA;}
	.st1{fill:#FFCD50;}
	.st2{fill:#3EB1CF;}
</style>
<title>workshop-illustrations</title>
<g id="Slide_1">
	<path class="st0" d="M377.3,177.9l-137-137c-15.5-15.5-40.8-15.5-56.3,0l-137,137c-5.9,5.9-5.9,15.4,0,21.2
		c5.9,5.9,15.4,5.9,21.2,0l137-137c3.8-3.8,10.1-3.8,13.9,0l87.3,87.3v184.8c0,5.4-4.4,9.8-9.8,9.8H127.7c-5.4,0-9.8-4.4-9.8-9.8
		v-94.4c0-8.3-6.7-15-15-15s-15,6.7-15,15v94.4c0,22,17.9,39.8,39.8,39.8h168.9c22,0,39.8-17.9,39.8-39.8V179.3l19.7,19.7
		c2.9,2.9,6.8,4.4,10.6,4.4s7.7-1.5,10.6-4.4C383.2,193.2,383.2,183.7,377.3,177.9z"/>
	<path class="st0" d="M792.7,112.7h49.3v174.2h-49.3V112.7z"/>
	<path class="st0" d="M901.2,222.6c6.3,10,12.6,17.2,18.9,21.9s13.8,7,22.4,7c12.3,0,18.4-4.5,18.4-13.4c0.1-3.8-1.5-7.5-4.5-10
		c-3.7-2.9-7.8-5.2-12.2-6.8c-5.1-2-11-4.3-17.7-7c-4.2-1.8-9-4.1-14.6-6.8c-5.7-2.8-11-6.3-15.9-10.4c-5.2-4.4-9.5-9.8-12.7-15.8
		c-3.4-6.3-5.1-13.9-5.1-22.6c0-10.1,2.7-18.9,8.2-26.5c5.5-7.5,13.1-13.4,22.8-17.7c9.7-4.2,20.9-6.3,33.7-6.3
		c13.4,0,24.7,2,33.7,6c9,4,16.2,8.9,21.5,14.8c4.9,5.2,8.7,11.2,11.4,17.8l-36,20.1c-7.3-12.3-16.8-18.4-28.4-18.4
		c-5.1,0-9.3,1.1-12.6,3.2c-3.2,2.2-4.9,5-4.9,8.5c0,3.5,1.9,6.4,5.7,8.8c4.7,2.8,9.6,5.1,14.8,6.8c6.1,2.2,12.5,4.5,19.3,7
		c13.1,4.5,23.8,11,32.1,19.6c8.3,8.6,12.4,20.3,12.5,35.1c0,18.6-6.4,32.5-19.3,41.8s-30,13.9-51.4,13.9c-10.7,0-21.3-1.9-31.2-5.8
		c-9.6-3.7-18.4-9.3-25.9-16.4c-7.3-6.9-12.9-15.4-16.5-24.7L901.2,222.6z"/>
	<path class="st0" d="M1087.3,229.4v57.5H1039V112.7h64.4c23.9,0,41.6,5.1,53.1,15.4c11.5,10.3,17.3,24.6,17.3,42.8
		c0,18.1-5.8,32.3-17.3,42.8s-29.2,15.7-53.1,15.7L1087.3,229.4z M1087.3,190.3h16.2c7.8,0,13.7-1.7,17.8-5.1s6.1-8.2,6.1-14.3
		c0-12.6-8-18.9-23.9-18.9h-16.2V190.3z"/>
	<path class="st1" d="M481,217.6h-25c-8.3,0-15-6.7-15-15s6.7-15,15-15h25c8.3,0,15,6.7,15,15S489.3,217.6,481,217.6z"/>
	<path class="st1" d="M605.2,217.6h-41.4c-8.3,0-15-6.7-15-15s6.7-15,15-15h41.4c8.3,0,15,6.7,15,15S613.5,217.6,605.2,217.6z"/>
	<path class="st1" d="M713,217.6h-25c-8.3,0-15-6.7-15-15s6.7-15,15-15h25c8.3,0,15,6.7,15,15S721.3,217.6,713,217.6z"/>
	<path class="st1" d="M1261.3,217.6h-25c-8.3,0-15-6.7-15-15s6.7-15,15-15h25c8.3,0,15,6.7,15,15S1269.6,217.6,1261.3,217.6z"/>
	<path class="st1" d="M1385.5,217.6h-41.4c-8.3,0-15-6.7-15-15s6.7-15,15-15h41.4c8.3,0,15,6.7,15,15S1393.8,217.6,1385.5,217.6z"/>
	<path class="st1" d="M1493.3,217.6h-25c-8.3,0-15-6.7-15-15s6.7-15,15-15h25c8.3,0,15,6.7,15,15S1501.6,217.6,1493.3,217.6z"/>
	<g>
		<path class="st2" d="M1783.9,29.2H1615c-21.3,0-38.7,16.8-39.8,37.8c0,0.7-0.1,1.4-0.1,2v55.2V174v55.2v49.7v55.2
			c0,0.7,0,1.4,0.1,2c1.1,21,18.5,37.8,39.8,37.8h168.9c22,0,39.8-17.9,39.8-39.8v-55.2v-49.7V174v-49.7V69.1
			C1823.7,47.1,1805.9,29.2,1783.9,29.2z M1793.7,174v55.2c0,5.4-4.4,9.8-9.8,9.8H1615c-5.4,0-9.8-4.4-9.8-9.8V174
			c0-5.4,4.4-9.8,9.8-9.8h168.9C1789.3,164.1,1793.7,168.5,1793.7,174z M1783.9,59.2c5.4,0,9.8,4.4,9.8,9.8v55.2
			c0,5.4-4.4,9.8-9.8,9.8H1615c-5.4,0-9.8-4.4-9.8-9.8V69.1c0-5.4,4.4-9.8,9.8-9.8H1783.9z M1793.7,334.1c0,5.4-4.4,9.8-9.8,9.8
			H1615c-5.4,0-9.8-4.4-9.8-9.8v-55.2c0-5.4,4.4-9.8,9.8-9.8h168.9c5.4,0,9.8,4.4,9.8,9.8V334.1z"/>
		<path class="st2" d="M1639.3,111.7h36c8.3,0,15-6.7,15-15s-6.7-15-15-15h-36c-8.3,0-15,6.7-15,15S1631,111.7,1639.3,111.7z"/>
		<path class="st2" d="M1639.3,216.6h36c8.3,0,15-6.7,15-15s-6.7-15-15-15h-36c-8.3,0-15,6.7-15,15S1631,216.6,1639.3,216.6z"/>
		<path class="st2" d="M1675.3,291.5h-36c-8.3,0-15,6.7-15,15s6.7,15,15,15h36c8.3,0,15-6.7,15-15S1683.6,291.5,1675.3,291.5z"/>
	</g>
	<path class="st0" d="M195.9,441.6l-12,18.8v9.8h6.8v5.9h-20.2v-5.9h6.4v-9.8l-12.5-18.7h-3.7v-5.9h15.9v5.9h-4.2l8.1,12.7h0.4
		l7.9-12.7h-4.5v-5.9h15.2v5.9L195.9,441.6z"/>
	<path class="st0" d="M211.3,476.6c-8.5,0-14.1-5.5-14.1-14.3c0-8.1,4.9-14.8,14.5-14.8s14.5,6.7,14.5,14.6
		C226.2,470.8,220.1,476.6,211.3,476.6z M211.6,452.7c-4.7,0-7.5,3.7-7.5,9.2c0,5.3,2.5,9.4,7.5,9.4c4.8,0,7.7-3.8,7.7-9.5
		C219.3,456,216.1,452.7,211.6,452.7z"/>
	<path class="st0" d="M251.6,476v-4.7c-1.8,3.4-5.4,5.4-9.2,5.2c-5.3,0-9.7-3-9.7-10v-13.3h-4.2v-5.1h10.8v16c0,5.3,2,7.3,5.5,7.3
		c4.2,0,6.8-3.3,6.8-7.3v-10.8h-5v-5.1h11.6v22.8h4.4v5.1L251.6,476z"/>
	<path class="st2" d="M1578,441.6l-11,34.5h-5.1l-9.9-28.4h-0.3l-9.5,28.4h-5.2l-11.7-34.5h-3.5v-5.9h15.3v5.9h-4.5l7,23.1h0.3
		l8-23.1h-3.5v-5.9h15.3v5.9h-3.3l8,23.4h0.3l6.3-23.4h-5v-5.9h15.1v5.9H1578z"/>
	<path class="st2" d="M1593.9,476.6c-8.1,0-13.9-4.8-13.9-14.1c0-8.6,5-15,13.5-15c7.7,0,12.5,5.2,12.6,12.2c0,1.2-0.1,2.5-0.4,3.7
		H1587c0.4,5,2.9,7.8,7.4,7.8c4.3,0,5.9-2.5,6.4-4.8l5.5,1C1605.9,472.4,1601.5,476.6,1593.9,476.6z M1593.5,452.5c-4,0-6,3-6.5,6.9
		h12.3C1599.7,456.1,1597.9,452.5,1593.5,452.5z"/>
	<path class="st2" d="M1627.5,476.6c-4.3,0-7.6-1.9-9.2-5c-0.1,1-0.4,3.3-0.6,4.3h-6.6c0.6-2.8,0.9-5.6,1-8.4v-29.2h-4.2v-5.1h10.7
		v20.4c1.6-3.8,5.5-6.2,9.6-6.1c7,0,11.9,5.1,11.9,13.8C1640.2,469.3,1636.1,476.6,1627.5,476.6z M1626.2,452.9
		c-4.7,0-7.5,4.2-7.6,8.2v2c0,4.6,2.9,8.2,7.3,8.2c4.6,0,7.3-3.7,7.3-9.4C1633.2,456.1,1630.3,452.9,1626.2,452.9L1626.2,452.9z"/>
	<path class="st2" d="M1676.3,476.6c-11.7,0-20.1-8.4-20.1-20.3c0-10,6.1-21.3,20.1-21.3c6.8,0,11.5,2.2,14.4,4.8l1,8.8l-5.5,0.6
		l-1-5.6c-2.7-1.6-5.8-2.5-9-2.4c-7.6,0-12.6,5.7-12.6,14.8c0,9.6,5.3,14.6,13.3,14.6c2.8,0.1,5.6-0.5,8.1-1.7l1-6l5.7,0.5l-0.9,8.8
		C1687.9,474.9,1682,476.6,1676.3,476.6z"/>
	<path class="st2" d="M1710.2,476.6c-8.5,0-14.2-5.5-14.2-14.3c0-8.1,4.9-14.8,14.5-14.8s14.5,6.7,14.5,14.6
		C1725,470.8,1718.9,476.6,1710.2,476.6z M1710.4,452.7c-4.7,0-7.5,3.7-7.5,9.2c0,5.3,2.5,9.4,7.5,9.4c4.8,0,7.7-3.8,7.7-9.5
		C1718.1,456,1714.9,452.7,1710.4,452.7L1710.4,452.7z"/>
	<path class="st2" d="M1747.4,476v-5.1h4.1V460c0-5.3-2-7.3-5.4-7.3c-4.2,0-6.8,3.1-6.9,7.1v11.1h4.2v5.1h-15v-5.1h4.2v-17.6h-4.3
		v-5.2h11v4.5c1.9-3.3,5.5-5.3,9.2-5.1c5.3,0,9.7,3.1,9.7,10v13.3h4.2v5.1H1747.4z"/>
	<path class="st2" d="M1777.4,476.6c-6,0-9.7-3.3-9.7-8.9V453h-4.1v-4.9h4.1v-8.6h6.6v8.6h10.4v4.9h-10.4v13.6c0,3,1.4,4.4,3.8,4.4
		c1.4,0,3.5-0.5,4.2-4.8l4.9,1.5C1786.4,473.8,1783,476.6,1777.4,476.6z"/>
	<path class="st2" d="M1802.6,476.6c-8.1,0-13.9-4.8-13.9-14.1c0-8.6,5-15,13.5-15c7.7,0,12.5,5.2,12.6,12.2c0,1.2-0.1,2.5-0.4,3.7
		h-18.8c0.4,5,2.9,7.8,7.4,7.8c4.3,0,5.9-2.5,6.5-4.8l5.5,1C1814.6,472.4,1810.2,476.6,1802.6,476.6z M1802.2,452.5
		c-4,0-6,3-6.4,6.9h12.3C1808.4,456.1,1806.6,452.5,1802.2,452.5L1802.2,452.5z"/>
	<path class="st2" d="M1837.5,476v-5.1h4.1V460c0-5.3-2-7.3-5.4-7.3c-4.2,0-6.8,3.1-6.9,7.1v11.1h4.2v5.1h-15v-5.1h4.2v-17.6h-4.3
		v-5.2h11v4.5c1.9-3.3,5.5-5.3,9.2-5.1c5.3,0,9.7,3.1,9.7,10v13.3h4.2v5.1H1837.5z"/>
	<path class="st2" d="M1867.6,476.6c-6,0-9.7-3.3-9.7-8.9V453h-4.1v-4.9h4.1v-8.6h6.6v8.6h10.4v4.9h-10.4v13.6c0,3,1.4,4.4,3.8,4.4
		c1.4,0,3.5-0.5,4.2-4.8l4.9,1.5C1876.6,473.8,1873.1,476.6,1867.6,476.6z"/>
</g>
</svg>
