<?xml version="1.0" encoding="utf-8"?>
<!-- Generator: Adobe Illustrator 23.0.1, SVG Export Plug-In . SVG Version: 6.00 Build 0)  -->
<svg version="1.1" id="Layer_1" xmlns="http://www.w3.org/2000/svg" xmlns:xlink="http://www.w3.org/1999/xlink" x="0px" y="0px"
	 viewBox="0 0 1920 568" style="enable-background:new 0 0 1920 568;" xml:space="preserve">
<style type="text/css">
	.st0{fill:#BDCADA;}
	.st1{fill:#3EB1CF;}
	.st2{fill:#FFCD50;}
</style>
<title>workshop-illustrations</title>
<g id="Slide_2">
	<path class="st0" d="M1063.5,61.3h26.6v94.1h-26.6V61.3z"/>
	<path class="st0" d="M1122.1,120.7c3.4,5.4,6.8,9.3,10.2,11.8c3.5,2.5,7.8,3.9,12.1,3.8c6.6,0,9.9-2.4,9.9-7.2
		c0.1-2.1-0.8-4.1-2.4-5.4c-2-1.6-4.2-2.8-6.6-3.6c-2.8-1.1-5.9-2.3-9.5-3.8c-2.2-1-4.9-2.2-7.9-3.7c-3.1-1.5-6-3.4-8.6-5.6
		c-2.8-2.4-5.1-5.3-6.9-8.5c-1.9-3.8-2.9-8-2.8-12.2c-0.1-5.1,1.4-10.1,4.4-14.3c3.2-4.2,7.4-7.5,12.3-9.5c5.8-2.4,12-3.6,18.2-3.4
		c7.3,0,13.3,1.1,18.2,3.2c4.4,1.8,8.4,4.5,11.6,8c2.6,2.8,4.7,6.1,6.2,9.6l-19.4,10.9c-3.9-6.6-9-9.9-15.3-9.9
		c-2.4-0.1-4.7,0.5-6.8,1.7c-1.6,0.9-2.6,2.7-2.6,4.6c0,1.9,1,3.5,3.1,4.8c2.5,1.5,5.2,2.8,8,3.7c3.3,1.2,6.7,2.4,10.4,3.8
		c6.5,2.1,12.5,5.7,17.3,10.6c4.5,4.7,6.7,11,6.7,19c0,10-3.5,17.5-10.4,22.6c-6.9,5-16.2,7.6-27.7,7.5c-5.8,0-11.5-1-16.9-3.2
		c-5.2-2-10-5-14-8.9c-3.9-3.7-7-8.3-8.9-13.4L1122.1,120.7z"/>
	<path class="st0" d="M1222.6,124.3v31h-26.1v-94h34.8c12.9,0,22.5,2.8,28.7,8.3s9.3,13.3,9.3,23.1c0,9.8-3.1,17.5-9.3,23.1
		s-15.8,8.5-28.7,8.5L1222.6,124.3z M1222.6,103.2h8.7c4.2,0,7.4-0.9,9.6-2.8c2.2-1.9,3.4-4.8,3.3-7.7c0-6.8-4.3-10.2-12.9-10.2
		h-8.7V103.2z"/>
	<path class="st0" d="M1322.4,91.1V68.8l49.2-9.4v95.9h-25V85.4L1322.4,91.1z"/>
	<g>
		<path class="st1" d="M1779.6,85h-126.3c-16.4,0-29.8,13.4-29.8,29.8v41.3v37.1v41.3v37.1V313c0,16.4,13.4,29.8,29.8,29.8h126.3
			c16.4,0,29.8-13.4,29.8-29.8v-41.3v-37.1v-41.3v-37.1v-41.3C1809.4,98.4,1796,85,1779.6,85z M1779.6,241.9h-126.3c0,0-0.1,0-0.1,0
			c-4-0.1-7.2-3.3-7.2-7.3v-41.3c0-4.1,3.3-7.4,7.4-7.4h126.3c4.1,0,7.4,3.3,7.4,7.4v41.3c0,4-3.2,7.3-7.2,7.3
			C1779.7,241.9,1779.7,241.9,1779.6,241.9z M1646,114.8c0-4.1,3.3-7.4,7.4-7.4h126.3c4.1,0,7.4,3.3,7.4,7.4v41.3
			c0,4.1-3.3,7.4-7.4,7.4h-126.3c-4.1,0-7.4-3.3-7.4-7.4V114.8z M1787,313c0,3.8-2.9,6.9-6.6,7.3c-0.2,0-0.5,0-0.8,0h-126.3
			c-0.3,0-0.5,0-0.8,0c-3.7-0.4-6.6-3.5-6.6-7.3v-41.3c0-4,3.2-7.3,7.2-7.3c0,0,0.1,0,0.1,0h126.3c0,0,0.1,0,0.1,0
			c4,0.1,7.2,3.3,7.2,7.3V313z"/>
		<path class="st1" d="M1671.5,146.7h26.9c6.2,0,11.2-5,11.2-11.2s-5-11.2-11.2-11.2h-26.9c-6.2,0-11.2,5-11.2,11.2
			S1665.3,146.7,1671.5,146.7z"/>
		<path class="st1" d="M1698.4,202.7h-26.9c-6.2,0-11.2,5-11.2,11.2s5,11.2,11.2,11.2h26.9c6.2,0,11.2-5,11.2-11.2
			S1704.6,202.7,1698.4,202.7z"/>
		<path class="st1" d="M1698.4,281.1h-26.9c-6.2,0-11.2,5-11.2,11.2s5,11.2,11.2,11.2h26.9c6.2,0,11.2-5,11.2-11.2
			S1704.6,281.1,1698.4,281.1z"/>
	</g>
	<g>
		<path class="st0" d="M321.7,194.9l-33.8-33.8c0,0-0.1-0.1-0.1-0.1l-68.5-68.5c-11.6-11.6-30.5-11.6-42.1,0L74.7,194.9
			c-4.4,4.4-4.4,11.5,0,15.9c4.4,4.4,11.5,4.4,15.9,0L193,108.4c2.9-2.9,7.5-2.9,10.4,0l65.3,65.3v138.1c0,4-3.3,7.3-7.4,7.3H135.1
			c0,0,0,0,0,0c-4,0-7.3-3.3-7.3-7.4v-70.6c0-6.2-5-11.2-11.2-11.2s-11.2,5-11.2,11.2v70.6c0,16.4,13.4,29.8,29.8,29.8c0,0,0,0,0,0
			h126.3c16.4,0,29.8-13.4,29.8-29.8V196.1l14.7,14.7c2.2,2.2,5.1,3.3,7.9,3.3c2.9,0,5.7-1.1,7.9-3.3
			C326.1,206.4,326.1,199.3,321.7,194.9z"/>
		<polygon class="st0" points="186.1,402.1 188.8,402.1 188.8,397.7 177.4,397.7 177.4,402.1 180.8,402.1 174.9,411.6 174.6,411.6 
			168.6,402.1 171.8,402.1 171.8,397.7 159.8,397.7 159.8,402.1 162.7,402.1 172,416.1 172,423.5 167.2,423.5 167.2,427.9 
			182.2,427.9 182.2,423.5 177.1,423.5 177.1,416.2 		"/>
		<path class="st0" d="M197.9,406.6c-7.2,0-10.9,5-10.9,11.1c0,6.5,4.2,10.7,10.6,10.7c6.5,0,11.1-4.4,11.1-10.9
			C208.7,411.6,205.1,406.6,197.9,406.6z M197.8,424.4c-3.7,0-5.6-3.1-5.6-7.1c0-4.2,2.1-6.9,5.6-6.9c3.4,0,5.8,2.4,5.8,6.9
			C203.6,421.6,201.5,424.4,197.8,424.4z"/>
		<path class="st0" d="M232.7,407.1H224v3.8h3.7v8.1c0,3-2,5.5-5.1,5.5c-2.6,0-4.1-1.5-4.1-5.4v-12h-8.1v3.8h3.1v10
			c0,5.2,3.3,7.5,7.3,7.5c2.8,0.1,5.5-1.4,6.9-3.9v3.5h8.2v-3.8h-3.2V407.1z"/>
	</g>
	<path class="st1" d="M1624.6,405.3l-8.2,25.8h-3.8l-7.4-21.3h-0.2l-7.2,21.3h-3.8l-8.8-25.8h-2.6v-4.4h11.5v4.4h-3.3l5.2,17.3h0.2
		l6-17.3h-2.7v-4.4h11.4v4.4h-2.5l6,17.5h0.2l4.7-17.5h-3.7v-4.4h11.3v4.4L1624.6,405.3z"/>
	<path class="st1" d="M1636.5,431.5c-6.1,0-10.4-3.6-10.4-10.5c0-6.4,3.8-11.2,10.1-11.2c5.8,0,9.4,3.8,9.4,9.1
		c0,0.9-0.1,1.9-0.3,2.8h-14.1c0.3,3.8,2.1,5.8,5.6,5.8c3.2,0,4.4-1.8,4.8-3.6l4.1,0.8C1645.5,428.3,1642.2,431.5,1636.5,431.5z
		 M1636.2,413.4c-3,0-4.5,2.2-4.8,5.2h9.2C1640.9,416.1,1639.5,413.4,1636.2,413.4L1636.2,413.4z"/>
	<path class="st1" d="M1661.6,431.5c-3.2,0-5.7-1.4-6.9-3.7c-0.1,0.7-0.3,2.5-0.5,3.2h-4.9c0.4-2.1,0.7-4.2,0.7-6.3v-21.9h-3.1v-3.8
		h8v15.2c1.2-2.9,4.1-4.7,7.2-4.5c5.2,0,8.9,3.8,8.9,10.3C1671.1,426,1668.1,431.5,1661.6,431.5z M1660.6,413.7
		c-3.5,0-5.6,3.1-5.7,6.2v1.5c0,3.4,2.2,6.1,5.5,6.1s5.5-2.7,5.5-7S1663.8,413.7,1660.6,413.7L1660.6,413.7z"/>
	<path class="st1" d="M1698.1,431.5c-8.7,0-15-6.3-15-15.2c0-7.5,4.6-15.9,15-15.9c5.1,0,8.6,1.7,10.8,3.6l0.8,6.5l-4.2,0.4
		l-0.8-4.2c-2-1.2-4.3-1.9-6.7-1.8c-5.7,0-9.4,4.2-9.4,11.1c0,7.2,4,10.9,9.9,10.9c2.1,0,4.2-0.4,6.1-1.3l0.7-4.5l4.2,0.4l-0.7,6.6
		C1706.8,430.2,1702.4,431.5,1698.1,431.5z"/>
	<path class="st1" d="M1723.4,431.5c-6.4,0-10.6-4.1-10.6-10.7c0-6.1,3.7-11.1,10.9-11.1s10.8,5,10.8,10.9
		C1734.5,427.1,1730,431.5,1723.4,431.5z M1723.6,413.6c-3.5,0-5.6,2.7-5.6,6.9c0,4,1.9,7.1,5.6,7.1s5.8-2.9,5.8-7.1
		C1729.4,416,1727,413.6,1723.6,413.6L1723.6,413.6z"/>
	<path class="st1" d="M1751.3,431v-3.8h3.1V419c0-3.9-1.5-5.4-4-5.4c-3.2,0-5.1,2.3-5.2,5.3v8.3h3.1v3.8h-11.2v-3.8h3.1V414h-3.2
		v-3.8h8.2v3.4c1.4-2.5,4.1-3.9,6.9-3.8c4,0,7.2,2.3,7.2,7.5v10h3.1v3.8L1751.3,431z"/>
	<path class="st1" d="M1773.8,431.5c-4.4,0-7.3-2.5-7.3-6.7v-10.9h-3.1v-3.7h3.1v-6.5h5v6.5h7.8v3.7h-7.8V424c0,2.2,1,3.3,2.9,3.3
		c1.1,0,2.7-0.4,3.1-3.6l3.7,1.2C1780.5,429.4,1777.9,431.5,1773.8,431.5z"/>
	<path class="st1" d="M1792.6,431.5c-6.1,0-10.4-3.6-10.4-10.5c0-6.4,3.8-11.2,10.1-11.2c5.8,0,9.4,3.8,9.4,9.1
		c0,0.9-0.1,1.9-0.3,2.8h-14.1c0.3,3.8,2.1,5.8,5.6,5.8c3.2,0,4.4-1.8,4.8-3.6l4.1,0.8C1801.6,428.3,1798.2,431.5,1792.6,431.5z
		 M1792.3,413.4c-3,0-4.5,2.2-4.8,5.2h9.2C1796.9,416.1,1795.6,413.4,1792.3,413.4z"/>
	<path class="st1" d="M1818.7,431v-3.8h3.1V419c0-3.9-1.5-5.4-4-5.4c-3.2,0-5.1,2.3-5.2,5.3v8.3h3.1v3.8h-11.2v-3.8h3.1V414h-3.2
		v-3.8h8.2v3.4c1.4-2.5,4.1-3.9,6.9-3.8c4,0,7.2,2.3,7.2,7.5v10h3.1v3.8L1818.7,431z"/>
	<path class="st1" d="M1841.2,431.5c-4.5,0-7.3-2.5-7.3-6.7v-10.9h-3.1v-3.7h3.1v-6.5h5v6.5h7.8v3.7h-7.8V424c0,2.2,1,3.3,2.9,3.3
		c1.1,0,2.7-0.4,3.1-3.6l3.7,1.2C1847.9,429.4,1845.3,431.5,1841.2,431.5z"/>
	<path class="st2" d="M638.8,213.1c-2.8,0-5.6-1-7.8-3.1c-4.5-4.3-4.6-11.4-0.3-15.9l17.4-18c4.3-4.5,11.4-4.6,15.9-0.3
		c4.5,4.3,4.6,11.4,0.3,15.9l-17.4,18C644.7,212,641.7,213.1,638.8,213.1z M690.9,159.2c-2.8,0-5.6-1-7.8-3.1
		c-4.5-4.3-4.6-11.4-0.3-15.9l0.8-0.8c4.3-4.5,11.4-4.6,15.9-0.3c4.5,4.3,4.6,11.4,0.3,15.9l-0.8,0.8
		C696.8,158,693.9,159.2,690.9,159.2z"/>
	<path class="st2" d="M743.9,123.9c-5.6,0-10.5-4.2-11.1-10c-0.7-6.2,3.7-11.7,9.9-12.4l24.8-2.8c6.1-0.7,11.7,3.7,12.4,9.9
		c0.7,6.2-3.7,11.7-9.9,12.4l-24.8,2.8C744.7,123.9,744.3,123.9,743.9,123.9z M818.4,115.5c-5.6,0-10.5-4.2-11.1-10
		c-0.7-6.2,3.7-11.7,9.9-12.4l5.4-0.6c6.1-0.7,11.7,3.7,12.4,9.9c0.7,6.2-3.7,11.7-9.9,12.4l-5.4,0.6
		C819.3,115.5,818.9,115.5,818.4,115.5z"/>
	<path class="st2" d="M754.8,267.8c-0.5,0-0.9,0-1.4-0.1l-23.1-2.8c-6.1-0.8-10.5-6.3-9.8-12.5c0.8-6.1,6.4-10.5,12.5-9.8l23.1,2.8
		c6.1,0.8,10.5,6.3,9.8,12.5C765.2,263.6,760.4,267.8,754.8,267.8z M682.1,258.9c-0.5,0-0.9,0-1.4-0.1l-24.8-3
		c-6.1-0.8-10.5-6.4-9.8-12.5c0.8-6.1,6.4-10.5,12.5-9.8l24.8,3c6.1,0.8,10.5,6.4,9.8,12.5C692.5,254.7,687.7,258.9,682.1,258.9z"/>
	<path class="st2" d="M860,362.2c-3.6,0-7.1-1.7-9.3-4.9l-4.9-7.3c-3.5-5.1-2.1-12.1,3-15.6c5.1-3.5,12.1-2.1,15.6,3l4.9,7.3
		c3.5,5.1,2.1,12.1-3,15.6C864.4,361.5,862.2,362.2,860,362.2z M827.1,313.4c-3.6,0-7.1-1.7-9.3-4.9l-14-20.7
		c-3.5-5.1-2.1-12.1,3-15.6c5.1-3.5,12.1-2.1,15.6,3l14,20.7c3.5,5.1,2.1,12.1-3,15.6C831.5,312.8,829.3,313.4,827.1,313.4z"/>
	<path class="st2" d="M581.8,242.4h-25c-6.2,0-11.2-5-11.2-11.2s5-11.2,11.2-11.2h25c6.2,0,11.2,5,11.2,11.2S588,242.4,581.8,242.4z
		 M506.8,242.4h-25c-6.2,0-11.2-5-11.2-11.2s5-11.2,11.2-11.2h25c6.2,0,11.2,5,11.2,11.2S513,242.4,506.8,242.4z M431.8,242.4h-25
		c-6.2,0-11.2-5-11.2-11.2s5-11.2,11.2-11.2h25c6.2,0,11.2,5,11.2,11.2S438,242.4,431.8,242.4z M356.8,242.4h-24.1
		c-6.2,0-11.2-5-11.2-11.2s5-11.2,11.2-11.2h24.1c6.2,0,11.2,5,11.2,11.2S363,242.4,356.8,242.4z"/>
	<path class="st2" d="M905.2,108.8c-0.4,0-0.7,0-1.1-0.1l-12.4-1.2c-6.2-0.6-10.7-6.1-10.1-12.3c0.6-6.2,6.1-10.7,12.3-10.1
		l12.4,1.2c6.2,0.6,10.7,6.1,10.1,12.3C915.8,104.5,910.9,108.8,905.2,108.8z"/>
	<path class="st2" d="M963.2,114.4c-0.4,0-0.7,0-1.1-0.1l-19.3-1.9c-6.2-0.6-10.7-6.1-10.1-12.3c0.6-6.2,6.1-10.7,12.3-10.1
		l19.3,1.9c6.2,0.6,10.7,6.1,10.1,12.3C973.8,110.1,968.9,114.4,963.2,114.4z"/>
	<path class="st2" d="M1014.3,119.4c-0.4,0-0.7,0-1.1-0.1l-12.4-1.2c-6.2-0.6-10.7-6.1-10.1-12.3c0.6-6.2,6.1-10.7,12.2-10.1
		l12.4,1.2c6.2,0.6,10.7,6.1,10.1,12.3C1024.8,115,1020,119.4,1014.3,119.4z"/>
	<path class="st2" d="M912.5,391.6c-5.9,0-10.9-4.7-11.2-10.6c-0.3-6.2,4.4-11.5,10.6-11.8l12.5-0.6c6.2-0.3,11.5,4.4,11.8,10.6
		s-4.4,11.5-10.6,11.8l-12.5,0.6C912.9,391.6,912.7,391.6,912.5,391.6z"/>
	<path class="st2" d="M955.7,389.4c-5.9,0-10.9-4.6-11.2-10.6c-0.3-6.2,4.4-11.5,10.6-11.8l15.4-0.8c6.2-0.3,11.5,4.4,11.8,10.6
		c0.3,6.2-4.4,11.5-10.6,11.8l-15.4,0.8C956.1,389.3,955.9,389.4,955.7,389.4z"/>
	<path class="st2" d="M1001.7,387c-5.9,0-10.9-4.7-11.2-10.6c-0.3-6.2,4.4-11.5,10.6-11.8l12.5-0.6c6.2-0.3,11.5,4.4,11.8,10.6
		c0.3,6.2-4.4,11.5-10.6,11.8l-12.5,0.6C1002.1,387,1001.9,387,1001.7,387z"/>
	<path class="st0" d="M878,334.6c-25.2,0-45.7,20.5-45.7,45.7c0,2.5,0.2,4.9,0.6,7.2l-97.2,14.5c-1.5-5.1-3.8-9.8-6.8-14l60.9-85.9
		c25-0.2,45.4-20.6,45.4-45.7c0-11.8-4.5-22.6-11.9-30.8l42.4-84.3c21.8-3.5,38.5-22.4,38.5-45.1c0-25.2-20.5-45.7-45.7-45.7
		s-45.7,20.5-45.7,45.7c0,19.3,12.1,35.9,29.1,42.6l-37.4,74.4c-4.7-1.6-9.7-2.5-14.9-2.5c-3.9,0-7.7,0.5-11.4,1.4L741,150.5
		c8.7-8.3,14.1-20,14.1-33c0-25.2-20.5-45.7-45.7-45.7s-45.7,20.5-45.7,45.7s20.5,45.7,45.7,45.7c4.2,0,8.2-0.6,12.1-1.6l36.7,61.5
		c-9,8.4-14.6,20.3-14.6,33.5c0,16.9,9.2,31.7,22.9,39.6l-55,77.5c-6-2.9-12.7-4.5-19.8-4.5c-1.5,0-3.1,0.1-4.6,0.2l-38.7-99.2
		c12.1-8.2,20-22.1,20-37.8c0-25.2-20.5-45.7-45.7-45.7c-2.9,0-5.6,0.3-8.3,0.8l-19.9-75.3c15.7-7.3,26.5-23.1,26.5-41.5
		c0-25.2-20.5-45.7-45.7-45.7s-45.7,20.5-45.7,45.7c0,24.2,18.9,44.1,42.8,45.6l21.4,80.8c-10.2,8.4-16.7,21.1-16.7,35.3
		c0,11.5,4.3,22.1,11.4,30.1l-47.9,94c-2.4-0.4-5-0.6-7.5-0.6c-25.2,0-45.7,20.5-45.7,45.7s20.5,45.7,45.7,45.7s45.7-20.5,45.7-45.7
		c0-14.6-6.9-27.7-17.6-36l46-90.3c4.9,1.8,10.2,2.8,15.7,2.8c1.5,0,3.1-0.1,4.6-0.2l38.7,99.2c-12.1,8.2-20.1,22.1-20.1,37.8
		c0,25.2,20.5,45.7,45.7,45.7c21.8,0,40.1-15.4,44.6-35.9l105.9-15.8c8.4,10.5,21.3,17.2,35.7,17.2c25.2,0,45.7-20.5,45.7-45.7
		S903.2,334.6,878,334.6z M686.1,117.5c0-12.8,10.4-23.3,23.3-23.3s23.3,10.4,23.3,23.3s-10.4,23.3-23.3,23.3
		S686.1,130.3,686.1,117.5z M552,70.7c0-12.8,10.4-23.3,23.3-23.3s23.3,10.4,23.3,23.3S588.2,94,575.3,94S552,83.5,552,70.7z
		 M532.9,425c-12.8,0-23.3-10.4-23.3-23.3s10.4-23.3,23.3-23.3s23.3,10.4,23.3,23.3S545.8,425,532.9,425z M599.5,232.4
		c0-12.8,10.4-23.3,23.3-23.3s23.3,10.4,23.3,23.3s-10.4,23.3-23.3,23.3S599.5,245.3,599.5,232.4z M858.3,73.1
		c12.8,0,23.3,10.4,23.3,23.3s-10.4,23.3-23.3,23.3S835,109.2,835,96.4S845.5,73.1,858.3,73.1z M789.3,233.3
		c12.8,0,23.3,10.4,23.3,23.3c0,12.8-10.4,23.3-23.3,23.3S766,269.4,766,256.6C766,243.7,776.5,233.3,789.3,233.3z M691.7,438.1
		c-12.8,0-23.3-10.4-23.3-23.3s10.4-23.3,23.3-23.3S715,402,715,414.9S704.6,438.1,691.7,438.1z M878,403.6
		c-12.8,0-23.3-10.4-23.3-23.3s10.4-23.3,23.3-23.3s23.3,10.4,23.3,23.3S890.8,403.6,878,403.6z"/>
	<path class="st0" d="M1053.1,327.3h26.6v94h-26.6V327.3z"/>
	<path class="st0" d="M1111.7,386.7c3.4,5.4,6.8,9.3,10.2,11.8c3.5,2.5,7.8,3.9,12.1,3.8c6.6,0,9.9-2.4,9.9-7.3
		c0.1-2.1-0.8-4.1-2.4-5.4c-2-1.6-4.2-2.8-6.6-3.6c-2.8-1.1-5.9-2.3-9.5-3.8c-2.2-1-4.9-2.2-7.9-3.7c-3.1-1.5-6-3.4-8.6-5.6
		c-2.8-2.4-5.1-5.3-6.8-8.5c-1.9-3.8-2.9-8-2.8-12.2c-0.1-5.1,1.5-10.1,4.4-14.3c3.2-4.2,7.4-7.5,12.3-9.5c5.8-2.4,12-3.6,18.2-3.4
		c7.3,0,13.3,1.1,18.2,3.2c4.4,1.8,8.4,4.5,11.6,8c2.6,2.8,4.7,6.1,6.2,9.6l-19.5,10.9c-3.9-6.6-9-9.9-15.3-9.9
		c-2.4-0.1-4.7,0.5-6.8,1.7c-1.6,1-2.6,2.7-2.6,4.6c0,1.9,1,3.5,3.1,4.8c2.5,1.5,5.2,2.8,8,3.7c3.3,1.2,6.7,2.4,10.4,3.8
		c6.5,2.1,12.5,5.7,17.3,10.6c4.5,4.7,6.7,11,6.7,18.9c0,10-3.5,17.6-10.4,22.6c-6.9,5-16.2,7.5-27.7,7.6c-5.8,0-11.5-1-16.9-3.2
		c-5.2-2-10-5-14-8.9c-3.9-3.7-7-8.3-8.9-13.4L1111.7,386.7z"/>
	<path class="st0" d="M1212.2,390.3v31h-26.1v-94h34.8c12.9,0,22.5,2.8,28.7,8.3c6.2,5.6,9.3,13.3,9.3,23.1c0,9.8-3.1,17.5-9.3,23.1
		s-15.8,8.5-28.7,8.5H1212.2z M1212.2,369.2h8.7c4.2,0,7.4-0.9,9.6-2.8c2.2-1.9,3.4-4.8,3.3-7.7c0-6.8-4.3-10.2-12.9-10.2h-8.7
		V369.2z"/>
	<path class="st0" d="M1306.1,421.3l41.1-42.2c3.9-4.3,7.1-8,9.4-11c2.3-2.9,3.5-6.5,3.5-10.2c0-2.6-0.9-5.2-2.6-7.2
		c-1.7-2.1-4.5-3.2-8.5-3.2c-3.6-0.1-7.1,1.5-9.5,4.3c-2.5,3.1-3.9,7-3.7,11h-25.5c-0.1-6.5,1.5-12.9,4.4-18.6
		c3-5.7,7.6-10.5,13.2-13.7c5.9-3.4,13.2-5.2,21.8-5.2c8.1,0,14.9,1.5,20.4,4.6c5.2,2.7,9.5,6.7,12.6,11.7c2.8,4.4,4.3,9.6,4.3,14.8
		c0.1,4.9-1.3,9.6-3.8,13.8c-2.8,4.3-6.2,8.1-10.2,11.2l-19.3,16.1h36v23.9H1306.1z"/>
	<g>
		<path class="st2" d="M1450.1,348.8c-4.7-4.1-11.7-3.6-15.8,1l-16.5,18.8c-4.1,4.7-3.6,11.7,1,15.8c2.1,1.9,4.8,2.8,7.4,2.8
			c3.1,0,6.2-1.3,8.4-3.8l16.5-18.8C1455.2,359.9,1454.7,352.9,1450.1,348.8z"/>
		<path class="st2" d="M1499.5,292.4c-4.7-4.1-11.7-3.6-15.8,1l-16.5,18.8c-4.1,4.7-3.6,11.7,1,15.8c2.1,1.9,4.8,2.8,7.4,2.8
			c3.1,0,6.2-1.3,8.4-3.8l16.5-18.8C1504.6,303.5,1504.1,296.4,1499.5,292.4z"/>
		<path class="st2" d="M1483.5,185.8c2.2,2.5,5.3,3.8,8.4,3.8c2.6,0,5.3-0.9,7.4-2.8c4.7-4.1,5.1-11.2,1-15.8l-16.5-18.8
			c-4.1-4.7-11.2-5.1-15.8-1c-4.7,4.1-5.1,11.2-1,15.8L1483.5,185.8z"/>
		<path class="st2" d="M1434.1,129.4c2.2,2.5,5.3,3.8,8.4,3.8c2.6,0,5.3-0.9,7.4-2.8c4.7-4.1,5.1-11.2,1-15.8l-16.5-18.8
			c-4.1-4.7-11.2-5.1-15.8-1c-4.7,4.1-5.1,11.2-1,15.8L1434.1,129.4z"/>
		<path class="st2" d="M1570.7,228.4h-20.2c-0.2-0.3-0.5-0.6-0.7-0.9l-16.5-18.8c-4.1-4.7-11.2-5.1-15.8-1c-4.7,4.1-5.1,11.2-1,15.8
			l14.3,16.3l-14.1,16.1c-4.1,4.7-3.6,11.7,1,15.8c2.1,1.9,4.8,2.8,7.4,2.8c3.1,0,6.2-1.3,8.4-3.8l16.5-18.8
			c0.3-0.3,0.5-0.6,0.7-0.9h20c6.2,0,11.2-5,11.2-11.2S1576.9,228.4,1570.7,228.4z"/>
	</g>
	<path class="st0" d="M579.2,516.9v21.3h3.4v4.4h-11.6v-4.4h3v-14.5h-0.2l-8.8,16.7h-2.3l-9.2-17.1h-0.2v14.8h3.2v4.4h-11.4v-4.4
		h3.4v-21.3h-3.8v-4.4h8.2L564,533h0.2l10.6-20.6h8.2v4.4H579.2z"/>
	<path class="st0" d="M595.3,543.1c-6.1,0-10.4-3.6-10.4-10.5c0-6.4,3.8-11.2,10.1-11.2c5.8,0,9.4,3.9,9.4,9.1
		c0,0.9-0.1,1.9-0.3,2.8h-14.1c0.3,3.8,2.1,5.8,5.6,5.8c3.2,0,4.4-1.8,4.8-3.6l4.1,0.8C604.2,539.9,601,543.1,595.3,543.1z M595,525
		c-3,0-4.5,2.2-4.8,5.2h9.2C599.6,527.7,598.3,525,595,525z"/>
	<path class="st0" d="M615.9,543.1c-3,0-5.9-0.7-8.5-2l0.7-5.4l3.9,0.4v2.7c1.2,0.4,2.4,0.7,3.7,0.7c2.5,0,4.7-0.9,4.7-2.7
		c0-4.4-12.7-0.8-12.7-9c0-4.8,4.5-6.3,8.6-6.3c2.7,0,5.3,0.6,7.6,1.9l0.5,5.2l-3.9,0.5l-0.4-3.1c-1.2-0.5-2.4-0.7-3.7-0.7
		c-2,0-3.4,0.7-3.4,2.4c0,4.3,12.4,0.7,12.4,8.9C625.4,540.7,621.5,543.1,615.9,543.1z"/>
	<path class="st0" d="M641.7,542.6v-3.8h3.1v-8.2c0-4-1.6-5.4-4.1-5.4c-3.1,0-4.9,2.3-5.1,5.1v8.5h3.1v3.8h-11.1v-3.8h3.1v-24.3
		h-3.1v-3.8h8.1v14.5c1.4-2.5,4.1-4,6.9-3.9c4,0,7.2,2.3,7.2,7.5v10h3.1v3.8L641.7,542.6z"/>
	<path class="st0" d="M692.8,516.9v25.8h-3l-16.7-20.9h-0.2v16.5h4.4v4.4h-12.5v-4.4h3.3v-21.3h-3.8v-4.4h7.6l15.9,20h0.2v-15.6
		h-4.4v-4.4h12.7v4.4H692.8z"/>
	<path class="st0" d="M708.2,543.1c-6.1,0-10.4-3.6-10.4-10.5c0-6.4,3.8-11.2,10.1-11.2c5.8,0,9.4,3.9,9.4,9.1
		c0,0.9-0.1,1.9-0.3,2.8H703c0.3,3.8,2.1,5.8,5.6,5.8c3.2,0,4.4-1.8,4.8-3.6l4.1,0.8C717.2,539.9,713.9,543.1,708.2,543.1z
		 M707.9,525c-3,0-4.5,2.2-4.8,5.2h9.2C712.5,527.7,711.2,525,707.9,525L707.9,525z"/>
	<path class="st0" d="M729.6,543.1c-4.5,0-7.3-2.5-7.3-6.7v-11h-3.1v-3.7h3.1v-6.5h5v6.5h7.8v3.7h-7.8v10.2c0,2.2,1,3.3,2.9,3.3
		c1.1,0,2.7-0.4,3.1-3.6l3.7,1.2C736.3,541,733.7,543.1,729.6,543.1z"/>
	<path class="st0" d="M769.5,525.6l-5.8,17h-3.7l-5.8-13.7h-0.2l-5.4,13.7H745l-6-17h-2v-3.8h10.5v3.8h-3.2l3.2,10h0.3l5.3-13.8h3.1
		l6,13.7h0.3l2.5-9.9h-3.1v-3.8h9.8v3.8L769.5,525.6z"/>
	<path class="st0" d="M783.2,543.1c-6.4,0-10.6-4.1-10.6-10.7c0-6.1,3.7-11.1,10.9-11.1s10.8,5,10.8,10.9
		C794.3,538.7,789.7,543.1,783.2,543.1z M783.4,525.2c-3.5,0-5.6,2.7-5.6,6.9c0,4,1.9,7.1,5.6,7.1s5.8-2.9,5.8-7.1
		C789.1,527.6,786.8,525.2,783.4,525.2L783.4,525.2z"/>
	<path class="st0" d="M813.5,522.6l0.9,6.5l-3.8,0.5l-0.8-3.6c-0.5-0.3-1-0.4-1.6-0.5c-1.8,0-3.2,1.5-3.2,4v9.2h4.1v3.8h-12.2v-3.8
		h3.1v-13.1h-3.2v-3.8h7.8v3.9c0.7-2.4,2.4-4.2,5-4.2C810.9,521.4,812.3,521.8,813.5,522.6z"/>
	<path class="st0" d="M829.4,542.6v-3.8h2.4l-4.4-5.2h-3.3v5.2h2.3v3.8H816v-3.8h3.1v-24.3h-3.3v-3.8h8.3V530h3.6l3.7-4.4h-2.7v-3.8
		h10.2v3.8h-2.6l-4.9,5.8l6.3,7.4h2.2v3.8H829.4z"/>
</g>
</svg>
