<?xml version="1.0" encoding="utf-8"?>
<!-- Generator: Adobe Illustrator 23.0.1, SVG Export Plug-In . SVG Version: 6.00 Build 0)  -->
<svg version="1.1" id="Layer_1" xmlns="http://www.w3.org/2000/svg" xmlns:xlink="http://www.w3.org/1999/xlink" x="0px" y="0px"
	 viewBox="0 0 1920 715.6" style="enable-background:new 0 0 1920 715.6;" xml:space="preserve">
<style type="text/css">
	.st0{fill:#FFCD50;}
	.st1{fill:#BDCADA;}
	.st2{fill:#3EB1CF;}
</style>
<title>workshop-illustrations</title>
<g id="Slide_3">
	<path class="st0" d="M998.6,272.4c-3.8,0-7.5-1.4-10.4-4.2c-6-5.8-6.1-15.3-0.4-21.2l34.7-36c5.8-6,15.3-6.1,21.2-0.4
		c6,5.8,6.1,15.3,0.4,21.2l-34.7,36C1006.4,270.9,1002.5,272.4,998.6,272.4z"/>
	<path class="st0" d="M1154.7,346c-0.6,0-1.2,0-1.8-0.1l-7.2-0.9c-8.2-1-14.1-8.5-13.1-16.7c1-8.2,8.5-14.1,16.7-13.1l7.2,0.9
		c8.2,1,14.1,8.5,13.1,16.7C1168.7,340.4,1162.2,346,1154.7,346z M1073,336c-0.6,0-1.2,0-1.8-0.1l-49.6-6.1
		c-8.2-1-14.1-8.5-13.1-16.7s8.5-14.1,16.7-13.1l49.6,6.1c8.2,1,14.1,8.5,13.1,16.7C1087,330.4,1080.5,336,1073,336z"/>
	<path class="st0" d="M612,338c-7.8,0-14.3-6-14.9-13.9c-0.6-8.3,5.5-15.5,13.8-16.1l49.9-3.8c8.3-0.6,15.5,5.5,16.1,13.8
		c0.6,8.3-5.5,15.5-13.8,16.1l-49.9,3.8C612.8,337.9,612.4,338,612,338z M736.7,328.4c-7.8,0-14.3-6-14.9-13.9
		c-0.6-8.3,5.5-15.5,13.8-16.1l49.9-3.8c8.3-0.6,15.5,5.5,16.1,13.8c0.6,8.3-5.5,15.5-13.8,16.1l-49.9,3.8
		C737.4,328.4,737.1,328.4,736.7,328.4z M861.3,318.8c-7.8,0-14.3-6-14.9-13.9c-0.6-8.3,5.5-15.5,13.8-16.1L910,285
		c8.3-0.6,15.5,5.5,16.1,13.8c0.6,8.3-5.5,15.5-13.8,16.1l-49.9,3.8C862.1,318.8,861.7,318.8,861.3,318.8z"/>
	<path class="st1" d="M1320.5,436.2c-6.6,0-12.9,1-18.9,3l-56.1-83c-4.6-6.9-14-8.7-20.8-4c-6.9,4.6-8.7,14-4,20.8l55.5,82.2
		c-10.6,11-17.1,26-17.1,42.5c0,3.3,0.3,6.6,0.8,9.8L1128.8,527c-2-6.9-5.2-13.3-9.3-19l86.5-122c4.8-6.8,3.2-16.1-3.6-20.9
		c-6.8-4.8-16.1-3.2-20.9,3.6l-85.1,120c-8.1-3.9-17.1-6.1-26.7-6.1c-2.1,0-4.2,0.1-6.2,0.3l-52.2-133.6c16.3-11.1,27-29.7,27-50.8
		c0-33.9-27.6-61.4-61.4-61.4c-3.9,0-7.6,0.4-11.3,1.1l-26.8-101.5c21.1-9.7,35.7-31.1,35.7-55.8c0-33.9-27.6-61.4-61.4-61.4
		S851.7,47,851.7,80.8c0,32.6,25.5,59.3,57.5,61.3L938,251c-13.7,11.3-22.5,28.4-22.5,47.5c0,15.5,5.8,29.7,15.4,40.6l-64.6,126.7
		c-3.3-0.6-6.7-0.9-10.2-0.9c-33.9,0-61.4,27.6-61.4,61.4c0,33.9,27.6,61.4,61.4,61.4s61.4-27.6,61.4-61.4
		c0-19.7-9.3-37.2-23.8-48.5l62.1-121.7c6.6,2.4,13.7,3.7,21.1,3.7c2.1,0,4.2-0.1,6.2-0.3l52.2,133.6c-16.3,11.1-27,29.7-27,50.9
		c0,33.9,27.6,61.4,61.4,61.4c29.4,0,54-20.7,60-48.3l142.7-21.3c11.3,14.1,28.6,23.2,48,23.2c33.9,0,61.4-27.6,61.4-61.4
		C1382,463.8,1354.4,436.2,1320.5,436.2z M881.7,80.8c0-17.3,14.1-31.4,31.4-31.4s31.4,14.1,31.4,31.4s-14.1,31.4-31.4,31.4
		S881.7,98.2,881.7,80.8z M856.1,557.8c-17.3,0-31.4-14.1-31.4-31.4c0-17.3,14.1-31.4,31.4-31.4s31.4,14.1,31.4,31.4
		C887.5,543.7,873.4,557.8,856.1,557.8z M945.5,298.5c0-17.3,14.1-31.4,31.4-31.4c17.3,0,31.4,14.1,31.4,31.4s-14.1,31.4-31.4,31.4
		C959.6,329.9,945.5,315.8,945.5,298.5z M1069.8,575.5c-17.3,0-31.4-14.1-31.4-31.4c0-17.3,14.1-31.4,31.4-31.4
		c17.3,0,31.4,14.1,31.4,31.4C1101.2,561.4,1087.2,575.5,1069.8,575.5z M1320.5,529.1c-17.3,0-31.4-14.1-31.4-31.4
		c0-17.3,14.1-31.4,31.4-31.4c17.3,0,31.4,14.1,31.4,31.4C1352,515,1337.9,529.1,1320.5,529.1z"/>
	<g>
		<path class="st1" d="M1355.4,115.4c0-33.9-27.6-61.4-61.4-61.4c-32.7,0-59.4,25.6-61.3,57.8l-94.3,10.6
			c-8.2,0.9-14.2,8.4-13.2,16.6c0.9,7.7,7.4,13.3,14.9,13.3c0.6,0,1.1,0,1.7-0.1l96.6-10.9c6.7,14.3,18.7,25.5,33.4,31.3
			l-57.2,113.7c-3.7,7.4-0.7,16.4,6.7,20.1c2.2,1.1,4.5,1.6,6.7,1.6c5.5,0,10.8-3,13.4-8.3l62.3-123.8
			C1332.9,171.4,1355.4,146,1355.4,115.4z M1294,146.8c-17.3,0-31.4-14.1-31.4-31.4S1276.7,84,1294,84c17.3,0,31.4,14.1,31.4,31.4
			S1311.3,146.8,1294,146.8z"/>
		<path class="st1" d="M1129.1,176.6c-4.2-7.1-13.5-9.4-20.6-5.2c-7.1,4.2-9.4,13.5-5.2,20.6l63.1,105.7c2.8,4.7,7.8,7.3,12.9,7.3
			c2.6,0,5.3-0.7,7.7-2.1c7.1-4.2,9.4-13.5,5.2-20.6L1129.1,176.6z"/>
	</g>
	<path class="st2" d="M1201.1,392.4c-33.9,0-61.4-27.6-61.4-61.4c0-33.9,27.6-61.4,61.4-61.4s61.4,27.6,61.4,61.4
		C1262.6,364.9,1235,392.4,1201.1,392.4z M1201.1,299.6c-17.3,0-31.4,14.1-31.4,31.4c0,17.3,14.1,31.4,31.4,31.4
		s31.4-14.1,31.4-31.4C1232.6,313.7,1218.5,299.6,1201.1,299.6z"/>
	<path class="st2" d="M1093.6,205.2c-33.9,0-61.4-27.6-61.4-61.4s27.6-61.4,61.4-61.4c33.9,0,61.4,27.6,61.4,61.4
		S1127.5,205.2,1093.6,205.2z M1093.6,112.3c-17.3,0-31.4,14.1-31.4,31.4s14.1,31.4,31.4,31.4c17.3,0,31.4-14.1,31.4-31.4
		S1110.9,112.3,1093.6,112.3z"/>
	<path class="st1" d="M921.5,661.6v28.2h4.6v5.8h-15.3v-5.8h3.9v-19h-0.2l-11.6,22h-3.1l-12.2-22.6h-0.2v19.6h4.2v5.8h-15.1v-5.8
		h4.5v-28.2h-5v-5.8h10.8l14.7,27.1h0.2l14-27.1h10.8v5.8H921.5z"/>
	<path class="st1" d="M942.7,696.2c-8,0-13.7-4.8-13.7-13.9c0-8.5,5-14.8,13.3-14.8c7.6,0,12.4,5.1,12.4,12c0,1.2-0.1,2.5-0.4,3.7
		h-18.5c0.4,5,2.8,7.7,7.3,7.7c4.2,0,5.8-2.5,6.4-4.8l5.5,1C954.5,692.1,950.2,696.2,942.7,696.2z M942.3,672.4
		c-3.9,0-5.9,2.9-6.4,6.8H948C948.4,676,946.6,672.4,942.3,672.4z"/>
	<path class="st1" d="M969.9,696.2c-3.9,0-7.8-0.9-11.3-2.7l1-7.1l5.1,0.5l-0.1,3.5c1.5,0.6,3.2,0.8,4.8,0.8c3.3,0,6.2-1.2,6.2-3.5
		c0-5.8-16.8-1-16.8-11.9c0-6.4,5.9-8.3,11.3-8.3c3.5,0,6.9,0.9,10,2.5l0.7,6.8l-5.1,0.6l-0.5-4.1c-1.5-0.6-3.2-0.9-4.8-0.9
		c-2.6,0-4.5,1-4.5,3.2c0,5.6,16.4,1,16.4,11.8C982.4,693.2,977.2,696.2,969.9,696.2z"/>
	<path class="st1" d="M1003.8,695.6v-5h4.1v-10.8c0-5.2-2.1-7.2-5.4-7.2c-4,0-6.5,3-6.7,6.7v11.2h4v5h-14.6v-5h4.1v-32.1h-4.1v-5
		h10.7v19.2c1.8-3.3,5.4-5.3,9.1-5.1c5.3,0,9.5,3.1,9.5,9.8v13.2h4.1v5L1003.8,695.6z"/>
	<path class="st1" d="M1071.2,661.6v34l-3.9,0.1l-22-27.6h-0.3v21.7h5.8v5.8h-16.6v-5.8h4.4v-28.2h-5v-5.8h10l21,26.3h0.2v-20.5
		h-5.9v-5.8h16.8v5.8H1071.2z"/>
	<path class="st1" d="M1091.5,696.2c-8,0-13.7-4.8-13.7-13.9c0-8.5,5-14.8,13.3-14.8c7.6,0,12.4,5.1,12.4,12c0,1.2-0.1,2.5-0.4,3.7
		h-18.6c0.4,5,2.8,7.7,7.3,7.7c4.2,0,5.8-2.5,6.4-4.8l5.4,1C1103.4,692.1,1099,696.2,1091.5,696.2z M1091.1,672.4
		c-3.9,0-5.9,2.9-6.4,6.8h12.1C1097.2,676,1095.5,672.4,1091.1,672.4z"/>
	<path class="st1" d="M1119.7,696.2c-5.9,0-9.6-3.2-9.6-8.8V673h-4v-4.8h4v-8.5h6.6v8.5h10.2v4.8h-10.2v13.4c0,2.9,1.4,4.3,3.8,4.3
		c1.4,0,3.5-0.5,4.1-4.7l4.8,1.5C1128.6,693.5,1125.1,696.2,1119.7,696.2z"/>
	<path class="st1" d="M1172.3,673.1l-7.7,22.5h-4.9l-7.6-18.1h-0.3l-7.2,18.1h-4.6l-7.9-22.5h-2.7v-5h13.9v5h-4.3l4.2,13.2h0.4
		l7-18.2h4l7.9,18h0.4l3.3-13h-4.1v-5h12.8v5L1172.3,673.1z"/>
	<path class="st1" d="M1190.4,696.2c-8.4,0-13.9-5.5-13.9-14.1c0-8,4.8-14.6,14.3-14.6s14.3,6.6,14.3,14.4
		C1205,690.5,1199,696.2,1190.4,696.2z M1190.6,672.7c-4.7,0-7.4,3.6-7.4,9.1c0,5.2,2.5,9.3,7.4,9.3c4.7,0,7.6-3.8,7.6-9.4
		C1198.2,675.8,1195,672.7,1190.6,672.7z"/>
	<path class="st1" d="M1230.3,669.2l1.2,8.6l-5.1,0.6l-1-4.7c-0.6-0.4-1.4-0.6-2.1-0.6c-2.3,0-4.2,2-4.2,5.3v12.2h5.4v5h-16.1v-5
		h4.1v-17.4h-4.3v-5.1h10.3v5.1c1-3.1,3.1-5.6,6.6-5.6C1227,667.7,1228.8,668.2,1230.3,669.2z"/>
	<path class="st1" d="M1251.3,695.6v-5h3.2l-5.8-6.8h-4.4v6.8h3.1v5h-13.7v-5h4.1v-32.1h-4.3v-5h10.9V679h4.8l4.8-5.8h-3.6v-5.1
		h13.4v5.1h-3.4l-6.5,7.6l8.3,9.8h2.9v5L1251.3,695.6z"/>
	<path class="st1" d="M594.9,240.2l-137-137c-15.5-15.5-40.8-15.5-56.3,0l-137,137c-5.9,5.9-5.9,15.4,0,21.2
		c5.9,5.9,15.4,5.9,21.2,0l137-137c3.8-3.8,10.1-3.8,13.9,0l87.3,87.3v184.7c0,5.4-4.4,9.8-9.9,9.8H345.2c-5.4,0-9.8-4.4-9.8-9.8
		V302c0-8.3-6.7-15-15-15s-15,6.7-15,15v94.4c0,22,17.9,39.8,39.8,39.8h168.8c22,0,39.8-17.9,39.8-39.8V241.7l19.7,19.7
		c2.9,2.9,6.8,4.4,10.6,4.4s7.7-1.5,10.6-4.4C600.7,255.5,600.7,246,594.9,240.2z"/>
	<path class="st1" d="M413.4,503.9l-12,18.8v9.8h6.8v5.9H388v-5.9h6.5v-9.8L382,503.9h-3.7V498h16v5.9H390l8.1,12.7h0.4l7.9-12.7
		h-4.5V498h15.2v5.9L413.4,503.9z"/>
	<path class="st1" d="M428.8,538.9c-8.5,0-14.1-5.5-14.1-14.3c0-8.1,4.9-14.8,14.5-14.8s14.5,6.7,14.5,14.6
		C443.7,533.1,437.6,538.9,428.8,538.9z M429,515c-4.7,0-7.5,3.7-7.5,9.2c0,5.3,2.5,9.4,7.5,9.4c4.8,0,7.7-3.8,7.7-9.5
		C436.8,518.3,433.6,515,429,515z"/>
	<path class="st1" d="M469.1,538.3v-4.7c-1.8,3.4-5.4,5.4-9.2,5.2c-5.3,0-9.7-3-9.7-10v-13.3H446v-5.1h10.8v16c0,5.3,2,7.3,5.5,7.3
		c4.2,0,6.8-3.3,6.8-7.3v-10.8h-5v-5.1h11.6v22.8h4.4v5.1L469.1,538.3z"/>
	<path class="st2" d="M1364.7,316l-10.8,34h-5l-9.7-28h-0.3l-9.4,28h-5.1l-11.5-34h-3.4v-5.8h15.1v5.8h-4.4l6.9,22.8h0.3l7.9-22.8
		h-3.5v-5.8h15.1v5.8h-3.2l7.9,23.1h0.3l6.2-23.1h-4.9v-5.8h14.9v5.8H1364.7z"/>
	<path class="st2" d="M1380.4,350.5c-8,0-13.7-4.8-13.7-13.9c0-8.5,5-14.8,13.3-14.8c7.6,0,12.4,5.1,12.4,12c0,1.2-0.1,2.5-0.4,3.7
		h-18.5c0.4,5,2.8,7.7,7.3,7.7c4.2,0,5.8-2.5,6.4-4.8l5.4,1C1392.3,346.4,1387.9,350.5,1380.4,350.5z M1380,326.7
		c-3.9,0-5.9,2.9-6.4,6.8h12.1C1386.1,330.3,1384.4,326.7,1380,326.7L1380,326.7z"/>
	<path class="st2" d="M1413.5,350.5c-4.3,0-7.5-1.8-9.1-4.9c-0.1,1-0.4,3.3-0.6,4.3h-6.5c0.6-2.7,0.9-5.5,1-8.3v-28.8h-4.1v-5h10.6
		v20.1c1.6-3.8,5.4-6.2,9.5-6c6.9,0,11.8,5,11.8,13.7C1426,343.3,1422,350.5,1413.5,350.5z M1412.2,327.2c-4.7,0-7.4,4.1-7.5,8.1v2
		c0,4.5,2.9,8.1,7.2,8.1c4.5,0,7.2-3.6,7.2-9.2C1419.2,330.3,1416.3,327.2,1412.2,327.2L1412.2,327.2z"/>
	<path class="st2" d="M1461.6,350.5c-11.5,0-19.8-8.3-19.8-20c0-9.9,6.1-21,19.8-21c6.7,0,11.4,2.2,14.2,4.7l1,8.6l-5.6,0.5l-1-5.5
		c-2.7-1.6-5.7-2.4-8.8-2.4c-7.5,0-12.4,5.6-12.4,14.6c0,9.5,5.3,14.4,13.1,14.4c2.8,0.1,5.5-0.5,8-1.7l1-5.9l5.6,0.5l-0.9,8.7
		C1473,348.8,1467.3,350.5,1461.6,350.5z"/>
	<path class="st2" d="M1495,350.5c-8.4,0-14-5.5-14-14.1c0-8,4.8-14.6,14.3-14.6s14.3,6.6,14.3,14.4
		C1509.6,344.8,1503.6,350.5,1495,350.5z M1495.3,327c-4.6,0-7.4,3.6-7.4,9.1c0,5.2,2.5,9.3,7.4,9.3c4.7,0,7.6-3.8,7.6-9.4
		C1502.8,330.2,1499.7,327,1495.3,327L1495.3,327z"/>
	<path class="st2" d="M1531.7,349.9v-5h4v-10.8c0-5.2-2-7.2-5.3-7.2c-4.2,0-6.7,3.1-6.8,7v11h4.1v5h-14.8v-5h4.1v-17.4h-4.3v-5.1
		h10.8v4.5c1.9-3.2,5.4-5.2,9.1-5c5.3,0,9.6,3.1,9.6,9.8v13.2h4.1v5L1531.7,349.9z"/>
	<path class="st2" d="M1561.3,350.5c-5.9,0-9.6-3.2-9.6-8.8v-14.4h-4v-4.8h4v-8.5h6.6v8.5h10.2v4.8h-10.2v13.4
		c0,2.9,1.3,4.3,3.8,4.3c1.4,0,3.5-0.5,4.1-4.7l4.8,1.5C1570.2,347.8,1566.8,350.5,1561.3,350.5z"/>
	<path class="st2" d="M1586.2,350.5c-8,0-13.7-4.8-13.7-13.9c0-8.5,5-14.8,13.3-14.8c7.6,0,12.4,5.1,12.4,12c0,1.2-0.1,2.5-0.4,3.7
		h-18.6c0.4,5,2.8,7.7,7.4,7.7c4.2,0,5.8-2.5,6.4-4.8l5.4,1C1598,346.4,1593.6,350.5,1586.2,350.5z M1585.8,326.7
		c-3.9,0-5.9,2.9-6.4,6.8h12.1C1591.9,330.3,1590.1,326.7,1585.8,326.7z"/>
	<path class="st2" d="M1620.6,349.9v-5h4v-10.8c0-5.2-2-7.2-5.3-7.2c-4.2,0-6.7,3.1-6.8,7v11h4.1v5h-14.7v-5h4.1v-17.4h-4.3v-5.1
		h10.8v4.5c1.9-3.2,5.4-5.2,9.1-5c5.3,0,9.6,3.1,9.6,9.8v13.2h4.1v5L1620.6,349.9z"/>
	<path class="st2" d="M1650.2,350.5c-5.9,0-9.6-3.2-9.6-8.8v-14.4h-4v-4.8h4v-8.5h6.6v8.5h10.2v4.8h-10.2v13.4
		c0,2.9,1.4,4.3,3.8,4.3c1.4,0,3.5-0.5,4.1-4.7l4.8,1.5C1659,347.8,1655.6,350.5,1650.2,350.5z"/>
</g>
</svg>
