<svg id="Module_6_Smart_Devices" data-name="Module 6 Smart Devices" xmlns="http://www.w3.org/2000/svg" viewBox="0 0 1920 1080"><title>smart-home</title><line x1="1448.19" y1="569.34" x2="1658.29" y2="569.34" style="fill:none;stroke:#ffcd50;stroke-linecap:round;stroke-miterlimit:10;stroke-width:15.677370760392884px;stroke-dasharray:17.10258674621582,35.63038635253906"/><line x1="481.59" y1="427.78" x2="366.31" y2="429.2" style="fill:none;stroke:#ffcd50;stroke-linecap:round;stroke-miterlimit:10;stroke-width:15.677370760392884px;stroke-dasharray:17.10258674621582,35.63038635253906"/><line x1="561.29" y1="661.78" x2="366.31" y2="661.78" style="fill:none;stroke:#ffcd50;stroke-linecap:round;stroke-miterlimit:10;stroke-width:15.677370760392884px;stroke-dasharray:17.10258674621582,35.63038635253906"/><line x1="1319.94" y1="491.24" x2="1122.31" y2="491.24" style="fill:none;stroke:#ffcd50;stroke-linecap:round;stroke-miterlimit:10;stroke-width:15.677370760392884px;stroke-dasharray:17.10258674621582,35.63038635253906"/><rect x="1658.29" y="441.66" width="116.44" height="167.68" rx="13.23" style="fill:none;stroke:#bdcada;stroke-linecap:round;stroke-miterlimit:10;stroke-width:15.677370760392884px"/><rect x="1658.29" y="441.66" width="116.44" height="55.89" rx="13.23" style="fill:none;stroke:#bdcada;stroke-linecap:round;stroke-miterlimit:10;stroke-width:15.677370760392884px"/><rect x="1658.29" y="497.56" width="116.44" height="55.89" rx="13.23" style="fill:none;stroke:#bdcada;stroke-linecap:round;stroke-miterlimit:10;stroke-width:15.677370760392884px"/><rect x="1658.29" y="553.45" width="116.44" height="55.89" rx="13.23" style="fill:none;stroke:#bdcada;stroke-linecap:round;stroke-miterlimit:10;stroke-width:15.677370760392884px"/><line x1="1684.44" y1="469.61" x2="1703.63" y2="469.61" style="fill:none;stroke:#3eb1cf;stroke-linecap:round;stroke-miterlimit:10;stroke-width:15.677370760392884px"/><line x1="1684.44" y1="525.51" x2="1703.63" y2="525.51" style="fill:none;stroke:#3eb1cf;stroke-linecap:round;stroke-miterlimit:10;stroke-width:15.677370760392884px"/><line x1="1684.44" y1="581.4" x2="1703.63" y2="581.4" style="fill:none;stroke:#3eb1cf;stroke-linecap:round;stroke-miterlimit:10;stroke-width:15.677370760392884px"/><path d="M1649.76,659v21.27l-2.45,0L1633.51,663h-.15v13.61H1637v3.64h-10.39v-3.64h2.76V659h-3.14v-3.64h6.25l13.14,16.48h.16V659h-3.64v-3.64h10.5V659Z" style="fill:#bdcada"/><path d="M1662.49,680.61c-5,0-8.59-3-8.59-8.7,0-5.29,3.1-9.24,8.35-9.24,4.76,0,7.75,3.19,7.79,7.52a12.62,12.62,0,0,1-.23,2.3h-11.62c.23,3.1,1.77,4.83,4.6,4.83a3.69,3.69,0,0,0,4-3l3.41.65C1669.88,678,1667.16,680.61,1662.49,680.61Zm-.27-14.91c-2.46,0-3.68,1.84-4,4.26h7.59C1666.05,667.93,1664.94,665.7,1662.22,665.7Z" style="fill:#bdcada"/><path d="M1680.11,680.61c-3.68,0-6-2-6-5.52v-9h-2.53v-3h2.53v-5.33h4.1V663h6.4v3h-6.4v8.39c0,1.84.84,2.72,2.37,2.72.89,0,2.19-.3,2.57-2.95l3,1C1685.67,678.89,1683.53,680.61,1680.11,680.61Z" style="fill:#bdcada"/><path d="M1713.08,666.16l-4.83,14.07h-3.07l-4.75-11.35h-.2l-4.48,11.35h-2.91l-4.95-14.07h-1.68V663H1695v3.14h-2.69l2.65,8.28h.23l4.4-11.42h2.53l5,11.31h.23l2.07-8.17h-2.57V663h8v3.14Z" style="fill:#bdcada"/><path d="M1724.38,680.61c-5.25,0-8.74-3.41-8.74-8.81,0-5,3-9.16,9-9.16s8.93,4.14,8.93,9C1733.54,677,1729.78,680.61,1724.38,680.61Zm.15-14.75c-2.91,0-4.64,2.26-4.64,5.71,0,3.26,1.58,5.82,4.64,5.82s4.76-2.37,4.76-5.86C1729.29,667.85,1727.33,665.86,1724.53,665.86Z" style="fill:#bdcada"/><path d="M1749.37,663.71l.73,5.37-3.19.38-.65-3a2.82,2.82,0,0,0-1.3-.39c-1.46,0-2.65,1.27-2.65,3.34v7.63h3.42v3.14h-10.09v-3.14h2.57V666.2h-2.68V663H1742v3.22c.61-2,2-3.49,4.14-3.49A5.92,5.92,0,0,1,1749.37,663.71Z" style="fill:#bdcada"/><path d="M1762.51,680.23v-3.14h2l-3.61-4.3h-2.76v4.3h1.92v3.14h-8.59v-3.14H1754V657h-2.72v-3.14h6.82v16h2.95l3-3.64h-2.26V663h8.4v3.18h-2.15l-4.06,4.75,5.21,6.14h1.84v3.14Z" style="fill:#bdcada"/><path d="M1805.9,665.82v3.6h-3a19.77,19.77,0,0,1-4.45,6.4,8.73,8.73,0,0,0,3.68.88,6.79,6.79,0,0,0,2.69-.61l.88,3.49a8.48,8.48,0,0,1-4.22,1,13.06,13.06,0,0,1-6.59-2,12.66,12.66,0,0,1-6.67,2c-3.68,0-7.67-2-7.67-6.24,0-3.38,2.46-5,5-6.33a14.62,14.62,0,0,1-1.5-6c0-3.71,2.23-7.09,7.29-7.09,3.94,0,6.67,2.11,6.67,5.52,0,3.57-3.11,5.33-7.75,7.63a20.74,20.74,0,0,0,5.71,6.25,10.82,10.82,0,0,0,2.53-4.91h-2.53v-3.6Zm-21.28,7.78c0,2.61,2.11,3.53,4.72,3.53a8.86,8.86,0,0,0,2.84-.43,26.43,26.43,0,0,1-5.64-6.67A4.27,4.27,0,0,0,1784.62,673.6Zm6.52-15.49c-2.38,0-3,2-3,3.57a11.24,11.24,0,0,0,1,4.41c2.95-1.69,4.56-3.38,4.56-5.45A2.36,2.36,0,0,0,1791.14,658.11Z" style="fill:#bdcada"/><path d="M1566.6,726.22v-3.64h2.53l-1.26-3.41h-9.32l-1.34,3.41h2.8v3.64h-9.43v-3.64h2.3l7.51-17.63h-3.64v-3.64h8l9,21.27h2.41v3.64Zm-3.14-18.82h-.23l-3.45,8.66h6.93Z" style="fill:#bdcada"/><path d="M1588.41,726.6a6,6,0,0,1-5.41-2.68v7.24h3.41v3.22h-10.08v-3.22h2.57v-19h-2.68V709H1583v3.41a6.16,6.16,0,0,1,5.9-3.75c4.37,0,7.4,3.14,7.4,8.5C1596.3,722.08,1593.77,726.6,1588.41,726.6Zm-.85-14.64c-2.76,0-4.4,2.45-4.52,5.25l0,1.34c0,2.84,1.84,4.76,4.45,4.76,2.91,0,4.6-2.19,4.6-5.71C1592.05,713.92,1590.17,712,1587.56,712Z" style="fill:#bdcada"/><path d="M1610,726.6a6,6,0,0,1-5.4-2.68v7.24H1608v3.22h-10.08v-3.22h2.57v-19h-2.69V709h6.79v3.41a6.16,6.16,0,0,1,5.9-3.75c4.37,0,7.4,3.14,7.4,8.5C1617.88,722.08,1615.35,726.6,1610,726.6Zm-.84-14.64c-2.76,0-4.41,2.45-4.52,5.25l0,1.34c0,2.84,1.84,4.76,4.44,4.76,2.92,0,4.6-2.19,4.6-5.71C1613.62,713.92,1611.75,712,1609.14,712Z" style="fill:#bdcada"/><path d="M1619.68,726.22v-3.14h2.56V703h-2.72v-3.14h6.79v23.23h2.57v3.14Z" style="fill:#bdcada"/><path d="M1630.87,726.22v-3.14h2.57V712.19h-2.73V709h6.79v14.07h2.57v3.14Zm2.34-25.3h4.17v4.52h-4.17Z" style="fill:#bdcada"/><path d="M1650.15,726.6c-4.91,0-8.32-3-8.32-8.7s3.52-9.23,8.66-9.23a11.64,11.64,0,0,1,6.09,1.64l.7,4.83-3.3.35-.58-2.84a6.79,6.79,0,0,0-3-.69c-2.72,0-4.29,2.07-4.29,5.75,0,3.53,1.5,5.6,4.41,5.6,2.26,0,3.45-1.31,3.87-3.91l3.45.65C1657.47,723.12,1655.36,726.6,1650.15,726.6Z" style="fill:#bdcada"/><path d="M1668.35,708.67c3.83,0,6.59,1.91,6.59,5.82v7.74c0,1.11.39,1.54,1.27,1.54a3.4,3.4,0,0,0,.88-.16l0,2.27a5.82,5.82,0,0,1-2.76.72,3.31,3.31,0,0,1-3.53-3.41v-.07a6.42,6.42,0,0,1-5.63,3.48c-2.42,0-5.29-1.26-5.29-4.9,0-4.26,4.1-5.22,8-5.22a22.5,22.5,0,0,1,2.91.16v-1c0-2-.34-4-3.22-4a5.94,5.94,0,0,0-2.87.58l-.69,2.64-3.3-.34.73-4.3A14,14,0,0,1,1668.35,708.67Zm2.49,10.11a22,22,0,0,0-2.76-.23c-2,0-3.95.54-3.95,2.69a2.22,2.22,0,0,0,2.49,2.34,4.25,4.25,0,0,0,4.22-4.18Z" style="fill:#bdcada"/><path d="M1686.67,726.6c-3.68,0-6-2-6-5.52v-9h-2.53v-3h2.53v-5.33h4.1V709h6.4v3h-6.4v8.39c0,1.84.84,2.72,2.38,2.72.88,0,2.18-.3,2.57-2.95l3,1C1692.23,724.88,1690.08,726.6,1686.67,726.6Z" style="fill:#bdcada"/><path d="M1693.87,726.22v-3.14h2.57V712.19h-2.72V709h6.78v14.07h2.57v3.14Zm2.34-25.3h4.18v4.52h-4.18Z" style="fill:#bdcada"/><path d="M1713.53,726.6c-5.25,0-8.74-3.41-8.74-8.81,0-5,3-9.16,9-9.16s8.93,4.14,8.93,9C1722.69,723,1718.94,726.6,1713.53,726.6Zm.16-14.75c-2.92,0-4.64,2.26-4.64,5.71,0,3.26,1.57,5.82,4.64,5.82s4.75-2.37,4.75-5.86C1718.44,713.84,1716.48,711.85,1713.69,711.85Z" style="fill:#bdcada"/><path d="M1736.53,726.22v-3.14h2.53v-6.75c0-3.26-1.23-4.48-3.34-4.48a4.17,4.17,0,0,0-4.25,4.37v6.86H1734v3.14h-9.24v-3.14h2.57V712.19h-2.69V709h6.79v2.8a6.25,6.25,0,0,1,5.71-3.14c3.3,0,6,1.91,6,6.17v8.24h2.57v3.14Z" style="fill:#bdcada"/><path d="M1764.08,726.6c-3.37,0-6.78-.84-8.62-2.37l.69-5.71,3.41.34-.08,3.07a8.64,8.64,0,0,0,4.3,1c3,0,5.17-.69,5.17-3.56,0-3.14-2.64-3.76-5.56-4.33-3.56-.69-7.74-1.57-7.74-6.79s4.22-7.32,8.62-7.32c3.07,0,6.25,1,7.86,2.49l.23,5.26-3.41.3-.34-3.22a8.08,8.08,0,0,0-4.22-1.07c-2.42,0-4.18.92-4.18,3.07,0,2.49,2.34,3.06,4.79,3.64,3.15.69,8.51,1.38,8.51,7.51C1773.51,723.88,1769.76,726.6,1764.08,726.6Z" style="fill:#bdcada"/><path d="M1784.51,726.6c-5,0-8.59-3-8.59-8.7,0-5.29,3.11-9.23,8.36-9.23,4.75,0,7.74,3.18,7.78,7.51a12.62,12.62,0,0,1-.23,2.3h-11.61c.23,3.1,1.76,4.83,4.6,4.83a3.68,3.68,0,0,0,4-3l3.41.65C1791.91,724,1789.19,726.6,1784.51,726.6Zm-.27-14.91c-2.45,0-3.68,1.84-4,4.26h7.59C1788.07,713.92,1787,711.69,1784.24,711.69Z" style="fill:#bdcada"/><path d="M1808,709.7l.73,5.37-3.18.38-.65-3a2.86,2.86,0,0,0-1.31-.39c-1.45,0-2.64,1.27-2.64,3.34v7.63h3.41v3.14h-10.08v-3.14h2.57V712.19h-2.69V709h6.48v3.22c.61-2,2-3.49,4.14-3.49A5.87,5.87,0,0,1,1808,709.7Z" style="fill:#bdcada"/><path d="M1827.55,712.15l-6.17,14.07h-3l-6.52-14.07H1810V709h8.43v3.14h-2.11l3.87,8.74h.23l3.22-8.74h-1.92V709h7.75v3.14Z" style="fill:#bdcada"/><path d="M1838.74,726.6c-5,0-8.59-3-8.59-8.7,0-5.29,3.11-9.23,8.36-9.23,4.75,0,7.74,3.18,7.78,7.51a12.62,12.62,0,0,1-.23,2.3h-11.61c.22,3.1,1.76,4.83,4.59,4.83a3.68,3.68,0,0,0,4-3l3.41.65C1846.14,724,1843.41,726.6,1838.74,726.6Zm-.27-14.91c-2.45,0-3.68,1.84-4,4.26h7.59C1842.3,713.92,1841.19,711.69,1838.47,711.69Z" style="fill:#bdcada"/><path d="M1862.27,709.7l.73,5.37-3.18.38-.65-3a2.86,2.86,0,0,0-1.31-.39c-1.45,0-2.64,1.27-2.64,3.34v7.63h3.41v3.14h-10.08v-3.14h2.57V712.19h-2.69V709h6.48v3.22c.61-2,2-3.49,4.14-3.49A5.87,5.87,0,0,1,1862.27,709.7Z" style="fill:#bdcada"/><path d="M1872.35,726.6a15,15,0,0,1-7-1.68l.61-4.45,3.22.31,0,2.22a9,9,0,0,0,3,.54c2.07,0,3.91-.73,3.91-2.23,0-3.6-10.5-.65-10.5-7.43,0-4,3.71-5.21,7.09-5.21a13.08,13.08,0,0,1,6.28,1.57l.43,4.25-3.22.38-.35-2.56a8.2,8.2,0,0,0-3-.58c-1.61,0-2.83.61-2.83,2,0,3.53,10.27.62,10.27,7.36C1880.17,724.69,1876.91,726.6,1872.35,726.6Z" style="fill:#bdcada"/><rect x="1296.62" y="542.88" width="151.57" height="52.93" rx="17.82" style="fill:none;stroke:#bdcada;stroke-linecap:round;stroke-miterlimit:10;stroke-width:15.677370760392884px"/><line x1="1319.94" y1="455.2" x2="1319.94" y2="542.88" style="fill:none;stroke:#bdcada;stroke-linecap:round;stroke-miterlimit:10;stroke-width:15.677370760392884px"/><path d="M1272.86,659l-6.78,21.27h-3.15l-6.09-17.56h-.19l-5.91,17.56h-3.18l-7.2-21.27h-2.15v-3.64h9.47V659h-2.76l4.29,14.25h.19l4.95-14.25h-2.19v-3.64h9.43V659h-2l4.94,14.45h.2l3.91-14.45h-3.07v-3.64h9.35V659Z" style="fill:#bdcada"/><path d="M1275.62,680.23v-3.14h2.56V666.2h-2.72V663h6.79v14.07h2.56v3.14Zm2.33-25.3h4.18v4.52H1278Z" style="fill:#bdcada"/><path d="M1300.38,663.71l.72,5.37-3.18.38-.65-3a2.82,2.82,0,0,0-1.3-.39c-1.46,0-2.65,1.27-2.65,3.34v7.63h3.41v3.14h-10.08v-3.14h2.57V666.2h-2.68V663H1293v3.22c.61-2,2-3.49,4.14-3.49A5.92,5.92,0,0,1,1300.38,663.71Z" style="fill:#bdcada"/><path d="M1311.76,680.61c-5,0-8.59-3-8.59-8.7,0-5.29,3.1-9.24,8.36-9.24,4.75,0,7.74,3.19,7.78,7.52a12.62,12.62,0,0,1-.23,2.3h-11.62c.23,3.1,1.77,4.83,4.6,4.83a3.69,3.69,0,0,0,4-3l3.41.65C1319.15,678,1316.43,680.61,1311.76,680.61Zm-.27-14.91c-2.46,0-3.68,1.84-4,4.26h7.59C1315.32,667.93,1314.21,665.7,1311.49,665.7Z" style="fill:#bdcada"/><path d="M1321.18,680.23v-3.14h2.57V657H1321v-3.14h6.78v23.23h2.57v3.14Z" style="fill:#bdcada"/><path d="M1340.73,680.61c-5,0-8.59-3-8.59-8.7,0-5.29,3.11-9.24,8.36-9.24,4.75,0,7.74,3.19,7.78,7.52a12.62,12.62,0,0,1-.23,2.3h-11.61c.23,3.1,1.76,4.83,4.6,4.83a3.68,3.68,0,0,0,4-3l3.41.65C1348.13,678,1345.41,680.61,1340.73,680.61Zm-.27-14.91c-2.45,0-3.68,1.84-4,4.26h7.59C1344.29,667.93,1343.18,665.7,1340.46,665.7Z" style="fill:#bdcada"/><path d="M1357.75,680.61a15,15,0,0,1-7.06-1.68l.62-4.45,3.22.31,0,2.22a9,9,0,0,0,3,.54c2.06,0,3.9-.73,3.9-2.23,0-3.6-10.5-.65-10.5-7.43,0-4,3.72-5.22,7.09-5.22a13.15,13.15,0,0,1,6.29,1.58l.42,4.25-3.22.38-.34-2.56a8.23,8.23,0,0,0-3-.58c-1.61,0-2.84.61-2.84,2,0,3.53,10.27.62,10.27,7.36C1365.56,678.7,1362.31,680.61,1357.75,680.61Z" style="fill:#bdcada"/><path d="M1375,680.61a15,15,0,0,1-7-1.68l.61-4.45,3.22.31,0,2.22a9,9,0,0,0,3,.54c2.07,0,3.91-.73,3.91-2.23,0-3.6-10.5-.65-10.5-7.43,0-4,3.71-5.22,7.09-5.22a13.11,13.11,0,0,1,6.28,1.58l.42,4.25-3.21.38-.35-2.56a8.2,8.2,0,0,0-3-.58c-1.61,0-2.83.61-2.83,2,0,3.53,10.27.62,10.27,7.36C1382.85,678.7,1379.59,680.61,1375,680.61Z" style="fill:#bdcada"/><path d="M1409.64,680.23l-5.14-9.85h-4.1v6.21h2.91v3.64h-10v-3.64h2.87V659h-2.87v-3.64h11.08c6.17,0,9.23,2.72,9.23,7.35a6.88,6.88,0,0,1-5,6.83l3.8,7.09h3.06v3.64Zm-6-21.27h-3.26v8h3.22c4.06,0,5.44-1.54,5.44-4.18C1409.06,660,1407.61,659,1403.66,659Z" style="fill:#bdcada"/><path d="M1425.27,680.61c-5.25,0-8.74-3.41-8.74-8.81,0-5,3-9.16,9-9.16s8.93,4.14,8.93,9C1434.43,677,1430.68,680.61,1425.27,680.61Zm.16-14.75c-2.92,0-4.64,2.26-4.64,5.71,0,3.26,1.57,5.82,4.64,5.82s4.75-2.37,4.75-5.86C1430.18,667.85,1428.22,665.86,1425.43,665.86Z" style="fill:#bdcada"/><path d="M1450.15,680.23v-2.88a6.13,6.13,0,0,1-5.68,3.22c-3.29,0-6-1.87-6-6.17v-8.24h-2.57V663h6.67v9.89c0,3.26,1.22,4.48,3.37,4.48a4.28,4.28,0,0,0,4.22-4.52v-6.71h-3.07V663h7.17v14.07h2.68v3.14Z" style="fill:#bdcada"/><path d="M1466.43,680.61c-3.68,0-6-2-6-5.52v-9h-2.53v-3h2.53v-5.33h4.11V663h6.4v3h-6.4v8.39c0,1.84.84,2.72,2.37,2.72.88,0,2.19-.3,2.57-2.95l3,1C1472,678.89,1469.84,680.61,1466.43,680.61Z" style="fill:#bdcada"/><path d="M1482,680.61c-5,0-8.58-3-8.58-8.7,0-5.29,3.1-9.24,8.35-9.24,4.75,0,7.74,3.19,7.78,7.52a12.62,12.62,0,0,1-.23,2.3H1477.7c.23,3.1,1.76,4.83,4.6,4.83a3.68,3.68,0,0,0,4-3l3.42.65C1489.39,678,1486.67,680.61,1482,680.61Zm-.27-14.91c-2.45,0-3.68,1.84-4,4.26h7.59A3.58,3.58,0,0,0,1481.72,665.7Z" style="fill:#bdcada"/><path d="M1505.52,663.71l.73,5.37-3.18.38-.65-3a2.82,2.82,0,0,0-1.3-.39c-1.46,0-2.65,1.27-2.65,3.34v7.63h3.41v3.14H1491.8v-3.14h2.57V666.2h-2.68V663h6.47v3.22c.62-2,2-3.49,4.14-3.49A5.87,5.87,0,0,1,1505.52,663.71Z" style="fill:#bdcada"/><line x1="1424.87" y1="455.2" x2="1424.87" y2="542.88" style="fill:none;stroke:#bdcada;stroke-linecap:round;stroke-miterlimit:10;stroke-width:15.677370760392884px"/><line x1="1319.94" y1="569.34" x2="1331.11" y2="569.34" style="fill:none;stroke:#3eb1cf;stroke-linecap:round;stroke-miterlimit:10;stroke-width:15.677370760392884px"/><rect x="152.35" y="475.18" width="290.26" height="137.65" rx="10.58" transform="translate(-246.52 841.49) rotate(-90)" style="fill:none;stroke:#bdcada;stroke-linecap:round;stroke-miterlimit:10;stroke-width:15.677370760392884px"/><line x1="252.46" y1="661.78" x2="252.46" y2="481.03" style="fill:none;stroke:#3eb1cf;stroke-linecap:round;stroke-miterlimit:10;stroke-width:15.677370760392884px"/><rect x="279.95" y="494.41" width="57.46" height="57.46" rx="4.48" transform="translate(-214.46 831.82) rotate(-90)" style="fill:none;stroke:#3eb1cf;stroke-linecap:round;stroke-miterlimit:10;stroke-width:15.677370760392884px"/><rect x="281.06" y="427.78" width="33.24" height="33.24" rx="4.48" transform="translate(-146.72 742.09) rotate(-90)" style="fill:none;stroke:#3eb1cf;stroke-linecap:round;stroke-miterlimit:10;stroke-width:15.677370760392884px"/><rect x="320.79" y="589.43" width="56.26" height="34.78" transform="translate(-257.9 955.74) rotate(-90)" style="fill:none;stroke:#bdcada;stroke-linecap:round;stroke-miterlimit:10;stroke-width:15.677370760392884px"/><line x1="275.69" y1="661.78" x2="340.47" y2="661.78" style="fill:none;stroke:#3eb1cf;stroke-linecap:round;stroke-miterlimit:10;stroke-width:15.677370760392884px"/><line x1="297.68" y1="579.84" x2="297.68" y2="633.81" style="fill:none;stroke:#3eb1cf;stroke-linecap:round;stroke-miterlimit:10;stroke-width:15.677370760392884px"/><path d="M193.86,739.25v17.63h2.84v3.65h-9.55v-3.65h2.45V745h-.15l-7.24,13.8h-1.92l-7.63-14.14h-.15v12.26h2.61v3.65h-9.43v-3.65h2.83V739.25h-3.14v-3.64h6.74l9.2,17h.16l8.74-17H197v3.64Z" style="fill:#bdcada"/><path d="M199.37,760.53v-3.15h2.57V746.5h-2.72v-3.18H206v14.06h2.57v3.15Zm2.34-25.3h4.18v4.52h-4.18Z" style="fill:#bdcada"/><path d="M218.65,760.91c-4.9,0-8.32-3-8.32-8.7S213.86,743,219,743a11.65,11.65,0,0,1,6.09,1.65l.69,4.83-3.3.34-.57-2.83a6.82,6.82,0,0,0-3-.69c-2.72,0-4.29,2.07-4.29,5.75,0,3.52,1.49,5.59,4.41,5.59,2.26,0,3.44-1.3,3.87-3.91l3.45.66C226,757.42,223.86,760.91,218.65,760.91Z" style="fill:#bdcada"/><path d="M242,744l.73,5.36-3.18.39-.65-3a2.88,2.88,0,0,0-1.31-.38c-1.45,0-2.64,1.27-2.64,3.34v7.62h3.41v3.15H228.31v-3.15h2.57V746.5h-2.69v-3.18h6.48v3.22c.61-2,2-3.49,4.14-3.49A5.87,5.87,0,0,1,242,744Z" style="fill:#bdcada"/><path d="M253.53,760.91c-5.25,0-8.74-3.41-8.74-8.82,0-5,3-9.16,9-9.16s8.93,4.14,8.93,9C262.69,757.31,258.93,760.91,253.53,760.91Zm.15-14.76c-2.91,0-4.64,2.26-4.64,5.71,0,3.26,1.57,5.83,4.64,5.83s4.75-2.38,4.75-5.86C258.43,748.15,256.48,746.15,253.68,746.15Z" style="fill:#bdcada"/><path d="M273,760.91c-4.9,0-8.31-3-8.31-8.7s3.52-9.24,8.66-9.24a11.65,11.65,0,0,1,6.09,1.65l.69,4.83-3.29.34-.58-2.83a6.82,6.82,0,0,0-3-.69c-2.72,0-4.29,2.07-4.29,5.75,0,3.52,1.49,5.59,4.41,5.59,2.26,0,3.45-1.3,3.87-3.91l3.45.66C280.35,757.42,278.25,760.91,273,760.91Z" style="fill:#bdcada"/><path d="M291.31,760.91c-5.25,0-8.74-3.41-8.74-8.82,0-5,3-9.16,9-9.16s8.93,4.14,8.93,9C300.47,757.31,296.72,760.91,291.31,760.91Zm.16-14.76c-2.92,0-4.64,2.26-4.64,5.71,0,3.26,1.57,5.83,4.64,5.83s4.75-2.38,4.75-5.86C296.22,748.15,294.27,746.15,291.47,746.15Z" style="fill:#bdcada"/><path d="M314.31,760.53v-3.15h2.53v-6.74c0-3.26-1.23-4.49-3.34-4.49a4.18,4.18,0,0,0-4.25,4.37v6.86h2.57v3.15h-9.24v-3.15h2.57V746.5h-2.69v-3.18h6.79v2.79A6.27,6.27,0,0,1,315,743c3.3,0,6,1.92,6,6.17v8.24h2.57v3.15Z" style="fill:#bdcada"/><path d="M332.86,760.91c-3.68,0-6-2-6-5.52v-9h-2.53v-3h2.53V738h4.1v5.33h6.4v3h-6.4v8.4c0,1.84.84,2.72,2.38,2.72.88,0,2.18-.31,2.57-3l3,1C338.42,759.18,336.27,760.91,332.86,760.91Z" style="fill:#bdcada"/><path d="M353.63,744l.73,5.36-3.18.39-.65-3a2.88,2.88,0,0,0-1.31-.38c-1.45,0-2.64,1.27-2.64,3.34v7.62H350v3.15H339.91v-3.15h2.57V746.5h-2.69v-3.18h6.48v3.22c.61-2,2-3.49,4.14-3.49A5.87,5.87,0,0,1,353.63,744Z" style="fill:#bdcada"/><path d="M365.13,760.91c-5.25,0-8.74-3.41-8.74-8.82,0-5,3-9.16,9-9.16s8.93,4.14,8.93,9C374.29,757.31,370.53,760.91,365.13,760.91Zm.15-14.76c-2.91,0-4.64,2.26-4.64,5.71,0,3.26,1.57,5.83,4.64,5.83s4.75-2.38,4.75-5.86C370,748.15,368.08,746.15,365.28,746.15Z" style="fill:#bdcada"/><path d="M376,760.53v-3.15h2.57V737.3h-2.72v-3.14h6.78v23.22h2.57v3.15Z" style="fill:#bdcada"/><path d="M386.66,760.53v-3.15h2.57V737.3h-2.72v-3.14h6.78v23.22h2.57v3.15Z" style="fill:#bdcada"/><path d="M406.21,760.91c-5,0-8.59-3-8.59-8.7,0-5.29,3.11-9.24,8.36-9.24,4.75,0,7.74,3.18,7.78,7.51a11.72,11.72,0,0,1-.23,2.3H401.92c.23,3.11,1.76,4.83,4.6,4.83a3.67,3.67,0,0,0,4-3l3.42.66C413.61,758.3,410.89,760.91,406.21,760.91ZM405.94,746c-2.45,0-3.68,1.84-4,4.25h7.58A3.56,3.56,0,0,0,405.94,746Z" style="fill:#bdcada"/><path d="M429.74,744l.73,5.36-3.18.39-.65-3a2.85,2.85,0,0,0-1.31-.38c-1.45,0-2.64,1.27-2.64,3.34v7.62h3.41v3.15H416v-3.15h2.57V746.5H415.9v-3.18h6.48v3.22c.62-2,2-3.49,4.14-3.49A5.87,5.87,0,0,1,429.74,744Z" style="fill:#bdcada"/><rect x="483.33" y="305.02" width="164.99" height="164.99" rx="15.48" style="fill:none;stroke:#bdcada;stroke-linecap:round;stroke-miterlimit:10;stroke-width:15.677370760392884px"/><circle cx="579.52" cy="401.22" r="43" style="fill:none;stroke:#bdcada;stroke-linecap:round;stroke-miterlimit:10;stroke-width:13.845251480908036px"/><circle cx="579.52" cy="400.66" r="12.63" style="fill:none;stroke:#3eb1cf;stroke-linecap:round;stroke-miterlimit:10;stroke-width:15.677370760392884px"/><rect x="509.13" y="330.82" width="24.92" height="24.92" rx="2.03" style="fill:none;stroke:#3eb1cf;stroke-linecap:round;stroke-miterlimit:10;stroke-width:15.677370760392884px"/><line x1="562.38" y1="330.62" x2="619.08" y2="330.62" style="fill:none;stroke:#3eb1cf;stroke-linecap:round;stroke-miterlimit:10;stroke-width:15.677370760392884px"/><line x1="509.13" y1="384.08" x2="509.13" y2="440.78" style="fill:none;stroke:#3eb1cf;stroke-linecap:round;stroke-miterlimit:10;stroke-width:15.677370760392884px"/><path d="M514,525.77c-3.37,0-6.78-.84-8.62-2.37l.69-5.72,3.41.35-.08,3.07a8.63,8.63,0,0,0,4.29,1c3,0,5.18-.69,5.18-3.56,0-3.15-2.65-3.76-5.56-4.33-3.56-.69-7.74-1.58-7.74-6.79s4.21-7.32,8.62-7.32c3.07,0,6.25,1,7.86,2.49l.23,5.25-3.41.31-.35-3.22a8,8,0,0,0-4.21-1.07c-2.42,0-4.18.92-4.18,3.06,0,2.49,2.34,3.07,4.79,3.64,3.14.69,8.51,1.38,8.51,7.52C523.45,523.05,519.69,525.77,514,525.77Z" style="fill:#bdcada"/><path d="M534.45,525.77c-5,0-8.59-3-8.59-8.7,0-5.29,3.11-9.24,8.36-9.24,4.75,0,7.74,3.18,7.78,7.52a12.71,12.71,0,0,1-.23,2.3H530.15c.23,3.1,1.77,4.83,4.6,4.83a3.69,3.69,0,0,0,4-3l3.41.65C541.84,523.17,539.12,525.77,534.45,525.77Zm-.27-14.91c-2.45,0-3.68,1.84-4,4.26h7.59C538,513.08,536.9,510.86,534.18,510.86Z" style="fill:#bdcada"/><path d="M556,525.39v-3.14h2.53V515.5c0-3.26-1.23-4.49-3.34-4.49a4.17,4.17,0,0,0-4.25,4.37v6.87h2.56v3.14h-9.23v-3.14h2.57V511.36h-2.69v-3.18h6.79V511a6.26,6.26,0,0,1,5.71-3.15c3.29,0,6,1.92,6,6.17v8.25h2.57v3.14Z" style="fill:#bdcada"/><path d="M573.92,525.77a14.86,14.86,0,0,1-7-1.69l.61-4.44,3.22.31,0,2.22a9,9,0,0,0,3,.54c2.07,0,3.91-.73,3.91-2.23,0-3.6-10.5-.65-10.5-7.43,0-4,3.72-5.22,7.09-5.22a13.26,13.26,0,0,1,6.29,1.57l.42,4.26-3.22.38-.35-2.57a8.35,8.35,0,0,0-3-.57c-1.61,0-2.83.61-2.83,2,0,3.53,10.27.62,10.27,7.36C581.74,523.85,578.48,525.77,573.92,525.77Z" style="fill:#bdcada"/><path d="M592.62,525.77c-5.25,0-8.74-3.41-8.74-8.81,0-5,3-9.17,9-9.17s8.93,4.14,8.93,9C601.78,522.17,598,525.77,592.62,525.77Zm.16-14.76c-2.92,0-4.64,2.27-4.64,5.72,0,3.25,1.57,5.82,4.64,5.82s4.75-2.37,4.75-5.86C597.53,513,595.58,511,592.78,511Z" style="fill:#bdcada"/><path d="M617.61,508.87l.73,5.36-3.18.39-.65-2.95a2.86,2.86,0,0,0-1.31-.39c-1.45,0-2.64,1.27-2.64,3.34v7.63H614v3.14H603.89v-3.14h2.57V511.36h-2.68v-3.18h6.47v3.22c.62-2,2-3.49,4.14-3.49A5.87,5.87,0,0,1,617.61,508.87Z" style="fill:#bdcada"/><line x1="995.69" y1="507.47" x2="1122.31" y2="507.47" style="fill:none;stroke:#bdcada;stroke-linecap:round;stroke-miterlimit:10;stroke-width:15.677370760392884px"/><line x1="995.69" y1="555.29" x2="1122.31" y2="555.29" style="fill:none;stroke:#bdcada;stroke-linecap:round;stroke-miterlimit:10;stroke-width:15.677370760392884px"/><rect x="995.69" y="335.76" width="126.62" height="273.59" rx="7.45" style="fill:none;stroke:#bdcada;stroke-linecap:round;stroke-miterlimit:10;stroke-width:15.677370760392884px"/><path d="M962.92,680.61c-3.37,0-6.78-.84-8.62-2.37l.69-5.71,3.41.34-.08,3.07a8.64,8.64,0,0,0,4.3,1c3,0,5.17-.69,5.17-3.56,0-3.14-2.64-3.76-5.56-4.33-3.56-.69-7.74-1.57-7.74-6.79s4.22-7.32,8.62-7.32c3.07,0,6.25,1,7.86,2.49l.23,5.25-3.41.31-.34-3.22a8.08,8.08,0,0,0-4.22-1.07c-2.42,0-4.18.92-4.18,3.06,0,2.5,2.34,3.07,4.79,3.65,3.15.69,8.51,1.38,8.51,7.51C972.35,677.89,968.6,680.61,962.92,680.61Z" style="fill:#bdcada"/><path d="M999.1,680.23v-3.14h1v-6.75c0-3.26-1.23-4.48-3.3-4.48-2.68,0-3.91,2.18-3.94,4.52v6.71h2.56v3.14h-7.59v-3.14h.92v-6.75c0-3.26-1.22-4.48-3.25-4.48-2.69,0-3.91,2.14-4,4.48v6.75h3.22v3.14h-9.89v-3.14h2.57V666.2h-2.53V663h6.63v2.84a5.92,5.92,0,0,1,5.4-3.19,5.46,5.46,0,0,1,5.6,3.88,6,6,0,0,1,5.79-3.88c3.14,0,5.86,1.92,5.86,6.18v8.24h2.53v3.14Z" style="fill:#bdcada"/><path d="M1016.77,662.67c3.83,0,6.59,1.92,6.59,5.83v7.74c0,1.11.38,1.54,1.26,1.54a3.48,3.48,0,0,0,.89-.16l0,2.26a5.68,5.68,0,0,1-2.75.73,3.31,3.31,0,0,1-3.53-3.41v-.08a6.44,6.44,0,0,1-5.64,3.49c-2.41,0-5.29-1.26-5.29-4.9,0-4.26,4.11-5.22,8-5.22a22.5,22.5,0,0,1,2.91.16v-1c0-2-.35-4-3.22-4a6,6,0,0,0-2.88.58l-.69,2.64-3.29-.34.73-4.3A14,14,0,0,1,1016.77,662.67Zm2.49,10.12a22,22,0,0,0-2.76-.23c-2,0-4,.54-4,2.69a2.22,2.22,0,0,0,2.49,2.33,4.24,4.24,0,0,0,4.22-4.17Z" style="fill:#bdcada"/><path d="M1041,663.71l.73,5.37-3.18.38-.66-3a2.82,2.82,0,0,0-1.3-.39c-1.46,0-2.64,1.27-2.64,3.34v7.63h3.41v3.14h-10.08v-3.14h2.56V666.2h-2.68V663h6.48v3.22c.61-2,1.95-3.49,4.14-3.49A5.9,5.9,0,0,1,1041,663.71Z" style="fill:#bdcada"/><path d="M1051.68,680.61c-3.68,0-6-2-6-5.52v-9h-2.53v-3h2.53v-5.33h4.1V663h6.41v3h-6.41v8.39c0,1.84.85,2.72,2.38,2.72.88,0,2.19-.3,2.57-2.95l3,1C1057.24,678.89,1055.09,680.61,1051.68,680.61Z" style="fill:#bdcada"/><path d="M1082.92,680.23v-3.64h2.87v-7.21H1074v7.21h2.84v3.64h-10v-3.64h2.88V659h-2.88v-3.64h10V659H1074v6.82h11.77V659h-2.87v-3.64h10V659H1090v17.63h2.84v3.64Z" style="fill:#bdcada"/><path d="M1103.42,680.61c-5.25,0-8.74-3.41-8.74-8.81,0-5,3-9.16,9-9.16s8.93,4.14,8.93,9C1112.58,677,1108.82,680.61,1103.42,680.61Zm.15-14.75c-2.91,0-4.64,2.26-4.64,5.71,0,3.26,1.58,5.82,4.64,5.82s4.75-2.37,4.75-5.86C1108.32,667.85,1106.37,665.86,1103.57,665.86Z" style="fill:#bdcada"/><path d="M1139,680.23v-3.14h1v-6.75c0-3.26-1.23-4.48-3.3-4.48-2.68,0-3.91,2.18-3.95,4.52v6.71h2.57v3.14h-7.59v-3.14h.92v-6.75c0-3.26-1.23-4.48-3.26-4.48-2.68,0-3.91,2.14-4,4.48v6.75h3.22v3.14h-9.89v-3.14h2.57V666.2h-2.53V663h6.63v2.84a5.94,5.94,0,0,1,5.41-3.19,5.44,5.44,0,0,1,5.59,3.88,6,6,0,0,1,5.79-3.88c3.15,0,5.87,1.92,5.87,6.18v8.24h2.53v3.14Z" style="fill:#bdcada"/><path d="M1156.57,680.61c-5,0-8.58-3-8.58-8.7,0-5.29,3.1-9.24,8.35-9.24,4.76,0,7.75,3.19,7.78,7.52a11.79,11.79,0,0,1-.23,2.3h-11.61c.23,3.1,1.76,4.83,4.6,4.83a3.69,3.69,0,0,0,4-3l3.41.65C1164,678,1161.25,680.61,1156.57,680.61Zm-.26-14.91c-2.46,0-3.68,1.84-4,4.26h7.59C1160.14,667.93,1159,665.7,1156.31,665.7Z" style="fill:#bdcada"/><path d="M995.31,726.22v-3.64h2.53l-1.27-3.41h-9.31l-1.34,3.41h2.79v3.64h-9.42v-3.64h2.29L989.1,705h-3.64V701.3h8l9,21.28h2.41v3.64Zm-3.15-18.82h-.23l-3.45,8.66h6.94Z" style="fill:#bdcada"/><path d="M1013.05,726.6a15,15,0,0,1-7-1.68l.61-4.45,3.22.31,0,2.22a9,9,0,0,0,3,.54c2.07,0,3.91-.73,3.91-2.23,0-3.6-10.5-.65-10.5-7.43,0-4,3.72-5.22,7.09-5.22a13.09,13.09,0,0,1,6.28,1.58l.43,4.25-3.22.38-.35-2.57a8.39,8.39,0,0,0-3-.57c-1.61,0-2.83.61-2.83,2,0,3.53,10.27.62,10.27,7.36C1020.87,724.69,1017.61,726.6,1013.05,726.6Z" style="fill:#bdcada"/><path d="M1030.33,726.6a15,15,0,0,1-7-1.68l.61-4.45,3.22.31,0,2.22a8.9,8.9,0,0,0,3,.54c2.07,0,3.91-.73,3.91-2.23,0-3.6-10.5-.65-10.5-7.43,0-4,3.72-5.22,7.09-5.22a13.15,13.15,0,0,1,6.29,1.58l.42,4.25-3.22.38-.34-2.57a8.43,8.43,0,0,0-3-.57c-1.61,0-2.84.61-2.84,2,0,3.53,10.27.62,10.27,7.36C1038.15,724.69,1034.9,726.6,1030.33,726.6Z" style="fill:#bdcada"/><path d="M1040.57,726.22v-3.14h2.56V712.19h-2.72V709h6.79v14.07h2.56v3.14Zm2.33-25.3h4.18v4.52h-4.18Z" style="fill:#bdcada"/><path d="M1058.81,726.6a15,15,0,0,1-7-1.68l.61-4.45,3.22.31,0,2.22a9,9,0,0,0,3,.54c2.07,0,3.91-.73,3.91-2.23,0-3.6-10.5-.65-10.5-7.43,0-4,3.71-5.22,7.09-5.22a13.09,13.09,0,0,1,6.28,1.58l.43,4.25-3.22.38-.35-2.57a8.39,8.39,0,0,0-3-.57c-1.61,0-2.83.61-2.83,2,0,3.53,10.27.62,10.27,7.36C1066.63,724.69,1063.37,726.6,1058.81,726.6Z" style="fill:#bdcada"/><path d="M1076.71,726.6c-3.68,0-6-2-6-5.52v-9h-2.53v-3h2.53v-5.33h4.1V709h6.4v3h-6.4v8.39c0,1.84.84,2.72,2.38,2.72.88,0,2.18-.3,2.56-2.95l3,1C1082.26,724.88,1080.12,726.6,1076.71,726.6Z" style="fill:#bdcada"/><path d="M1092.3,708.66c3.84,0,6.6,1.92,6.6,5.83v7.74c0,1.11.38,1.54,1.26,1.54a3.4,3.4,0,0,0,.88-.16l0,2.26a5.69,5.69,0,0,1-2.76.73,3.32,3.32,0,0,1-3.53-3.41v-.08a6.41,6.41,0,0,1-5.63,3.49c-2.41,0-5.29-1.26-5.29-4.9,0-4.26,4.1-5.22,8-5.22a22.4,22.4,0,0,1,2.91.16v-1c0-2-.34-4-3.21-4a6,6,0,0,0-2.88.58l-.69,2.64-3.3-.34.73-4.3A14.07,14.07,0,0,1,1092.3,708.66Zm2.49,10.12a22,22,0,0,0-2.75-.23c-2,0-4,.54-4,2.69a2.21,2.21,0,0,0,2.49,2.33,4.24,4.24,0,0,0,4.21-4.17Z" style="fill:#bdcada"/><path d="M1114.53,726.22v-3.14h2.53v-6.75c0-3.26-1.23-4.49-3.33-4.49a4.19,4.19,0,0,0-4.26,4.37v6.87H1112v3.14h-9.24v-3.14h2.57V712.19h-2.68V709h6.78v2.8a6.27,6.27,0,0,1,5.71-3.15c3.3,0,6,1.92,6,6.17v8.25h2.57v3.14Z" style="fill:#bdcada"/><path d="M1133.08,726.6c-3.68,0-6-2-6-5.52v-9h-2.53v-3h2.53v-5.33h4.1V709h6.4v3h-6.4v8.39c0,1.84.85,2.72,2.38,2.72.88,0,2.18-.3,2.57-2.95l3,1C1138.64,724.88,1136.49,726.6,1133.08,726.6Z" style="fill:#bdcada"/><rect x="561.99" y="605.39" width="180.77" height="101.93" rx="15.48" style="fill:none;stroke:#bdcada;stroke-linecap:round;stroke-miterlimit:10;stroke-width:15.677370760392884px"/><line x1="772.63" y1="383.76" x2="772.63" y2="683.84" style="fill:none;stroke:#bdcada;stroke-linecap:round;stroke-miterlimit:10;stroke-width:15.677370760392884px"/><path d="M533.57,755.1l-6.78,21.27h-3.15l-6.09-17.55h-.19l-5.9,17.55h-3.19l-7.2-21.27h-2.15v-3.64h9.47v3.64h-2.76l4.29,14.26h.19l4.95-14.26h-2.19v-3.64h9.43v3.64h-2l5,14.45h.19l3.91-14.45h-3.07v-3.64h9.35v3.64Z" style="fill:#bdcada"/><path d="M536.33,776.37v-3.14h2.56V762.34h-2.72v-3.18H543v14.07h2.57v3.14Zm2.33-25.3h4.18v4.53h-4.18Z" style="fill:#bdcada"/><path d="M561.09,759.85l.72,5.37-3.18.38-.65-3a2.81,2.81,0,0,0-1.3-.38c-1.46,0-2.65,1.26-2.65,3.33v7.63h3.41v3.14H547.36v-3.14h2.57V762.34h-2.68v-3.18h6.48v3.22c.61-2,1.95-3.49,4.14-3.49A5.92,5.92,0,0,1,561.09,759.85Z" style="fill:#bdcada"/><path d="M572.47,776.75c-5,0-8.59-3-8.59-8.7,0-5.29,3.11-9.23,8.36-9.23,4.75,0,7.74,3.18,7.78,7.51a12.62,12.62,0,0,1-.23,2.3H568.17c.23,3.1,1.77,4.83,4.6,4.83a3.68,3.68,0,0,0,4-3l3.41.65C579.86,774.15,577.14,776.75,572.47,776.75Zm-.27-14.91c-2.45,0-3.68,1.84-4,4.26h7.59C576,764.07,574.92,761.84,572.2,761.84Z" style="fill:#bdcada"/><path d="M581.89,776.37v-3.14h2.57V753.14h-2.72V750h6.78v23.23h2.57v3.14Z" style="fill:#bdcada"/><path d="M601.44,776.75c-5,0-8.59-3-8.59-8.7,0-5.29,3.11-9.23,8.36-9.23,4.75,0,7.74,3.18,7.78,7.51a12.62,12.62,0,0,1-.23,2.3H597.15c.23,3.1,1.76,4.83,4.6,4.83a3.67,3.67,0,0,0,4-3l3.41.65C608.84,774.15,606.12,776.75,601.44,776.75Zm-.27-14.91c-2.45,0-3.68,1.84-4,4.26h7.59C605,764.07,603.89,761.84,601.17,761.84Z" style="fill:#bdcada"/><path d="M618.46,776.75a15,15,0,0,1-7.06-1.68l.62-4.45,3.22.31,0,2.22a8.71,8.71,0,0,0,3,.54c2.07,0,3.91-.73,3.91-2.22,0-3.61-10.51-.66-10.51-7.44,0-4,3.72-5.21,7.09-5.21a13.15,13.15,0,0,1,6.29,1.57l.42,4.25-3.22.39-.34-2.57a8.4,8.4,0,0,0-3-.58c-1.61,0-2.84.62-2.84,2,0,3.52,10.28.61,10.28,7.36C626.28,774.84,623,776.75,618.46,776.75Z" style="fill:#bdcada"/><path d="M635.74,776.75a15,15,0,0,1-7-1.68l.61-4.45,3.22.31,0,2.22a8.75,8.75,0,0,0,3,.54c2.07,0,3.91-.73,3.91-2.22,0-3.61-10.5-.66-10.5-7.44,0-4,3.71-5.21,7.09-5.21a13.08,13.08,0,0,1,6.28,1.57l.43,4.25-3.22.39-.35-2.57a8.4,8.4,0,0,0-3-.58c-1.61,0-2.83.62-2.83,2,0,3.52,10.27.61,10.27,7.36C643.56,774.84,640.3,776.75,635.74,776.75Z" style="fill:#bdcada"/><path d="M682.23,755.1v17.63h2.84v3.64h-9.55v-3.64H678V760.81h-.15l-7.24,13.8h-1.92L661,760.46h-.15v12.27h2.61v3.64h-9.43v-3.64h2.83V755.1h-3.14v-3.64h6.75l9.2,17h.15l8.74-17h6.78v3.64Z" style="fill:#bdcada"/><path d="M695.64,776.75c-5.25,0-8.74-3.41-8.74-8.81,0-5,3-9.16,9-9.16s8.93,4.14,8.93,9C704.8,773.15,701.05,776.75,695.64,776.75Zm.15-14.75c-2.91,0-4.63,2.26-4.63,5.71,0,3.26,1.57,5.83,4.63,5.83s4.76-2.38,4.76-5.87C700.55,764,698.59,762,695.79,762Z" style="fill:#bdcada"/><path d="M720.17,776.37v-3.29a6.36,6.36,0,0,1-6,3.67c-4.48,0-7.32-3.25-7.32-8.62,0-4.91,2.37-9.31,7.7-9.31a6,6,0,0,1,5.6,3v-8.7h-3.72V750h7.82v23.23h2.53v3.14Zm0-9.58a4.41,4.41,0,0,0-4.41-4.68c-2.76,0-4.64,2.23-4.64,5.79s2,5.56,4.37,5.56c2.8,0,4.64-2.8,4.68-5.37Z" style="fill:#bdcada"/><path d="M742.05,776.37V773.5a6.12,6.12,0,0,1-5.67,3.22c-3.3,0-6-1.88-6-6.17V762.3h-2.57v-3.14h6.67v9.89c0,3.26,1.23,4.49,3.38,4.49,2.56,0,4.17-2.07,4.21-4.53V762.3H739v-3.14h7.16v14.07h2.69v3.14Z" style="fill:#bdcada"/><path d="M750.14,776.37v-3.14h2.57V753.14H750V750h6.79v23.23h2.57v3.14Z" style="fill:#bdcada"/><path d="M769.68,776.75c-5,0-8.58-3-8.58-8.7,0-5.29,3.1-9.23,8.35-9.23,4.76,0,7.75,3.18,7.78,7.51a11.79,11.79,0,0,1-.23,2.3H765.39c.23,3.1,1.76,4.83,4.6,4.83a3.69,3.69,0,0,0,4-3l3.41.65C777.08,774.15,774.36,776.75,769.68,776.75Zm-.26-14.91c-2.46,0-3.68,1.84-4,4.26H773C773.25,764.07,772.14,761.84,769.42,761.84Z" style="fill:#bdcada"/><path d="M742.76,629.53h29.88a0,0,0,0,1,0,0v53.72a.59.59,0,0,1-.59.59H742.76a0,0,0,0,1,0,0V629.53A0,0,0,0,1,742.76,629.53Z" style="fill:none;stroke:#bdcada;stroke-linecap:round;stroke-miterlimit:10;stroke-width:15.677370760392884px"/><rect x="596.63" y="638.45" width="35.8" height="35.8" rx="2.79" transform="translate(-41.82 1270.88) rotate(-90)" style="fill:none;stroke:#3eb1cf;stroke-linecap:round;stroke-miterlimit:10;stroke-width:15.677370760392884px"/><line x1="669.73" y1="629.37" x2="669.73" y2="683.34" style="fill:none;stroke:#3eb1cf;stroke-linecap:round;stroke-miterlimit:10;stroke-width:15.677370760392884px"/><line x1="704.13" y1="629.37" x2="704.13" y2="683.34" style="fill:none;stroke:#3eb1cf;stroke-linecap:round;stroke-miterlimit:10;stroke-width:15.677370760392884px"/><circle cx="1059" cy="429.2" r="33.51" style="fill:none;stroke:#ce4141;stroke-linecap:round;stroke-miterlimit:10;stroke-width:15.677370760392884px"/><circle cx="481.59" cy="542.88" r="419.07" style="fill:none;stroke:#ce4141;stroke-linecap:round;stroke-miterlimit:10;stroke-width:15.926224223610028px"/></svg>