<svg id="Module_6_Steamlink_Setup" data-name="Module 6 Steamlink Setup" xmlns="http://www.w3.org/2000/svg" viewBox="0 0 1920 1080"><title>steamlink</title><line x1="375.05" y1="160.89" x2="659.82" y2="304.41" style="fill:none;stroke:#ffcd50;stroke-linecap:round;stroke-miterlimit:10;stroke-width:15px;stroke-dasharray:25,50"/><path d="M1064.44,565.05h109.8a35.4,35.4,0,0,0,35.4-35.4h0a35.4,35.4,0,0,1,35.4-35.4h40.83" style="fill:none;stroke:#ffcd50;stroke-linecap:round;stroke-miterlimit:10;stroke-width:15px"/><line x1="375.05" y1="450.37" x2="659.82" y2="304.41" style="fill:none;stroke:#ffcd50;stroke-linecap:round;stroke-miterlimit:10;stroke-width:15px;stroke-dasharray:25,50"/><path d="M663.68,476.77v67.71a20.57,20.57,0,0,0,20.57,20.57H924.84" style="fill:none;stroke:#ffcd50;stroke-linecap:round;stroke-miterlimit:10;stroke-width:15px"/><line x1="375.05" y1="357.45" x2="375.05" y2="160.89" style="fill:none;stroke:#bdcada;stroke-linecap:round;stroke-miterlimit:10;stroke-width:15px"/><path d="M343.95,331.58H375a0,0,0,0,1,0,0V357a.48.48,0,0,1-.48.48H343.95a0,0,0,0,1,0,0V331.58A0,0,0,0,1,343.95,331.58Z" style="fill:none;stroke:#bdcada;stroke-linecap:round;stroke-miterlimit:10;stroke-width:15px"/><path d="M574.39,619.27l85.43-314.86a4,4,0,0,1,7.72,0L753,619.27" style="fill:none;stroke:#bdcada;stroke-linecap:round;stroke-miterlimit:10;stroke-width:15px"/><line x1="699.01" y1="420.4" x2="574.39" y2="619.27" style="fill:none;stroke:#bdcada;stroke-linecap:round;stroke-miterlimit:10;stroke-width:15px"/><line x1="628.36" y1="420.4" x2="752.97" y2="619.27" style="fill:none;stroke:#bdcada;stroke-linecap:round;stroke-miterlimit:10;stroke-width:15px"/><rect x="104.59" y="283.44" width="239.36" height="118.26" rx="9.93" transform="translate(448.54 685.14) rotate(180)" style="fill:none;stroke:#bdcada;stroke-linecap:round;stroke-miterlimit:10;stroke-width:15px"/><rect x="177.71" y="346.08" width="34.79" height="34.79" rx="2.71" transform="translate(390.22 726.96) rotate(180)" style="fill:none;stroke:#3eb1cf;stroke-linecap:round;stroke-miterlimit:10;stroke-width:15px"/><rect x="139.26" y="283.44" width="48.33" height="35.19" transform="translate(326.85 602.08) rotate(180)" style="fill:none;stroke:#bdcada;stroke-linecap:round;stroke-miterlimit:10;stroke-width:15px"/><rect x="101.21" y="348.54" width="36.51" height="29.88" transform="translate(482.95 244.01) rotate(90)" style="fill:none;stroke:#bdcada;stroke-linecap:round;stroke-miterlimit:10;stroke-width:15px"/><rect x="245.81" y="303.41" width="78.33" height="78.33" rx="6.1" transform="translate(569.95 685.14) rotate(180)" style="fill:none;stroke:#3eb1cf;stroke-linecap:round;stroke-miterlimit:10;stroke-width:15px"/><line x1="375.05" y1="450.37" x2="375.05" y2="646.92" style="fill:none;stroke:#bdcada;stroke-linecap:round;stroke-miterlimit:10;stroke-width:15px"/><path d="M343.95,621.06H375a0,0,0,0,1,0,0v25.39a.48.48,0,0,1-.48.48H343.95a0,0,0,0,1,0,0V621.06A0,0,0,0,1,343.95,621.06Z" style="fill:none;stroke:#bdcada;stroke-linecap:round;stroke-miterlimit:10;stroke-width:15px"/><rect x="104.59" y="572.92" width="239.36" height="118.26" rx="9.93" transform="translate(448.54 1264.1) rotate(180)" style="fill:none;stroke:#bdcada;stroke-linecap:round;stroke-miterlimit:10;stroke-width:15px"/><rect x="177.71" y="635.56" width="34.79" height="34.79" rx="2.71" transform="translate(390.22 1305.91) rotate(180)" style="fill:none;stroke:#3eb1cf;stroke-linecap:round;stroke-miterlimit:10;stroke-width:15px"/><rect x="139.26" y="572.92" width="48.33" height="35.19" transform="translate(326.85 1181.03) rotate(180)" style="fill:none;stroke:#bdcada;stroke-linecap:round;stroke-miterlimit:10;stroke-width:15px"/><rect x="101.21" y="638.02" width="36.51" height="29.88" transform="translate(772.42 533.49) rotate(90)" style="fill:none;stroke:#bdcada;stroke-linecap:round;stroke-miterlimit:10;stroke-width:15px"/><rect x="245.81" y="592.89" width="78.33" height="78.33" rx="6.1" transform="translate(569.95 1264.1) rotate(180)" style="fill:none;stroke:#3eb1cf;stroke-linecap:round;stroke-miterlimit:10;stroke-width:15px"/><rect x="924.84" y="418.24" width="139.6" height="201.03" rx="15.86" style="fill:none;stroke:#bdcada;stroke-linecap:round;stroke-miterlimit:10;stroke-width:15px"/><rect x="924.84" y="418.24" width="139.6" height="67.01" rx="15.86" style="fill:none;stroke:#bdcada;stroke-linecap:round;stroke-miterlimit:10;stroke-width:15px"/><rect x="924.84" y="485.25" width="139.6" height="67.01" rx="15.86" style="fill:none;stroke:#bdcada;stroke-linecap:round;stroke-miterlimit:10;stroke-width:15px"/><rect x="924.84" y="552.26" width="139.6" height="67.01" rx="15.86" style="fill:none;stroke:#bdcada;stroke-linecap:round;stroke-miterlimit:10;stroke-width:15px"/><line x1="956.19" y1="451.75" x2="979.19" y2="451.75" style="fill:none;stroke:#3eb1cf;stroke-linecap:round;stroke-miterlimit:10;stroke-width:15px"/><line x1="956.19" y1="518.76" x2="979.19" y2="518.76" style="fill:none;stroke:#3eb1cf;stroke-linecap:round;stroke-miterlimit:10;stroke-width:15px"/><line x1="956.19" y1="585.77" x2="979.19" y2="585.77" style="fill:none;stroke:#3eb1cf;stroke-linecap:round;stroke-miterlimit:10;stroke-width:15px"/><polygon points="1815.47 644.7 1285.87 644.7 1285.87 494.25 1285.87 343.81 1815.47 343.81 1815.47 644.7" style="fill:none;stroke:#bdcada;stroke-linecap:round;stroke-miterlimit:10;stroke-width:15px"/><rect x="1285.87" y="290.36" width="529.61" height="53.45" style="fill:none;stroke:#bdcada;stroke-linecap:round;stroke-miterlimit:10;stroke-width:15px"/><circle cx="1758.95" cy="318.27" r="7.5" style="fill:#ffcd50"/><circle cx="1786.95" cy="318.27" r="7.5" style="fill:#3eb1cf"/><line x1="1388.4" y1="318.27" x2="1728.56" y2="318.27" style="fill:none;stroke:#bdcada;stroke-linecap:round;stroke-miterlimit:10;stroke-width:15px"/><line x1="1310.79" y1="318.27" x2="1323.65" y2="318.27" style="fill:none;stroke:#bdcada;stroke-linecap:round;stroke-miterlimit:10;stroke-width:15px"/><line x1="1345.6" y1="318.27" x2="1358.46" y2="318.27" style="fill:none;stroke:#bdcada;stroke-linecap:round;stroke-miterlimit:10;stroke-width:15px"/><path d="M106.12,501.09v-3.64H109V479.82h-2.88v-3.64H117v3.64h-3.72v17.63h7.67l.77-5.17,3.64.3-.77,8.51Z" style="fill:#bdcada"/><path d="M135.52,501.47c-5.25,0-8.74-3.41-8.74-8.81,0-5,3-9.16,9-9.16s8.93,4.14,8.93,9C144.68,497.87,140.93,501.47,135.52,501.47Zm.15-14.75c-2.91,0-4.63,2.26-4.63,5.71,0,3.26,1.57,5.83,4.63,5.83s4.76-2.38,4.76-5.87C140.43,488.71,138.47,486.72,135.67,486.72Z" style="fill:#bdcada"/><path d="M162.73,501.09l-5.13-9.85h-4.1v6.21h2.91v3.64h-10v-3.64h2.87V479.82h-2.87v-3.64h11.07c6.17,0,9.24,2.72,9.24,7.36a6.89,6.89,0,0,1-5,6.82l3.79,7.09h3.07v3.64Zm-6-21.27H153.5v8h3.21c4.07,0,5.45-1.53,5.45-4.18S160.7,479.82,156.75,479.82Z" style="fill:#bdcada"/><path d="M178.64,483.54c3.83,0,6.59,1.91,6.59,5.82v7.75c0,1.11.38,1.53,1.26,1.53a3.33,3.33,0,0,0,.88-.16l0,2.27a5.68,5.68,0,0,1-2.76.72,3.31,3.31,0,0,1-3.52-3.41V498a6.45,6.45,0,0,1-5.64,3.48c-2.41,0-5.29-1.26-5.29-4.9,0-4.26,4.1-5.21,8-5.21a22.62,22.62,0,0,1,2.92.15v-1c0-2-.35-4-3.22-4a6,6,0,0,0-2.88.58l-.69,2.64-3.29-.34.72-4.29A14,14,0,0,1,178.64,483.54Zm2.49,10.12a20.27,20.27,0,0,0-2.76-.23c-2,0-4,.53-4,2.68a2.22,2.22,0,0,0,2.49,2.34,4.26,4.26,0,0,0,4.22-4.18Z" style="fill:#bdcada"/><path d="M220.56,479.82v21.27l-2.45,0-13.8-17.29h-.15v13.61h3.64v3.64H197.41v-3.64h2.76V479.82H197v-3.64h6.25l13.15,16.48h.15V479.82h-3.64v-3.64h10.5v3.64Z" style="fill:#bdcada"/><path d="M233.4,501.47c-5.25,0-8.74-3.41-8.74-8.81,0-5,3-9.16,9-9.16s8.93,4.14,8.93,9C242.56,497.87,238.81,501.47,233.4,501.47Zm.15-14.75c-2.91,0-4.63,2.26-4.63,5.71,0,3.26,1.57,5.83,4.63,5.83s4.76-2.38,4.76-5.87C238.31,488.71,236.35,486.72,233.55,486.72Z" style="fill:#bdcada"/><path d="M257.93,501.09v-3.3a6.35,6.35,0,0,1-6,3.68c-4.48,0-7.32-3.25-7.32-8.62,0-4.91,2.38-9.31,7.7-9.31a6,6,0,0,1,5.6,3v-8.7h-3.72v-3.14H262V498h2.53v3.14Zm0-9.58a4.41,4.41,0,0,0-4.41-4.68c-2.76,0-4.64,2.23-4.64,5.79s2,5.56,4.37,5.56c2.8,0,4.64-2.8,4.68-5.37Z" style="fill:#bdcada"/><path d="M274.72,501.47c-5,0-8.59-3-8.59-8.7,0-5.29,3.1-9.23,8.35-9.23,4.76,0,7.75,3.18,7.79,7.51a12.62,12.62,0,0,1-.23,2.3H270.42c.23,3.1,1.77,4.83,4.6,4.83a3.69,3.69,0,0,0,4-3l3.41.65C282.11,498.87,279.39,501.47,274.72,501.47Zm-.27-14.91c-2.46,0-3.68,1.84-4,4.26h7.59C278.28,488.79,277.17,486.56,274.45,486.56Z" style="fill:#bdcada"/><path d="M294.37,473.57c-4.21,5.37-6.36,11.15-6.36,17.17a27.82,27.82,0,0,0,6.36,17.37h-3.75a28.37,28.37,0,0,1-6.1-17.37,27.68,27.68,0,0,1,6.17-17.17Z" style="fill:#bdcada"/><path d="M301.16,501.47a15,15,0,0,1-7.05-1.68l.61-4.45,3.22.31,0,2.22a8.75,8.75,0,0,0,3,.54c2.07,0,3.91-.73,3.91-2.22,0-3.61-10.5-.66-10.5-7.44,0-4,3.71-5.21,7.09-5.21a13.08,13.08,0,0,1,6.28,1.57l.43,4.25-3.22.39-.35-2.57a8.2,8.2,0,0,0-3-.58c-1.61,0-2.83.62-2.83,2,0,3.52,10.27.61,10.27,7.36C309,499.56,305.72,501.47,301.16,501.47Z" style="fill:#bdcada"/><path d="M308.4,508.11a27.5,27.5,0,0,0,6.36-17.18,27.8,27.8,0,0,0-6.36-17.36h3.76a28.42,28.42,0,0,1,6.09,17.36,27.64,27.64,0,0,1-6.17,17.18Z" style="fill:#bdcada"/><path d="M534.4,691.18H521.82v-3.64h2.88V669.9h-2.88v-3.64h12.42c4.72,0,7.55,2.34,7.55,5.91a5.2,5.2,0,0,1-4.44,5.25v.15a6,6,0,0,1,5.36,6.32C542.71,687.88,540,691.18,534.4,691.18Zm-1.19-21.28H529v6.83h4c2.91,0,4.29-1.42,4.29-3.49C537.23,670.63,535.55,669.9,533.21,669.9Zm.73,10.16h-5v7.48h4.41c3.11,0,4.79-1.19,4.79-3.8C538.15,681.29,536.66,680.06,533.94,680.06Z" style="fill:#bdcada"/><path d="M558.69,674.66l.73,5.36-3.18.39-.65-3a2.81,2.81,0,0,0-1.3-.38c-1.46,0-2.65,1.27-2.65,3.34V688h3.41v3.15H545V688h2.57V677.15h-2.68V674h6.48v3.22c.61-2,1.95-3.49,4.14-3.49A5.87,5.87,0,0,1,558.69,674.66Z" style="fill:#bdcada"/><path d="M561.72,691.18V688h2.57V677.15h-2.72V674h6.78V688h2.57v3.15Zm2.34-25.3h4.18v4.52h-4.18Z" style="fill:#bdcada"/><path d="M586,691.18v-3.3a6.37,6.37,0,0,1-6,3.68c-4.48,0-7.32-3.26-7.32-8.62,0-4.91,2.38-9.32,7.7-9.32a6,6,0,0,1,5.6,3V668H582.3v-3.14h7.82V688h2.53v3.15Zm0-9.59a4.41,4.41,0,0,0-4.41-4.67c-2.76,0-4.64,2.22-4.64,5.79s2,5.55,4.37,5.55c2.8,0,4.64-2.79,4.68-5.36Z" style="fill:#bdcada"/><path d="M611.62,677.15v13.38c0,5.48-3.07,9.16-9.08,9.16-3.57,0-7.06-1.35-8.32-5.1l3.18-1.73a5.53,5.53,0,0,0,5.21,3.53c2.84,0,4.91-2.11,4.91-5.9v-2.57a6,6,0,0,1-5.83,3.33c-4,0-7.43-2.91-7.43-8.31,0-4.91,2.68-9.32,7.7-9.32a6,6,0,0,1,5.56,3V674h6.59v3.18Zm-4.1,4.44c0-2.87-1.84-4.67-4.29-4.67-2.84,0-4.45,2.22-4.45,5.75s1.73,5.29,4.06,5.29a4.76,4.76,0,0,0,4.68-5Z" style="fill:#bdcada"/><path d="M624.27,691.56c-5,0-8.59-3-8.59-8.7,0-5.29,3.11-9.24,8.36-9.24,4.75,0,7.74,3.18,7.78,7.51a12.53,12.53,0,0,1-.23,2.3H620c.23,3.11,1.77,4.83,4.6,4.83a3.68,3.68,0,0,0,4-3l3.41.66C631.66,689,628.94,691.56,624.27,691.56ZM624,676.65c-2.45,0-3.68,1.84-4,4.25h7.59C627.83,678.87,626.72,676.65,624,676.65Z" style="fill:#bdcada"/><path d="M646.11,691.18h-4l7.78-26.37h4Z" style="fill:#bdcada"/><path d="M686.12,681.4v9.78h-3.29l-.42-2.92a9.26,9.26,0,0,1-7.44,3.3c-6.94,0-11.46-5.52-11.46-12.69s4.6-13,12.57-13c4,0,7.36,1.3,9.09,3l.68,5.14-3.48.34-.69-3.14a10.55,10.55,0,0,0-5.68-1.53c-4.67,0-7.93,3.29-7.93,9.16s3.07,9,7.63,9c3.83,0,6.17-2.3,6.17-5.48v-.92h-5.29v-3.64h11v3.64Z" style="fill:#bdcada"/><path d="M698.27,673.62c3.83,0,6.59,1.92,6.59,5.83v7.74c0,1.11.39,1.53,1.27,1.53a3.38,3.38,0,0,0,.88-.15l0,2.26a5.71,5.71,0,0,1-2.76.73,3.31,3.31,0,0,1-3.53-3.41v-.08a6.43,6.43,0,0,1-5.63,3.49c-2.42,0-5.29-1.27-5.29-4.91,0-4.25,4.1-5.21,8-5.21a24.39,24.39,0,0,1,2.91.15v-1c0-2-.34-4-3.22-4a5.93,5.93,0,0,0-2.87.57l-.69,2.65-3.3-.35.73-4.29A13.93,13.93,0,0,1,698.27,673.62Zm2.49,10.12a22,22,0,0,0-2.76-.23c-2,0-4,.54-4,2.68a2.22,2.22,0,0,0,2.5,2.34,4.25,4.25,0,0,0,4.21-4.18Z" style="fill:#bdcada"/><path d="M716.59,691.56c-3.68,0-6-2-6-5.52v-9H708v-3h2.53v-5.33h4.1V674h6.4v3h-6.4v8.39c0,1.84.85,2.72,2.38,2.72.88,0,2.18-.31,2.57-3l3,1C722.15,689.83,720,691.56,716.59,691.56Z" style="fill:#bdcada"/><path d="M732.15,691.56c-5,0-8.59-3-8.59-8.7,0-5.29,3.11-9.24,8.36-9.24,4.75,0,7.74,3.18,7.78,7.51a12.53,12.53,0,0,1-.23,2.3H727.86c.23,3.11,1.76,4.83,4.6,4.83a3.67,3.67,0,0,0,4-3l3.41.66C739.55,689,736.82,691.56,732.15,691.56Zm-.27-14.91c-2.45,0-3.68,1.84-4,4.25h7.59C735.71,678.87,734.6,676.65,731.88,676.65Z" style="fill:#bdcada"/><path d="M767.64,677.11l-4.83,14.07h-3.07L755,679.83h-.19l-4.49,11.35H747.4l-4.94-14.07h-1.69V674h8.74v3.14h-2.68l2.64,8.28h.23L754.11,674h2.53l4.94,11.3h.23l2.07-8.16h-2.57V674h8.05v3.14Z" style="fill:#bdcada"/><path d="M779.33,673.62c3.83,0,6.59,1.92,6.59,5.83v7.74c0,1.11.38,1.53,1.26,1.53a3.31,3.31,0,0,0,.88-.15l0,2.26a5.69,5.69,0,0,1-2.76.73,3.31,3.31,0,0,1-3.52-3.41v-.08a6.46,6.46,0,0,1-5.64,3.49c-2.41,0-5.29-1.27-5.29-4.91,0-4.25,4.1-5.21,8-5.21a24.56,24.56,0,0,1,2.92.15v-1c0-2-.35-4-3.22-4a6,6,0,0,0-2.88.57l-.69,2.65-3.29-.35.72-4.29A14,14,0,0,1,779.33,673.62Zm2.49,10.12a22,22,0,0,0-2.76-.23c-2,0-3.95.54-3.95,2.68a2.22,2.22,0,0,0,2.49,2.34,4.25,4.25,0,0,0,4.22-4.18Z" style="fill:#bdcada"/><path d="M805.89,677.11l-5.75,14.07-1.92,4.94h2.53v3.22h-9.2v-3.22h2.91l1.69-4.79-6.09-14.22h-1.88V674h8.47v3.14h-2.19l4,9.31h.23l3.22-9.31h-2V674h7.75v3.14Z" style="fill:#bdcada"/><path d="M860.39,377.77c-3.37,0-6.78-.84-8.62-2.37l.69-5.71,3.41.34-.08,3.07a8.63,8.63,0,0,0,4.29,1c3,0,5.18-.69,5.18-3.56,0-3.14-2.64-3.76-5.56-4.33-3.56-.69-7.74-1.57-7.74-6.79s4.22-7.32,8.62-7.32c3.07,0,6.25,1,7.86,2.49l.23,5.26-3.41.3-.34-3.22a8.08,8.08,0,0,0-4.22-1.07c-2.42,0-4.18.92-4.18,3.07,0,2.49,2.34,3.06,4.79,3.64,3.15.69,8.51,1.38,8.51,7.51C869.82,375.05,866.07,377.77,860.39,377.77Z" style="fill:#bdcada"/><path d="M880.13,377.77c-3.68,0-6-2-6-5.52v-9h-2.53v-3h2.53v-5.33h4.1v5.33h6.4v3h-6.4v8.39c0,1.84.84,2.72,2.38,2.72.88,0,2.18-.3,2.57-2.95l3,1C885.69,376.05,883.54,377.77,880.13,377.77Z" style="fill:#bdcada"/><path d="M895.69,377.77c-5,0-8.59-3-8.59-8.7,0-5.29,3.11-9.23,8.36-9.23,4.75,0,7.74,3.18,7.78,7.51a12.62,12.62,0,0,1-.23,2.3H891.4c.22,3.1,1.76,4.83,4.6,4.83a3.68,3.68,0,0,0,4-3l3.41.65C903.09,375.17,900.36,377.77,895.69,377.77Zm-.27-14.91c-2.45,0-3.68,1.84-4,4.26H899C899.25,365.09,898.14,362.86,895.42,362.86Z" style="fill:#bdcada"/><path d="M914,359.84c3.84,0,6.6,1.91,6.6,5.82v7.74c0,1.12.38,1.54,1.26,1.54a3.33,3.33,0,0,0,.88-.16l0,2.27a5.68,5.68,0,0,1-2.76.72,3.31,3.31,0,0,1-3.52-3.41v-.07a6.45,6.45,0,0,1-5.64,3.48c-2.41,0-5.29-1.26-5.29-4.9,0-4.26,4.1-5.22,8-5.22a22.56,22.56,0,0,1,2.92.16v-1c0-2-.35-4-3.22-4a6,6,0,0,0-2.88.58l-.69,2.64-3.29-.34.72-4.29A14,14,0,0,1,914,359.84Zm2.5,10.12a20.24,20.24,0,0,0-2.76-.24c-2,0-3.95.54-3.95,2.69a2.22,2.22,0,0,0,2.49,2.34,4.26,4.26,0,0,0,4.22-4.18Z" style="fill:#bdcada"/><path d="M948.81,377.39v-3.14h1V367.5c0-3.26-1.23-4.48-3.3-4.48-2.68,0-3.91,2.18-4,4.52v6.71h2.57v3.14H937.5v-3.14h.92V367.5c0-3.26-1.23-4.48-3.26-4.48-2.68,0-3.91,2.14-3.95,4.48v6.75h3.22v3.14h-9.89v-3.14h2.57V363.36h-2.53v-3.18h6.63V363a5.94,5.94,0,0,1,5.41-3.18,5.45,5.45,0,0,1,5.6,3.87,6,6,0,0,1,5.78-3.87c3.15,0,5.87,1.91,5.87,6.17v8.24h2.53v3.14Z" style="fill:#bdcada"/><path d="M957.54,377.39v-3.14h2.57V354.16h-2.72V351h6.78v23.23h2.57v3.14Z" style="fill:#bdcada"/><path d="M968.73,377.39v-3.14h2.57V363.36h-2.72v-3.18h6.78v14.07h2.57v3.14Zm2.34-25.3h4.18v4.53h-4.18Z" style="fill:#bdcada"/><path d="M991.5,377.39v-3.14H994V367.5c0-3.26-1.23-4.48-3.34-4.48a4.18,4.18,0,0,0-4.25,4.37v6.86H989v3.14h-9.24v-3.14h2.57V363.36h-2.68v-3.18h6.78V363a6.25,6.25,0,0,1,5.71-3.14c3.3,0,6,1.91,6,6.17v8.24h2.57v3.14Z" style="fill:#bdcada"/><path d="M1012.77,377.39v-3.14h2l-3.6-4.29h-2.76v4.29h1.92v3.14h-8.59v-3.14h2.57V354.16h-2.72V351h6.82v16h3l3-3.64h-2.26v-3.18h8.39v3.18h-2.15l-4.06,4.76,5.21,6.13h1.84v3.14Z" style="fill:#bdcada"/><path d="M1039.75,377.77c-3.37,0-6.79-.84-8.63-2.37l.69-5.71,3.42.34-.08,3.07a8.61,8.61,0,0,0,4.29,1c3,0,5.18-.69,5.18-3.56,0-3.14-2.65-3.76-5.56-4.33-3.57-.69-7.74-1.57-7.74-6.79s4.21-7.32,8.62-7.32c3.07,0,6.25,1,7.86,2.49l.23,5.26-3.41.3-.35-3.22a8,8,0,0,0-4.21-1.07c-2.42,0-4.18.92-4.18,3.07,0,2.49,2.34,3.06,4.79,3.64,3.14.69,8.51,1.38,8.51,7.51C1049.18,375.05,1045.42,377.77,1039.75,377.77Z" style="fill:#bdcada"/><path d="M1060.17,377.77c-5,0-8.58-3-8.58-8.7,0-5.29,3.1-9.23,8.35-9.23,4.76,0,7.75,3.18,7.79,7.51a12.62,12.62,0,0,1-.23,2.3h-11.62c.23,3.1,1.76,4.83,4.6,4.83a3.69,3.69,0,0,0,4-3l3.41.65C1067.57,375.17,1064.85,377.77,1060.17,377.77Zm-.26-14.91c-2.46,0-3.68,1.84-4,4.26h7.59C1063.74,365.09,1062.63,362.86,1059.91,362.86Z" style="fill:#bdcada"/><path d="M1083.71,360.87l.72,5.37-3.18.38-.65-2.95a2.81,2.81,0,0,0-1.3-.38c-1.46,0-2.65,1.26-2.65,3.33v7.63h3.42v3.14H1070v-3.14h2.57V363.36h-2.68v-3.18h6.48v3.22c.61-1.95,2-3.49,4.14-3.49A5.92,5.92,0,0,1,1083.71,360.87Z" style="fill:#bdcada"/><path d="M1103.21,363.32,1097,377.39h-3l-6.51-14.07h-1.92v-3.14h8.43v3.14H1092l3.87,8.74h.23l3.22-8.74h-1.92v-3.14h7.74v3.14Z" style="fill:#bdcada"/><path d="M1114.4,377.77c-5,0-8.58-3-8.58-8.7,0-5.29,3.1-9.23,8.35-9.23,4.76,0,7.75,3.18,7.79,7.51a12.62,12.62,0,0,1-.23,2.3h-11.62c.23,3.1,1.76,4.83,4.6,4.83a3.69,3.69,0,0,0,4-3l3.41.65C1121.8,375.17,1119.08,377.77,1114.4,377.77Zm-.26-14.91c-2.46,0-3.68,1.84-4,4.26h7.59C1118,365.09,1116.86,362.86,1114.14,362.86Z" style="fill:#bdcada"/><path d="M1137.94,360.87l.72,5.37-3.18.38-.65-2.95a2.81,2.81,0,0,0-1.3-.38c-1.46,0-2.65,1.26-2.65,3.33v7.63h3.41v3.14h-10.08v-3.14h2.57V363.36h-2.68v-3.18h6.48v3.22c.61-1.95,2-3.49,4.14-3.49A5.92,5.92,0,0,1,1137.94,360.87Z" style="fill:#bdcada"/><path d="M1477.86,479.82l-6.79,21.27h-3.14l-6.09-17.55h-.19l-5.91,17.55h-3.18l-7.2-21.27h-2.15v-3.64h9.47v3.64h-2.76l4.29,14.26h.19l4.95-14.26h-2.19v-3.64h9.43v3.64h-2l4.94,14.45h.2l3.91-14.45h-3.07v-3.64h9.35v3.64Z" style="fill:#bdcada"/><path d="M1487.71,501.47c-5,0-8.59-3-8.59-8.7,0-5.29,3.1-9.23,8.35-9.23,4.76,0,7.75,3.18,7.79,7.51a12.62,12.62,0,0,1-.23,2.3h-11.62c.23,3.1,1.76,4.83,4.6,4.83a3.69,3.69,0,0,0,4-3l3.41.65C1495.1,498.87,1492.38,501.47,1487.71,501.47Zm-.27-14.91c-2.46,0-3.68,1.84-4,4.26H1491C1491.27,488.79,1490.16,486.56,1487.44,486.56Z" style="fill:#bdcada"/><path d="M1508.4,501.47a6.12,6.12,0,0,1-5.71-3.06c-.08.61-.27,2.07-.38,2.68h-4.07a29.53,29.53,0,0,0,.62-5.17V477.86h-2.57v-3.14h6.63v12.57a6.22,6.22,0,0,1,5.94-3.75c4.33,0,7.36,3.14,7.36,8.54C1516.22,497,1513.73,501.47,1508.4,501.47Zm-.8-14.64c-2.92,0-4.64,2.57-4.68,5.1v1.23c0,2.83,1.8,5.06,4.52,5.06s4.52-2.26,4.52-5.79S1510.16,486.83,1507.6,486.83Z" style="fill:#bdcada"/><path d="M1538.56,501.47c-7.2,0-12.42-5.17-12.42-12.53,0-6.17,3.8-13.15,12.42-13.15a13.12,13.12,0,0,1,8.9,2.95l.65,5.41-3.49.34L1544,481a10.24,10.24,0,0,0-5.52-1.49c-4.71,0-7.78,3.49-7.78,9.16,0,5.94,3.3,9,8.21,9a10.86,10.86,0,0,0,5-1.08l.61-3.71,3.49.34-.54,5.44C1545.69,500.4,1542.09,501.47,1538.56,501.47Z" style="fill:#bdcada"/><path d="M1559.45,501.47c-5.25,0-8.74-3.41-8.74-8.81,0-5,3-9.16,9-9.16s8.93,4.14,8.93,9C1568.61,497.87,1564.85,501.47,1559.45,501.47Zm.15-14.75c-2.91,0-4.64,2.26-4.64,5.71,0,3.26,1.58,5.83,4.64,5.83s4.75-2.38,4.75-5.87C1564.35,488.71,1562.4,486.72,1559.6,486.72Z" style="fill:#bdcada"/><path d="M1582.44,501.09V498H1585V491.2c0-3.26-1.22-4.48-3.33-4.48a4.18,4.18,0,0,0-4.26,4.37V498H1580v3.14h-9.24V498h2.57V487.06h-2.68v-3.18h6.78v2.8a6.26,6.26,0,0,1,5.71-3.14c3.3,0,6,1.91,6,6.17V498h2.57v3.14Z" style="fill:#bdcada"/><path d="M1600.38,501.47a15,15,0,0,1-7.06-1.68l.62-4.45,3.22.31,0,2.22a8.71,8.71,0,0,0,3,.54c2.07,0,3.91-.73,3.91-2.22,0-3.61-10.51-.66-10.51-7.44,0-4,3.72-5.21,7.1-5.21a13.14,13.14,0,0,1,6.28,1.57l.42,4.25-3.22.39-.34-2.57a8.2,8.2,0,0,0-3-.58c-1.61,0-2.84.62-2.84,2,0,3.52,10.28.61,10.28,7.36C1608.2,499.56,1604.94,501.47,1600.38,501.47Z" style="fill:#bdcada"/><path d="M1619.08,501.47c-5.25,0-8.74-3.41-8.74-8.81,0-5,3-9.16,9-9.16s8.93,4.14,8.93,9C1628.24,497.87,1624.48,501.47,1619.08,501.47Zm.15-14.75c-2.91,0-4.64,2.26-4.64,5.71,0,3.26,1.58,5.83,4.64,5.83s4.76-2.38,4.76-5.87C1624,488.71,1622,486.72,1619.23,486.72Z" style="fill:#bdcada"/><path d="M1630,501.09V498h2.57V477.86h-2.72v-3.14h6.78V498h2.57v3.14Z" style="fill:#bdcada"/><path d="M1649.51,501.47c-5,0-8.59-3-8.59-8.7,0-5.29,3.11-9.23,8.36-9.23,4.75,0,7.74,3.18,7.78,7.51a12.62,12.62,0,0,1-.23,2.3h-11.61c.23,3.1,1.76,4.83,4.6,4.83a3.68,3.68,0,0,0,4-3l3.41.65C1656.91,498.87,1654.19,501.47,1649.51,501.47Zm-.27-14.91c-2.45,0-3.68,1.84-4,4.26h7.59C1653.07,488.79,1652,486.56,1649.24,486.56Z" style="fill:#bdcada"/></svg>