<?xml version="1.0" encoding="utf-8"?>
<!-- Generator: Adobe Illustrator 23.0.1, SVG Export Plug-In . SVG Version: 6.00 Build 0)  -->
<svg version="1.1" id="Slide_4" xmlns="http://www.w3.org/2000/svg" xmlns:xlink="http://www.w3.org/1999/xlink" x="0px" y="0px"
	 viewBox="0 0 1920 654.4" style="enable-background:new 0 0 1920 654.4;" xml:space="preserve">
<style type="text/css">
	.st0{fill:#3EB1CF;}
	.st1{fill:#BDCADA;}
	.st2{fill:#FFCD50;}
</style>
<title>workshop-illustrations</title>
<path class="st0" d="M1412.5,518.2c-33.3,0-73-7.7-114.3-32.4c-43.9-26.3-90.8-34.3-139.3-23.8c-36.2,7.8-59.2,23.2-59.4,23.4
	c-6.9,4.6-16.2,2.9-20.8-4s-2.9-16.2,4-20.8c1.1-0.8,28.1-18.8,69.9-27.9c38.6-8.4,97.9-10.4,161,27.4c43.5,26.1,90,34.2,138.1,24.1
	c36.5-7.7,60.4-23.5,60.6-23.6c6.9-4.6,16.2-2.8,20.8,4.1c4.6,6.9,2.8,16.1-4,20.8c-1.1,0.8-28.1,18.8-69.9,27.9
	C1445.9,516.1,1430.1,518.2,1412.5,518.2z"/>
<g>
	<path class="st1" d="M385.7,398.1V233.7c0-8.3-6.7-15-15-15s-15,6.7-15,15V395H166.9c-24.7,0-44.8,20.1-44.8,44.8v66.3
		c0,24.7,20.1,44.8,44.8,44.8h202.6c24.7,0,44.8-20.1,44.8-44.8v-66.3C414.3,420.8,402.4,404.6,385.7,398.1z M384.3,506.1
		c0,8.2-6.6,14.8-14.8,14.8H166.9c-8.2,0-14.8-6.6-14.8-14.8v-66.3c0-8.2,6.6-14.8,14.8-14.8h202.6c8.2,0,14.8,6.6,14.8,14.8V506.1z
		"/>
	<path class="st1" d="M1061.3,395H872.5V233.7c0-8.3-6.7-15-15-15s-15,6.7-15,15v164.4c-16.7,6.5-28.6,22.8-28.6,41.8v66.3
		c0,24.7,20.1,44.8,44.8,44.8h202.6c24.7,0,44.8-20.1,44.8-44.8v-66.3C1106.1,415.1,1086,395,1061.3,395z M1076.1,506.1
		c0,8.2-6.6,14.8-14.8,14.8H858.7c-8.2,0-14.8-6.6-14.8-14.8v-66.3c0-8.2,6.6-14.8,14.8-14.8h202.6c8.2,0,14.8,6.6,14.8,14.8V506.1z
		"/>
</g>
<path class="st1" d="M1753.1,550.9h-202.6c-24.7,0-44.8-20.1-44.8-44.8v-66.3c0-24.7,20.1-44.8,44.8-44.8h202.6
	c24.7,0,44.8,20.1,44.8,44.8v66.3C1797.9,530.8,1777.8,550.9,1753.1,550.9z M1550.5,425c-8.2,0-14.8,6.6-14.8,14.8v66.3
	c0,8.2,6.6,14.8,14.8,14.8h202.6c8.2,0,14.8-6.6,14.8-14.8v-66.3c0-8.2-6.6-14.8-14.8-14.8H1550.5z"/>
<path class="st2" d="M416.3,284c-3.8,0-7.7-1.5-10.6-4.4c-5.9-5.9-5.9-15.4,0-21.2c13.6-13.6,13.6-35.9,0-49.5
	c-5.9-5.9-5.9-15.4,0-21.2c5.9-5.9,15.4-5.9,21.2,0c25.3,25.3,25.3,66.6,0,91.9C424,282.6,420.1,284,416.3,284z"/>
<path class="st2" d="M458.7,326.5c-3.8,0-7.7-1.5-10.6-4.4c-5.9-5.9-5.9-15.4,0-21.2c37-37,37-97.3,0-134.3
	c-5.9-5.9-5.9-15.4,0-21.2c5.9-5.9,15.4-5.9,21.2,0c48.7,48.7,48.7,128,0,176.8C466.4,325,462.6,326.5,458.7,326.5z"/>
<path class="st2" d="M501.2,368.9c-3.8,0-7.7-1.5-10.6-4.4c-5.9-5.9-5.9-15.4,0-21.2C519.8,314,536,275.1,536,233.7
	c0-41.4-16.1-80.3-45.4-109.6c-5.9-5.9-5.9-15.4,0-21.2c5.9-5.9,15.4-5.9,21.2,0c72.1,72.1,72.1,189.5,0,261.6
	C508.8,367.5,505,368.9,501.2,368.9z"/>
<path class="st2" d="M812.9,284c-3.8,0-7.7-1.5-10.6-4.4c-25.3-25.3-25.3-66.6,0-91.9c5.9-5.9,15.4-5.9,21.2,0
	c5.9,5.9,5.9,15.4,0,21.2c-13.6,13.6-13.6,35.9,0,49.5c5.9,5.9,5.9,15.4,0,21.2C820.6,282.6,816.7,284,812.9,284z"/>
<path class="st2" d="M770.5,326.5c-3.8,0-7.7-1.5-10.6-4.4c-48.7-48.7-48.7-128,0-176.8c5.9-5.9,15.4-5.9,21.2,0
	c5.9,5.9,5.9,15.4,0,21.2c-37,37-37,97.3,0,134.3c5.9,5.9,5.9,15.4,0,21.2C778.1,325,774.3,326.5,770.5,326.5z"/>
<path class="st2" d="M728.1,368.9c-3.7,0-7.4-1.3-10.2-4c-0.1-0.1-0.2-0.2-0.4-0.4c-72.1-72.1-72.1-189.5,0-261.6
	c5.9-5.9,15.4-5.9,21.2,0c5.9,5.9,5.9,15.4,0,21.2c-60.4,60.4-60.4,158.5-0.2,219l0.2,0.2c5.9,5.9,5.9,15.4,0,21.2
	C735.7,367.4,731.9,368.9,728.1,368.9z"/>
<path class="st1" d="M191.4,604.3v21.3h3.4v4.4h-11.6v-4.4h3v-14.4H186l-8.7,16.7H175l-9.2-17.1h-0.2v14.8h3.1v4.4h-11.5v-4.4h3.4
	v-21.3h-3.8v-4.4h8.2l11.1,20.6h0.2l10.6-20.6h8.2v4.4L191.4,604.3z"/>
<path class="st1" d="M207.5,630.5c-6.1,0-10.4-3.6-10.4-10.5c0-6.4,3.8-11.2,10.1-11.2c5.8,0,9.4,3.9,9.4,9.1c0,0.9-0.1,1.9-0.3,2.8
	h-14.1c0.3,3.8,2.1,5.8,5.6,5.8c3.2,0,4.4-1.8,4.8-3.6l4.1,0.8C216.5,627.4,213.2,630.5,207.5,630.5z M207.2,612.5
	c-3,0-4.5,2.2-4.8,5.2h9.2C211.8,615.2,210.5,612.5,207.2,612.5z"/>
<path class="st1" d="M228.1,630.5c-3,0-5.9-0.7-8.5-2l0.8-5.4l3.9,0.4l-0.1,2.7c1.2,0.4,2.4,0.7,3.7,0.7c2.5,0,4.7-0.9,4.7-2.7
	c0-4.4-12.7-0.8-12.7-9c0-4.8,4.5-6.3,8.6-6.3c2.7,0,5.3,0.6,7.6,1.9l0.5,5.2l-3.9,0.5l-0.4-3.1c-1.2-0.5-2.4-0.7-3.7-0.7
	c-1.9,0-3.4,0.7-3.4,2.4c0,4.3,12.4,0.7,12.4,8.9C237.6,628.2,233.6,630.5,228.1,630.5z"/>
<path class="st1" d="M253.9,630.1v-3.8h3.1v-8.2c0-4-1.6-5.4-4.1-5.4c-3.1,0-4.9,2.3-5.1,5.1v8.5h3.1v3.8h-11.2v-3.8h3.1v-24.3h-3.1
	v-3.8h8.1v14.5c1.4-2.5,4.1-4,6.9-3.9c4,0,7.2,2.3,7.2,7.5v10h3.1v3.8L253.9,630.1z"/>
<path class="st1" d="M305,604.3v25.8l-3,0l-16.7-20.9h-0.2v16.5h4.4v4.4h-12.6v-4.4h3.3v-21.3h-3.8v-4.4h7.5l15.9,20h0.2v-15.6h-4.4
	v-4.4h12.7v4.4L305,604.3z"/>
<path class="st1" d="M320.5,630.5c-6.4,0-10.6-4.1-10.6-10.7c0-6.1,3.7-11.1,10.9-11.1s10.8,5,10.8,10.9
	C331.6,626.2,327.1,630.5,320.5,630.5z M320.7,612.7c-3.5,0-5.6,2.7-5.6,6.9c0,4,1.9,7.1,5.6,7.1s5.8-2.9,5.8-7.1
	C326.5,615.1,324.1,612.7,320.7,612.7z"/>
<path class="st1" d="M350.2,630.1v-4c-1.3,2.8-4.2,4.6-7.2,4.5c-5.4,0-8.9-4-8.9-10.5c0-5.9,2.9-11.3,9.3-11.3
	c2.8-0.2,5.4,1.3,6.8,3.7v-10.5h-4.5v-3.8h9.5v28.1h3.1v3.8L350.2,630.1z M350.2,618.5c0-3.4-2.4-5.7-5.3-5.7c-3.3,0-5.6,2.7-5.6,7
	s2.4,6.7,5.3,6.7c3.4,0,5.6-3.4,5.7-6.5V618.5z"/>
<path class="st1" d="M370.6,630.5c-6.1,0-10.4-3.6-10.4-10.5c0-6.4,3.8-11.2,10.1-11.2c5.8,0,9.4,3.9,9.4,9.1c0,0.9-0.1,1.9-0.3,2.8
	h-14.1c0.3,3.8,2.1,5.8,5.6,5.8c3.2,0,4.4-1.8,4.8-3.6l4.1,0.8C379.5,627.4,376.2,630.5,370.6,630.5z M370.3,612.5
	c-3,0-4.5,2.2-4.8,5.2h9.2C374.9,615.2,373.5,612.5,370.3,612.5z"/>
<path class="st2" d="M568.3,30l-8.2,25.8h-3.8l-7.4-21.3h-0.2l-7.1,21.3h-3.9L529,30h-2.6v-4.4h11.5V30h-3.3l5.2,17.3h0.2l6-17.3
	h-2.7v-4.4h11.4V30h-2.5l6,17.5h0.2l4.7-17.5h-3.7v-4.4h11.3V30H568.3z"/>
<path class="st2" d="M571.7,55.8V52h3.1V38.8h-3.3v-3.9h8.2v17h3.1v3.8L571.7,55.8z M574.5,25.1h5.1v5.5h-5.1V25.1z"/>
<path class="st2" d="M601.7,35.8l0.9,6.5l-3.8,0.5l-0.8-3.6c-0.5-0.3-1-0.4-1.6-0.5c-1.8,0-3.2,1.5-3.2,4v9.2h4.1v3.8H585v-3.8h3.1
	V38.8h-3.2v-3.9h7.8v3.9c0.7-2.4,2.4-4.2,5-4.2C599.1,34.6,600.5,35,601.7,35.8z"/>
<path class="st2" d="M615.4,56.2c-6.1,0-10.4-3.6-10.4-10.5c0-6.4,3.8-11.2,10.1-11.2c5.8,0,9.4,3.9,9.4,9.1c0,0.9-0.1,1.9-0.3,2.8
	h-14.1c0.3,3.8,2.1,5.9,5.6,5.9c3.2,0,4.4-1.9,4.8-3.6l4.1,0.8C624.4,53.1,621.1,56.2,615.4,56.2z M615.1,38.2c-3,0-4.5,2.2-4.8,5.1
	h9.2C619.8,40.9,618.4,38.2,615.1,38.2L615.1,38.2z"/>
<path class="st2" d="M626.9,55.8V52h3.1V27.7h-3.3v-3.8h8.2V52h3.1v3.8H626.9z"/>
<path class="st2" d="M650.5,56.2c-6.1,0-10.4-3.6-10.4-10.5c0-6.4,3.8-11.2,10.1-11.2c5.8,0,9.4,3.9,9.4,9.1c0,0.9-0.1,1.9-0.3,2.8
	h-14.1c0.3,3.8,2.1,5.9,5.6,5.9c3.2,0,4.4-1.9,4.8-3.6l4.1,0.8C659.5,53.1,656.2,56.2,650.5,56.2z M650.2,38.2c-3,0-4.5,2.2-4.8,5.1
	h9.2C654.9,40.9,653.5,38.2,650.2,38.2L650.2,38.2z"/>
<path class="st2" d="M671.1,56.2c-3,0-5.9-0.6-8.5-2l0.8-5.4l3.9,0.4v2.7c1.2,0.4,2.4,0.6,3.7,0.6c2.5,0,4.7-0.9,4.7-2.7
	c0-4.4-12.7-0.8-12.7-9c0-4.8,4.5-6.3,8.6-6.3c2.7,0,5.3,0.6,7.6,1.9l0.5,5.1l-3.9,0.5l-0.4-3.1c-1.2-0.5-2.4-0.7-3.7-0.7
	c-2,0-3.4,0.8-3.4,2.4c0,4.3,12.4,0.7,12.4,8.9C680.6,53.9,676.7,56.2,671.1,56.2z"/>
<path class="st2" d="M692.1,56.2c-3,0-5.9-0.6-8.5-2l0.7-5.4l3.9,0.4v2.7c1.2,0.4,2.4,0.6,3.7,0.6c2.5,0,4.7-0.9,4.7-2.7
	c0-4.4-12.7-0.8-12.7-9c0-4.8,4.5-6.3,8.6-6.3c2.7,0,5.3,0.6,7.6,1.9l0.5,5.1l-3.9,0.5l-0.4-3.1c-1.2-0.5-2.4-0.7-3.7-0.7
	c-2,0-3.4,0.8-3.4,2.4c0,4.3,12.4,0.7,12.4,8.9C701.6,53.9,697.6,56.2,692.1,56.2z"/>
<path class="st0" d="M1216.9,375.8v-4.4h3.5V350h-3.5v-4.4h22.7l0.9,8.7l-4.4,0.4l-0.9-4.7h-9.6v8.3h13.3v4.4h-13.3v8.6h9.9l0.9-4.7
	l4.4,0.4l-0.9,8.7L1216.9,375.8z"/>
<path class="st0" d="M1253.3,376.2c-4.4,0-7.3-2.5-7.3-6.7v-11h-3.1v-3.7h3.1v-6.5h5v6.5h7.8v3.7h-7.8v10.2c0,2.2,1,3.3,2.9,3.3
	c1.1,0,2.7-0.4,3.1-3.6l3.7,1.2C1260,374.2,1257.4,376.2,1253.3,376.2z"/>
<path class="st0" d="M1275.4,375.8V372h3.1v-8.2c0-3.9-1.6-5.4-4.1-5.4c-3.1,0-4.9,2.3-5.1,5.1v8.5h3.1v3.8h-11.1V372h3.1v-24.3
	h-3.1v-3.8h8.1v14.5c1.4-2.5,4.1-4,6.9-3.8c4,0,7.2,2.3,7.2,7.5v10h3.1v3.8L1275.4,375.8z"/>
<path class="st0" d="M1298.7,376.2c-6.1,0-10.4-3.6-10.4-10.5c0-6.4,3.8-11.2,10.1-11.2c5.8,0,9.4,3.8,9.4,9.1
	c0,0.9-0.1,1.9-0.3,2.8h-14.1c0.3,3.8,2.1,5.8,5.6,5.8c3.2,0,4.4-1.8,4.8-3.6l4.1,0.8C1307.7,373.1,1304.4,376.2,1298.7,376.2z
	 M1298.4,358.2c-3,0-4.5,2.2-4.8,5.2h9.2C1303,360.9,1301.7,358.2,1298.4,358.2z"/>
<path class="st0" d="M1327.2,355.8l0.9,6.5l-3.8,0.5l-0.8-3.6c-0.5-0.3-1-0.4-1.6-0.5c-1.8,0-3.2,1.5-3.2,4v9.2h4.1v3.8h-12.2v-3.8
	h3.1v-13.1h-3.2v-3.9h7.8v3.9c0.7-2.4,2.4-4.2,5-4.2C1324.7,354.6,1326.1,355,1327.2,355.8z"/>
<path class="st0" d="M1344.9,375.8V372h3.1v-8.2c0-3.9-1.5-5.4-4-5.4c-3.2,0-5,2.3-5.2,5.3v8.3h3.1v3.8h-11.2V372h3.1v-13.2h-3.2
	v-3.9h8.2v3.4c1.4-2.5,4.1-3.9,6.9-3.8c4,0,7.2,2.3,7.2,7.5v10h3.1v3.8H1344.9z"/>
<path class="st0" d="M1368.2,376.2c-6.1,0-10.4-3.6-10.4-10.5c0-6.4,3.8-11.2,10.1-11.2c5.8,0,9.4,3.8,9.4,9.1
	c0,0.9-0.1,1.9-0.3,2.8H1363c0.3,3.8,2.1,5.8,5.6,5.8c3.2,0,4.4-1.8,4.8-3.6l4.1,0.8C1377.2,373.1,1373.9,376.2,1368.2,376.2z
	 M1367.9,358.2c-3,0-4.5,2.2-4.8,5.2h9.2C1372.5,360.9,1371.2,358.2,1367.9,358.2z"/>
<path class="st0" d="M1389.6,376.2c-4.5,0-7.3-2.5-7.3-6.7v-11h-3.1v-3.7h3.1v-6.5h5v6.5h7.7v3.7h-7.8v10.2c0,2.2,1,3.3,2.9,3.3
	c1.1,0,2.7-0.4,3.1-3.6l3.7,1.2C1396.3,374.2,1393.7,376.2,1389.6,376.2z"/>
<path class="st1" d="M883.2,604.3v21.3h3.4v4.4h-11.5v-4.4h3v-14.4h-0.2l-8.8,16.7h-2.3l-9.2-17.1h-0.2v14.8h3.2v4.4h-11.4v-4.4h3.4
	v-21.3h-3.8v-4.4h8.2l11.2,20.5h0.2l10.6-20.5h8.2v4.4L883.2,604.3z"/>
<path class="st1" d="M899.3,630.5c-6.1,0-10.4-3.6-10.4-10.5c0-6.4,3.8-11.2,10.1-11.2c5.8,0,9.4,3.9,9.4,9.1c0,0.9-0.1,1.9-0.3,2.8
	h-14.1c0.3,3.8,2.1,5.8,5.6,5.8c3.2,0,4.4-1.8,4.8-3.6l4.1,0.8C908.2,627.4,904.9,630.5,899.3,630.5z M899,612.5
	c-3,0-4.5,2.2-4.8,5.2h9.2C903.6,615.2,902.3,612.5,899,612.5z"/>
<path class="st1" d="M919.9,630.5c-3,0-5.9-0.7-8.5-2l0.7-5.4l3.9,0.4v2.7c1.2,0.4,2.4,0.7,3.7,0.7c2.5,0,4.7-0.9,4.7-2.7
	c0-4.4-12.7-0.8-12.7-9c0-4.8,4.5-6.3,8.6-6.3c2.7,0,5.3,0.6,7.6,1.9l0.5,5.2l-3.9,0.5l-0.4-3.1c-1.2-0.5-2.4-0.7-3.7-0.7
	c-2,0-3.4,0.7-3.4,2.4c0,4.3,12.4,0.7,12.4,8.9C929.4,628.2,925.4,630.5,919.9,630.5z"/>
<path class="st1" d="M945.7,630.1v-3.8h3.1v-8.2c0-4-1.6-5.4-4.1-5.4c-3.1,0-4.9,2.3-5.1,5.1v8.5h3.1v3.8h-11.1v-3.8h3.1v-24.3h-3.1
	v-3.8h8.1v14.5c1.4-2.5,4.1-4,6.9-3.9c4,0,7.2,2.3,7.2,7.5v10h3.1v3.8L945.7,630.1z"/>
<path class="st1" d="M996.8,604.3v25.8l-3,0l-16.7-20.9h-0.2v16.5h4.4v4.4h-12.5v-4.4h3.3v-21.3h-3.8v-4.4h7.6l15.9,20h0.2v-15.6
	h-4.4v-4.4h12.7v4.4L996.8,604.3z"/>
<path class="st1" d="M1012.3,630.5c-6.4,0-10.6-4.1-10.6-10.7c0-6.1,3.7-11.1,10.9-11.1s10.8,5,10.8,10.9
	C1023.4,626.2,1018.9,630.5,1012.3,630.5z M1012.5,612.7c-3.5,0-5.6,2.7-5.6,6.9c0,4,1.9,7.1,5.6,7.1s5.8-2.9,5.8-7.1
	C1018.3,615.1,1015.9,612.7,1012.5,612.7z"/>
<path class="st1" d="M1042,630.1v-4c-1.3,2.8-4.2,4.6-7.2,4.5c-5.4,0-8.9-4-8.9-10.5c0-5.9,2.9-11.3,9.3-11.3
	c2.8-0.2,5.4,1.3,6.8,3.7v-10.5h-4.5v-3.8h9.5v28.1h3.1v3.8L1042,630.1z M1042,618.5c0-3.4-2.4-5.7-5.3-5.7c-3.3,0-5.6,2.7-5.6,7
	s2.4,6.7,5.3,6.7c3.4,0,5.6-3.4,5.7-6.5L1042,618.5z"/>
<path class="st1" d="M1062.4,630.5c-6.1,0-10.4-3.6-10.4-10.5c0-6.4,3.8-11.2,10.1-11.2c5.8,0,9.4,3.9,9.4,9.1
	c0,0.9-0.1,1.9-0.3,2.8h-14.1c0.3,3.8,2.1,5.8,5.6,5.8c3.2,0,4.4-1.8,4.8-3.6l4.1,0.8C1071.3,627.4,1068,630.5,1062.4,630.5z
	 M1062,612.5c-3,0-4.4,2.2-4.8,5.2h9.2C1066.7,615.2,1065.3,612.5,1062,612.5L1062,612.5z"/>
<path class="st1" d="M1575,604.3v21.3h3.4v4.4h-11.6v-4.4h3v-14.4h-0.2l-8.8,16.7h-2.3l-9.2-17.1h-0.2v14.8h3.2v4.4h-11.4v-4.4h3.4
	v-21.3h-3.8v-4.4h8.2l11.1,20.6h0.2l10.6-20.6h8.2v4.4L1575,604.3z"/>
<path class="st1" d="M1591.1,630.5c-6.1,0-10.4-3.6-10.4-10.5c0-6.4,3.8-11.2,10.1-11.2c5.8,0,9.4,3.9,9.4,9.1
	c0,0.9-0.1,1.9-0.3,2.8h-14.1c0.3,3.8,2.1,5.8,5.6,5.8c3.2,0,4.4-1.8,4.8-3.6l4.1,0.8C1600,627.4,1596.7,630.5,1591.1,630.5z
	 M1590.7,612.5c-3,0-4.4,2.2-4.8,5.2h9.2C1595.4,615.2,1594,612.5,1590.7,612.5z"/>
<path class="st1" d="M1611.7,630.5c-3,0-5.9-0.7-8.5-2l0.7-5.4l3.9,0.4v2.7c1.2,0.4,2.4,0.7,3.7,0.7c2.5,0,4.7-0.9,4.7-2.7
	c0-4.4-12.7-0.8-12.7-9c0-4.8,4.5-6.3,8.6-6.3c2.7,0,5.3,0.6,7.6,1.9l0.5,5.2l-3.9,0.5l-0.4-3.1c-1.2-0.5-2.4-0.7-3.7-0.7
	c-2,0-3.4,0.7-3.4,2.4c0,4.3,12.4,0.7,12.4,8.9C1621.2,628.2,1617.2,630.5,1611.7,630.5z"/>
<path class="st1" d="M1637.4,630.1v-3.8h3.1v-8.2c0-4-1.6-5.4-4.1-5.4c-3.1,0-4.9,2.3-5.1,5.1v8.5h3.1v3.8h-11.1v-3.8h3.1v-24.3
	h-3.1v-3.8h8.1v14.5c1.4-2.5,4.1-4,6.9-3.9c4,0,7.2,2.3,7.2,7.5v10h3.1v3.8L1637.4,630.1z"/>
<path class="st1" d="M1688.6,604.3v25.8l-3,0l-16.7-20.9h-0.2v16.5h4.4v4.4h-12.6v-4.4h3.3v-21.3h-3.8v-4.4h7.6l15.9,20h0.2v-15.6
	h-4.4v-4.4h12.7v4.4L1688.6,604.3z"/>
<path class="st1" d="M1704.1,630.5c-6.4,0-10.6-4.1-10.6-10.7c0-6.1,3.7-11.1,10.9-11.1s10.8,5,10.8,10.9
	C1715.2,626.2,1710.7,630.5,1704.1,630.5z M1704.3,612.7c-3.5,0-5.6,2.7-5.6,6.9c0,4,1.9,7.1,5.6,7.1s5.8-2.9,5.8-7.1
	C1710,615.1,1707.7,612.7,1704.3,612.7L1704.3,612.7z"/>
<path class="st1" d="M1733.8,630.1v-4c-1.3,2.8-4.2,4.6-7.2,4.5c-5.4,0-8.9-4-8.9-10.5c0-5.9,2.9-11.3,9.3-11.3
	c2.8-0.2,5.4,1.3,6.8,3.7v-10.5h-4.5v-3.8h9.5v28.1h3.1v3.8L1733.8,630.1z M1733.8,618.5c0-3.4-2.4-5.7-5.3-5.7
	c-3.3,0-5.6,2.7-5.6,7s2.4,6.7,5.3,6.7c3.4,0,5.6-3.4,5.7-6.5L1733.8,618.5z"/>
<path class="st1" d="M1754.1,630.5c-6.1,0-10.4-3.6-10.4-10.5c0-6.4,3.8-11.2,10.1-11.2c5.8,0,9.4,3.9,9.4,9.1
	c0,0.9-0.1,1.9-0.3,2.8h-14c0.3,3.8,2.1,5.8,5.6,5.8c3.2,0,4.4-1.8,4.8-3.6l4.1,0.8C1763.1,627.4,1759.8,630.5,1754.1,630.5z
	 M1753.8,612.5c-3,0-4.5,2.2-4.8,5.2h9.2C1758.5,615.2,1757.1,612.5,1753.8,612.5L1753.8,612.5z"/>
</svg>
