<svg id="Module_6_Wireless_Tech" data-name="Module 6 Wireless Tech" xmlns="http://www.w3.org/2000/svg" viewBox="0 0 1920 1080"><title>wireless-tech</title><path d="M254.18,757.38v96.2a12.51,12.51,0,0,1-12.52,12.51h-85.1A12.52,12.52,0,0,1,144,853.58V806" style="fill:none;stroke:#bdcada;stroke-linecap:round;stroke-miterlimit:10;stroke-width:15px"/><path d="M121.23,780.19l69-69a12.51,12.51,0,0,1,17.7,0l69,69" style="fill:none;stroke:#bdcada;stroke-linecap:round;stroke-miterlimit:10;stroke-width:15px"/><path d="M1623,866.09,1588.11,737.6a1.63,1.63,0,0,0-3.15,0L1550.1,866.09" style="fill:none;stroke:#bdcada;stroke-linecap:round;stroke-miterlimit:10;stroke-width:15px"/><line x1="1572.12" y1="784.93" x2="1622.97" y2="866.09" style="fill:none;stroke:#bdcada;stroke-linecap:round;stroke-miterlimit:10;stroke-width:15px"/><line x1="1600.95" y1="784.93" x2="1550.1" y2="866.09" style="fill:none;stroke:#bdcada;stroke-linecap:round;stroke-miterlimit:10;stroke-width:15px"/><path d="M1623,749.53a18.57,18.57,0,0,0,0-26.27" style="fill:none;stroke:#ffcd50;stroke-linecap:round;stroke-miterlimit:10;stroke-width:15px"/><path d="M1638.74,765.3a40.88,40.88,0,0,0,0-57.81" style="fill:none;stroke:#ffcd50;stroke-linecap:round;stroke-miterlimit:10;stroke-width:15px"/><path d="M1654.51,781.06a63.18,63.18,0,0,0,0-89.33" style="fill:none;stroke:#ffcd50;stroke-linecap:round;stroke-miterlimit:10;stroke-width:15px"/><path d="M1673.7,866.09l34.87-128.49a1.63,1.63,0,0,1,3.15,0l34.86,128.49" style="fill:none;stroke:#bdcada;stroke-linecap:round;stroke-miterlimit:10;stroke-width:15px"/><line x1="1724.56" y1="784.93" x2="1673.7" y2="866.09" style="fill:none;stroke:#bdcada;stroke-linecap:round;stroke-miterlimit:10;stroke-width:15px"/><line x1="1695.73" y1="784.93" x2="1746.58" y2="866.09" style="fill:none;stroke:#bdcada;stroke-linecap:round;stroke-miterlimit:10;stroke-width:15px"/><path d="M110.66,931.84c-7.2,0-12.42-5.17-12.42-12.53,0-6.17,3.8-13.15,12.42-13.15a13.07,13.07,0,0,1,8.89,3l.66,5.41-3.49.34-.62-3.45a10.24,10.24,0,0,0-5.52-1.49c-4.71,0-7.78,3.49-7.78,9.16,0,5.94,3.3,9,8.21,9a11,11,0,0,0,5-1.08l.61-3.72,3.49.35-.54,5.44C117.79,930.77,114.19,931.84,110.66,931.84Z" style="fill:#bdcada"/><path d="M122.54,931.46v-3.14h2.57V908.23h-2.72v-3.14h6.78v23.23h2.57v3.14Z" style="fill:#bdcada"/><path d="M142.2,931.84c-5.25,0-8.74-3.41-8.74-8.81,0-5,3-9.16,9-9.16s8.93,4.13,8.93,9C151.36,928.24,147.61,931.84,142.2,931.84Zm.16-14.76c-2.92,0-4.64,2.27-4.64,5.72,0,3.25,1.57,5.82,4.64,5.82s4.75-2.37,4.75-5.86C147.11,919.08,145.15,917.08,142.36,917.08Z" style="fill:#bdcada"/><path d="M160.67,931.84a15,15,0,0,1-7-1.68l.61-4.45,3.22.31,0,2.22a8.9,8.9,0,0,0,3,.54c2.07,0,3.91-.73,3.91-2.23,0-3.6-10.5-.65-10.5-7.43,0-4,3.72-5.22,7.09-5.22a13.15,13.15,0,0,1,6.29,1.58l.42,4.25-3.22.38-.34-2.57a8.43,8.43,0,0,0-3-.57c-1.61,0-2.84.61-2.84,2,0,3.53,10.27.62,10.27,7.36C168.49,929.93,165.24,931.84,160.67,931.84Z" style="fill:#bdcada"/><path d="M179.26,931.84c-5,0-8.58-3-8.58-8.7,0-5.29,3.1-9.24,8.35-9.24,4.75,0,7.74,3.18,7.78,7.52a11.87,11.87,0,0,1-.23,2.3H175c.23,3.1,1.76,4.83,4.6,4.83a3.68,3.68,0,0,0,4-3l3.42.65C186.66,929.24,183.94,931.84,179.26,931.84ZM179,916.93c-2.45,0-3.68,1.84-4,4.26h7.59A3.58,3.58,0,0,0,179,916.93Z" style="fill:#bdcada"/><path d="M213.6,931.46l-5.14-9.85h-4.1v6.21h2.92v3.64H197.23v-3.64h2.88V910.19h-2.88v-3.65h11.08c6.17,0,9.24,2.73,9.24,7.36a6.89,6.89,0,0,1-5,6.83l3.79,7.09h3.07v3.64Zm-6-21.27h-3.26v8h3.22c4.07,0,5.45-1.54,5.45-4.18C213,911.22,211.57,910.19,207.62,910.19Z" style="fill:#bdcada"/><path d="M229.5,913.9c3.84,0,6.6,1.92,6.6,5.83v7.74c0,1.11.38,1.54,1.26,1.54a3.4,3.4,0,0,0,.88-.16l0,2.26a5.69,5.69,0,0,1-2.76.73,3.31,3.31,0,0,1-3.52-3.41v-.08a6.44,6.44,0,0,1-5.64,3.49c-2.41,0-5.29-1.26-5.29-4.9,0-4.26,4.1-5.22,8-5.22a22.66,22.66,0,0,1,2.92.16v-1c0-2-.35-4-3.22-4a6,6,0,0,0-2.88.58l-.69,2.64-3.3-.34.73-4.3A14.07,14.07,0,0,1,229.5,913.9ZM232,924a22.33,22.33,0,0,0-2.76-.23c-2,0-4,.54-4,2.69a2.21,2.21,0,0,0,2.49,2.33,4.25,4.25,0,0,0,4.22-4.17Z" style="fill:#bdcada"/><path d="M251.73,931.46v-3.14h2.53v-6.75c0-3.26-1.22-4.49-3.33-4.49a4.19,4.19,0,0,0-4.26,4.38v6.86h2.57v3.14H240v-3.14h2.57V917.43h-2.68v-3.18h6.78v2.8a6.27,6.27,0,0,1,5.71-3.15c3.3,0,6,1.92,6,6.18v8.24h2.57v3.14Z" style="fill:#bdcada"/><path d="M279.79,917.43v13.38c0,5.48-3.07,9.16-9.09,9.16-3.56,0-7.05-1.34-8.32-5.1l3.19-1.72a5.53,5.53,0,0,0,5.21,3.52c2.84,0,4.91-2.11,4.91-5.9V928.2a6.06,6.06,0,0,1-5.83,3.34c-4,0-7.44-2.92-7.44-8.32,0-4.91,2.69-9.32,7.71-9.32a6,6,0,0,1,5.56,3v-2.68h6.59v3.18Zm-4.1,4.45c0-2.88-1.84-4.68-4.3-4.68-2.83,0-4.44,2.22-4.44,5.75s1.72,5.29,4.06,5.29a4.76,4.76,0,0,0,4.68-5Z" style="fill:#bdcada"/><path d="M292.43,931.84c-5,0-8.58-3-8.58-8.7,0-5.29,3.1-9.24,8.35-9.24,4.76,0,7.75,3.18,7.78,7.52a11.87,11.87,0,0,1-.23,2.3H288.14c.23,3.1,1.76,4.83,4.6,4.83a3.69,3.69,0,0,0,4-3l3.41.65C299.83,929.24,297.11,931.84,292.43,931.84Zm-.27-14.91c-2.45,0-3.68,1.84-4,4.26h7.59C296,919.16,294.89,916.93,292.16,916.93Z" style="fill:#bdcada"/><path d="M1553.16,931.46v-3.64H1556V910.19h-2.87v-3.65H1564v3.65h-3.72v17.63H1568l.77-5.18,3.64.31-.77,8.51Z" style="fill:#bdcada"/><path d="M1582.55,931.84c-5.25,0-8.73-3.41-8.73-8.81,0-5,3-9.16,9-9.16s8.93,4.13,8.93,9C1591.71,928.24,1588,931.84,1582.55,931.84Zm.16-14.76c-2.92,0-4.64,2.27-4.64,5.72,0,3.25,1.57,5.82,4.64,5.82s4.75-2.37,4.75-5.86C1587.46,919.08,1585.51,917.08,1582.71,917.08Z" style="fill:#bdcada"/><path d="M1605.55,931.46v-3.14h2.53v-6.75c0-3.26-1.23-4.49-3.33-4.49a4.19,4.19,0,0,0-4.26,4.38v6.86h2.57v3.14h-9.24v-3.14h2.57V917.43h-2.68v-3.18h6.78v2.8a6.26,6.26,0,0,1,5.71-3.15c3.3,0,6,1.92,6,6.18v8.24h2.57v3.14Z" style="fill:#bdcada"/><path d="M1633.6,917.43v13.38c0,5.48-3.06,9.16-9.08,9.16-3.56,0-7-1.34-8.32-5.1l3.18-1.72a5.55,5.55,0,0,0,5.22,3.52c2.83,0,4.9-2.11,4.9-5.9V928.2a6,6,0,0,1-5.82,3.34c-4,0-7.44-2.92-7.44-8.32,0-4.91,2.68-9.32,7.7-9.32a6,6,0,0,1,5.56,3v-2.68h6.59v3.18Zm-4.1,4.45c0-2.88-1.84-4.68-4.29-4.68-2.84,0-4.45,2.22-4.45,5.75s1.73,5.29,4.07,5.29a4.75,4.75,0,0,0,4.67-5Z" style="fill:#bdcada"/><path d="M1662.27,931.46l-5.14-9.85H1653v6.21H1656v3.64h-10v-3.64h2.88V910.19h-2.88v-3.65H1657c6.17,0,9.24,2.73,9.24,7.36a6.89,6.89,0,0,1-5,6.83l3.79,7.09h3.07v3.64Zm-6-21.27H1653v8h3.22c4.07,0,5.45-1.54,5.45-4.18C1661.7,911.22,1660.24,910.19,1656.29,910.19Z" style="fill:#bdcada"/><path d="M1678.17,913.9c3.84,0,6.6,1.92,6.6,5.83v7.74c0,1.11.38,1.54,1.26,1.54a3.4,3.4,0,0,0,.88-.16l0,2.26a5.69,5.69,0,0,1-2.76.73,3.32,3.32,0,0,1-3.53-3.41v-.08a6.41,6.41,0,0,1-5.63,3.49c-2.41,0-5.29-1.26-5.29-4.9,0-4.26,4.1-5.22,8-5.22a22.4,22.4,0,0,1,2.91.16v-1c0-2-.34-4-3.22-4a5.94,5.94,0,0,0-2.87.58l-.69,2.64-3.3-.34.73-4.3A14.07,14.07,0,0,1,1678.17,913.9Zm2.49,10.12a22,22,0,0,0-2.76-.23c-2,0-3.94.54-3.94,2.69a2.21,2.21,0,0,0,2.49,2.33,4.24,4.24,0,0,0,4.21-4.17Z" style="fill:#bdcada"/><path d="M1700.4,931.46v-3.14h2.53v-6.75c0-3.26-1.23-4.49-3.33-4.49a4.19,4.19,0,0,0-4.26,4.38v6.86h2.57v3.14h-9.24v-3.14h2.57V917.43h-2.68v-3.18h6.78v2.8a6.27,6.27,0,0,1,5.71-3.15c3.3,0,6,1.92,6,6.18v8.24h2.57v3.14Z" style="fill:#bdcada"/><path d="M1728.46,917.43v13.38c0,5.48-3.07,9.16-9.09,9.16-3.56,0-7-1.34-8.32-5.1l3.19-1.72a5.53,5.53,0,0,0,5.21,3.52c2.83,0,4.9-2.11,4.9-5.9V928.2a6,6,0,0,1-5.82,3.34c-4,0-7.44-2.92-7.44-8.32,0-4.91,2.68-9.32,7.71-9.32a6,6,0,0,1,5.55,3v-2.68h6.6v3.18Zm-4.11,4.45c0-2.88-1.84-4.68-4.29-4.68-2.84,0-4.45,2.22-4.45,5.75s1.73,5.29,4.07,5.29a4.75,4.75,0,0,0,4.67-5Z" style="fill:#bdcada"/><path d="M1741.1,931.84c-5,0-8.58-3-8.58-8.7,0-5.29,3.1-9.24,8.35-9.24,4.75,0,7.74,3.18,7.78,7.52a11.87,11.87,0,0,1-.23,2.3h-11.61c.23,3.1,1.76,4.83,4.6,4.83a3.68,3.68,0,0,0,4-3l3.42.65C1748.5,929.24,1745.78,931.84,1741.1,931.84Zm-.27-14.91c-2.45,0-3.68,1.84-4,4.26h7.59A3.58,3.58,0,0,0,1740.83,916.93Z" style="fill:#bdcada"/><path d="M199.11,640.2V457.28A58.43,58.43,0,0,1,216.23,416l37-37" style="fill:none;stroke:#3eb1cf;stroke-linecap:round;stroke-miterlimit:10;stroke-width:15px"/><path d="M1663.76,640.2V457.28A58.42,58.42,0,0,1,1680.87,416l37-37" style="fill:none;stroke:#3eb1cf;stroke-linecap:round;stroke-miterlimit:10;stroke-width:15px"/><path d="M1419.65,640.2V457.28A58.43,58.43,0,0,1,1436.77,416l37-37" style="fill:none;stroke:#ffcd50;stroke-linecap:round;stroke-miterlimit:10;stroke-width:15px"/><path d="M1175.54,640.2V457.28A58.43,58.43,0,0,1,1192.66,416l37-37" style="fill:none;stroke:#3eb1cf;stroke-linecap:round;stroke-miterlimit:10;stroke-width:15px"/><path d="M931.43,640.2V457.28A58.43,58.43,0,0,1,948.55,416l37-37" style="fill:none;stroke:#3eb1cf;stroke-linecap:round;stroke-miterlimit:10;stroke-width:15px"/><path d="M687.33,640.2V457.28A58.42,58.42,0,0,1,704.44,416l37-37" style="fill:none;stroke:#3eb1cf;stroke-linecap:round;stroke-miterlimit:10;stroke-width:15px"/><path d="M443.22,640.2V457.28A58.43,58.43,0,0,1,460.34,416l37-37" style="fill:none;stroke:#3eb1cf;stroke-linecap:round;stroke-miterlimit:10;stroke-width:15px"/><path d="M294.74,357.45l-2.58-2.57,1.79-1.8-3.31-1.51-6.58,6.58,1.46,3.36,2-2,2.57,2.57-6.66,6.67-2.58-2.58,1.63-1.62L275.3,346.8l-2.57,2.57-2.58-2.57,5.67-5.67,21.38,8.7,1.71-1.71,2.58,2.58Zm-15.53-11.09-.17.17,3.69,8.56,4.9-4.9Z" style="fill:#bdcada"/><path d="M303.89,318.21l15.05,15L317.23,335l-22-2.47-.11.11,9.62,9.62,2.58-2.57,2.57,2.57-7.34,7.35L300,347l1.95-2-12.47-12.46-2.22,2.22-2.57-2.58,4.42-4.41,20.95,2.35.11-.11L301.08,321l-2.58,2.58L295.93,321l7.42-7.43,2.58,2.57Z" style="fill:#bdcada"/><path d="M324.27,304.6l-3.93-2.84-3.44,3.44,12.47,12.47,2.95-3,2.58,2.58-8.81,8.81-2.58-2.58,2.85-2.85-12.47-12.46-3.47,3.47,2.85,3.93L310.48,318l-5.21-6.29,15.1-15.1,6.29,5.2Z" style="fill:#bdcada"/><path d="M348.39,303.79l-2.84,2.85L332.4,282.49l2.85-2.84Z" style="fill:#bdcada"/><path d="M370.61,281.57,368,279l1.79-1.79-3.31-1.52-6.58,6.59,1.46,3.36,2-2,2.57,2.57-6.66,6.67-2.58-2.57,1.63-1.63-7.16-17.78-2.57,2.57L346,270.92l5.67-5.66L373.08,274l1.71-1.7,2.57,2.57Zm-15.53-11.09-.16.17,3.69,8.56,4.9-4.9Z" style="fill:#bdcada"/><path d="M379.77,242.33l15.05,15-1.71,1.76-22-2.46-.11.1,9.62,9.63,2.57-2.58,2.58,2.58-7.34,7.34-2.58-2.57,1.95-2-12.47-12.46L363.13,259l-2.57-2.57L365,252l21,2.35.1-.1L377,245.15l-2.58,2.57-2.58-2.57,7.43-7.43,2.57,2.58Z" style="fill:#bdcada"/><path d="M400.15,228.73l-3.93-2.85-3.44,3.44,12.47,12.47,2.95-3,2.58,2.58L402,250.22l-2.58-2.58,2.85-2.84-12.47-12.47-3.47,3.47,2.85,3.93-2.79,2.36-5.21-6.29,15.1-15.1,6.29,5.21Z" style="fill:#bdcada"/><path d="M407.2,227.75,411,224l-3.71-3.72,2-2L413,222l3.63-3.63,2,2L415,224l3.69,3.69-2,2L413,226l-3.77,3.77Z" style="fill:#bdcada"/><path d="M547.27,359l-8.89,8.89-2.57-2.57,2-2-12.47-12.46-2,2-2.57-2.58,8.78-8.78c3.33-3.33,7-3.68,9.51-1.16a5.19,5.19,0,0,1,.57,6.85l.11.11A6,6,0,0,1,548,348C550.82,350.81,551.26,355,547.27,359Zm-15.88-14.2-3,3,4.83,4.82,2.81-2.82c2.06-2.06,2-4,.57-5.5C534.75,342.49,533,343.17,531.39,344.82Zm7.7,6.67L535.56,355l5.29,5.28,3.11-3.11c2.2-2.2,2.55-4.23.71-6.07S541,349.56,539.09,351.49Z" style="fill:#bdcada"/><path d="M554.48,351.81l-2.22-2.22,1.81-1.81-14.2-14.21L538,335.5l-2.23-2.22,4.8-4.8L557,344.9l1.81-1.81,2.22,2.22Z" style="fill:#bdcada"/><path d="M571.91,334.39l-2-2a6.13,6.13,0,0,1-1.73,6.29c-2.33,2.33-5.59,2.93-8.62-.11l-5.83-5.82-1.81,1.81-2.23-2.22,4.72-4.72,7,7c2.31,2.3,4,2.3,5.56.78,1.81-1.81,1.49-4.41-.22-6.18L562,324.44l-2.17,2.17-2.22-2.22,5.07-5.07,9.94,9.95,1.9-1.9,2.22,2.22Z" style="fill:#bdcada"/><path d="M584.18,322.65c-3.55,3.56-8.18,4-12.22-.08-3.74-3.74-4.34-8.72-.63-12.44,3.36-3.36,7.73-3.22,10.82-.19a13.33,13.33,0,0,1,1.46,1.79l-8.21,8.21c2.36,2,4.66,2.17,6.67.17a3.67,3.67,0,0,0,.7-4.93l2.87-2C587.57,315.58,587.49,319.35,584.18,322.65ZM573.45,312.3c-1.74,1.74-1.3,3.9.19,5.83l5.36-5.37A3.57,3.57,0,0,0,573.45,312.3Z" style="fill:#bdcada"/><path d="M596.65,310.19c-2.61,2.6-5.69,2.82-8.16.35l-6.4-6.39-1.79,1.79-2.14-2.15L580,302l-3.77-3.76,2.9-2.9,3.77,3.76,4.53-4.52,2.14,2.14L585,301.25l5.94,5.93c1.3,1.3,2.52,1.33,3.6.24.62-.62,1.33-1.76-.27-3.9l2.82-1.46C599.36,305,599.06,307.78,596.65,310.19Z" style="fill:#bdcada"/><path d="M607.73,299.11c-3.71,3.71-8.59,3.76-12.41-.06-3.56-3.55-4.34-8.62-.14-12.82s9.24-3.39,12.68.06C611.66,290.08,611.55,295.28,607.73,299.11ZM597.4,288.56c-2.06,2.06-1.68,4.88.76,7.32s5.23,3,7.4.84,1.68-5-.78-7.51S599.38,286.58,597.4,288.56Z" style="fill:#bdcada"/><path d="M621.79,285c-3.71,3.71-8.59,3.77-12.41-.05-3.55-3.55-4.34-8.62-.13-12.82s9.24-3.39,12.68.05C625.72,276,625.62,281.22,621.79,285ZM611.47,274.5c-2.06,2.06-1.68,4.88.76,7.32s5.23,3,7.39.84,1.69-5.05-.78-7.51S613.45,272.52,611.47,274.5Z" style="fill:#bdcada"/><path d="M635.29,271.55c-2.6,2.6-5.69,2.81-8.16.35l-6.4-6.4L619,267.29l-2.15-2.14,1.79-1.79-3.76-3.77,2.9-2.9,3.76,3.77,4.53-4.52,2.14,2.14-4.53,4.52,5.94,5.94c1.3,1.3,2.52,1.33,3.6.24.63-.62,1.33-1.76-.27-3.9l2.82-1.47C638,266.4,637.7,269.13,635.29,271.55Z" style="fill:#bdcada"/><path d="M647.92,258.38l-2.22-2.23,1.81-1.81-4.77-4.77c-2.3-2.31-4.09-2.25-5.58-.76a4.11,4.11,0,0,0,0,5.93l4.95,5,1.79-1.79,2.23,2.23-6.51,6.5-2.22-2.22,1.81-1.82L625,248.4l-1.81,1.82L621,248l4.72-4.71,8.48,8.48a6.25,6.25,0,0,1,1.79-6.29c2.33-2.33,5.59-2.87,8.59.14l5.83,5.83,1.82-1.82,2.22,2.22Z" style="fill:#bdcada"/><path d="M664,242.25l-2.84,2.85L648.05,221l2.85-2.85Z" style="fill:#bdcada"/><path d="M685.48,220.82l-8.89,8.89L674,227.13l2-2-12.46-12.47-2,2L659,212.09l8.78-8.78c3.34-3.34,7-3.69,9.51-1.17a5.19,5.19,0,0,1,.57,6.86l.11.11a6,6,0,0,1,8.27.67C689,212.6,689.46,216.83,685.48,220.82Zm-15.89-14.21-3,3,4.82,4.83,2.82-2.82c2.06-2.06,2-4,.57-5.51C673,204.28,671.25,205,669.59,206.61Zm7.7,6.67-3.52,3.52,5.28,5.29,3.12-3.12c2.2-2.19,2.55-4.23.71-6.07S679.22,211.36,677.29,213.28Z" style="fill:#bdcada"/><path d="M693.25,213l-2.57-2.58,2-2L680.24,196l-2,2-2.57-2.58,7.67-7.67,2.57,2.58L683.25,193l12.47,12.46,5.42-5.42L698,195.8l2.79-2.36,5.48,6.56Z" style="fill:#bdcada"/><path d="M708.24,198.05l-2.58-2.57,2-2L695.23,181l-2,2-2.58-2.57,13.23-13.23,5.64,4.55-2.36,2.8-3.28-2.2L698.24,178l4.88,4.88,7.75-7.75,2.57,2.57-7.75,7.75,5,5,5.79-5.8-2.19-3.28L717.1,179l4.56,5.64Z" style="fill:#bdcada"/><path d="M1758.92,367.91l-2.58-2.57,2-2-12.47-12.46-2,2-2.58-2.58,7.67-7.67,2.58,2.58-2.63,2.63,12.47,12.46,5.42-5.41-3.12-4.21,2.79-2.35,5.48,6.56Z" style="fill:#bdcada"/><path d="M1774,329.56l-3.93-2.84-3.44,3.44,12.47,12.46,3-2.95,2.57,2.58-8.8,8.8-2.58-2.57,2.85-2.85-12.47-12.46-3.47,3.47,2.85,3.93-2.79,2.35-5.21-6.28,15.1-15.1,6.28,5.2Z" style="fill:#bdcada"/><path d="M1789.87,337l-2.58-2.57,2-2-12.47-12.47-2,2-2.58-2.57,13.23-13.23,5.63,4.55-2.36,2.8-3.27-2.2-5.61,5.61,4.88,4.88,7.75-7.75,2.57,2.57-7.75,7.75,5,5,5.8-5.8-2.19-3.28,2.79-2.36,4.55,5.64Z" style="fill:#bdcada"/><path d="M1805,306.8l2.44,2.44-6.4,6.4-2.44-2.44Z" style="fill:#bdcada"/><path d="M1819.19,277.56,1831.66,290l2-2,2.58,2.57-6.75,6.75-2.58-2.57,1.74-1.74-8.43-8.43-.11.11,4.64,14.88-1.36,1.36L1808,296.34l-.11.11,8.67,8.67,1.84-1.84,2.58,2.57-6.67,6.67-2.57-2.58,2-2-12.47-12.47-2.22,2.22-2.57-2.57,4.77-4.77,18.51,5.5.11-.11L1814,277.56l4.8-4.8,2.57,2.57Z" style="fill:#bdcada"/><path d="M790.92,329.4l10.24,19.84-2.22,2.22-16.72-8.1-.14.13,8.24,16.59-2.25,2.25-20.14-9.95-1.51,1.52-2.58-2.58,6.7-6.69,2.57,2.57-2,2,13.12,7,.13-.13-6.58-13.58L776.28,344l-2.57-2.57,6.67-6.67,2.57,2.58-1.44,1.43,13.72,6.72.13-.13-7.45-13-2.17,2.16L783.17,332l6.61-6.61,2.58,2.57Z" style="fill:#bdcada"/><path d="M791.67,323l3-2.95,3.2,3.19-3,3Zm16.24,19.54-2.22-2.22,1.81-1.82-7.7-7.69-1.92,1.92-2.25-2.25,4.8-4.8,10,9.95,1.81-1.81,2.22,2.22Z" style="fill:#bdcada"/><path d="M815,311.27l-3.49-2.41L806,314.31l5.67,5.66,7.64-7.64,2.55,2.55-7.65,7.64,4.26,4.25,2.95-2.95,2.58,2.57-8,8-2.57-2.58,2-2L803,317.31l-2,2-2.58-2.58,13.07-13.06,5.82,4.74Z" style="fill:#bdcada"/><path d="M814.87,299.75l3-2.95L821,300,818.07,303ZM831.1,319.3l-2.22-2.23,1.82-1.81-7.7-7.7-1.92,1.92-2.25-2.25,4.79-4.79,10,9.94,1.82-1.81,2.22,2.22Z" style="fill:#bdcada"/><path d="M1026.27,368.24l-1.68-1.52-3.88-22.9-.05-.06-5.85,5.86,2.44,3.68-2.8,2.31-4.79-6,12.76-12.77,1.49,1.38,4,23.15.05.05,7-7-2.82-4.07,2.85-2.3,5.12,6.37Z" style="fill:#bdcada"/><path d="M1026,332.73l3-3,3.2,3.2-3,2.95Zm16.23,19.55-2.22-2.23,1.82-1.81-7.7-7.7-1.93,1.92-2.24-2.25,4.79-4.79,10,9.94,1.82-1.81,2.22,2.22Z" style="fill:#bdcada"/><path d="M1052.37,322.3l9.46,9.46c3.87,3.88,4.31,8.65.05,12.9-2.52,2.52-5.93,4-9.48,2.28l1-3.47a5.53,5.53,0,0,0,6.18-1.2c2-2,2-5-.71-7.64l-1.82-1.81a6,6,0,0,1-1.76,6.47c-2.84,2.85-7.31,3.2-11.14-.62-3.47-3.47-4.69-8.48-1.14-12a6,6,0,0,1,6.08-1.79l-1.9-1.9,4.66-4.66,2.25,2.25Zm.24,6c-2-2-4.6-2-6.34-.27-2,2-1.57,4.72.92,7.21s5,2.52,6.61.87a4.75,4.75,0,0,0-.21-6.83Z" style="fill:#bdcada"/><path d="M1073.94,320.57l-8.89,8.89-2.58-2.58,2-2L1052,312.38l-2,2-2.58-2.58,8.78-8.78c3.34-3.33,7-3.69,9.52-1.17a5.21,5.21,0,0,1,.57,6.86l.11.11a6,6,0,0,1,8.26.68C1077.49,312.36,1077.92,316.58,1073.94,320.57Zm-15.88-14.2-3,3,4.82,4.83,2.82-2.82c2.06-2.06,2-4,.57-5.5C1061.42,304,1059.71,304.71,1058.06,306.37Zm7.7,6.66-3.53,3.53,5.29,5.28,3.11-3.12c2.2-2.19,2.55-4.22.71-6.07S1067.68,311.11,1065.76,313Z" style="fill:#bdcada"/><path d="M1087.71,307.34c-3.55,3.55-8.19,4-12.23-.08-3.74-3.74-4.33-8.72-.62-12.44,3.36-3.36,7.72-3.22,10.81-.19a12.11,12.11,0,0,1,1.47,1.79l-8.22,8.21c2.36,2,4.67,2.17,6.67.17a3.7,3.7,0,0,0,.71-4.94l2.87-1.95C1091.09,300.27,1091,304,1087.71,307.34ZM1077,297c-1.73,1.73-1.3,3.9.19,5.83l5.37-5.37A3.58,3.58,0,0,0,1077,297Z" style="fill:#bdcada"/><path d="M1100.66,294.39c-3.55,3.55-8.19,4-12.22-.08-3.74-3.74-4.34-8.73-.63-12.44,3.36-3.36,7.73-3.23,10.82-.19a12.18,12.18,0,0,1,1.46,1.79l-8.21,8.21c2.36,2,4.66,2.17,6.66.16a3.66,3.66,0,0,0,.71-4.93l2.87-2C1104.05,287.32,1104,291.08,1100.66,294.39ZM1089.93,284c-1.74,1.73-1.31,3.9.19,5.82l5.36-5.36C1094.21,282.9,1091.85,282.11,1089.93,284Z" style="fill:#bdcada"/><path d="M1277.26,361.89c-4.66,4.67-10,2.74-15-2.3s-7.7-11.27-2.57-16.4a8.54,8.54,0,0,1,7.58-2.76l0,3.49a6.34,6.34,0,0,0-5.15,2c-2.6,2.6-1.57,5.31,2.36,9.51l.62.62c-.67-1.87-.59-4.28,1.82-6.69,3.63-3.63,7.67-2.25,10.41.49C1280.79,353.27,1281.19,358,1277.26,361.89Zm-8.8-9.18a4.23,4.23,0,0,0-.3,6.2c2.41,1.93,4.41,2.36,6.5.27s1.71-4.14-.3-6.15S1270.49,350.67,1268.46,352.71Z" style="fill:#bdcada"/><path d="M1285.17,353.44l-2.57-2.57,2-2-12.46-12.47-2,2-2.57-2.58,7.67-7.67,2.57,2.58-2.63,2.63,12.47,12.46,5.42-5.42-3.11-4.2,2.79-2.35,5.47,6.55Z" style="fill:#bdcada"/><path d="M1309,330.13c-5.58,5.59-13,4.75-17.91-.19-5.12-5.12-5.58-12.63-.16-18.05s13-4.82,18,.14S1314.58,324.58,1309,330.13Zm-15.45-15.55c-3.76,3.76-2.9,8.42.71,12s8.29,4.66,12.22.73c3.72-3.71,2.93-8.29-.76-12C1301.81,311.43,1297.15,311,1293.57,314.58Z" style="fill:#bdcada"/><path d="M1327.42,281.11,1337.67,301l-2.22,2.22-16.73-8.11-.13.14,8.24,16.59-2.25,2.25-20.14-10-1.52,1.52-2.57-2.58,6.69-6.69,2.58,2.57-1.95,1.95,13.11,7.05.14-.13-6.59-13.58-1.54,1.54-2.58-2.57,6.67-6.67,2.58,2.57-1.44,1.44,13.71,6.72.14-.13-7.45-13-2.17,2.17-2.58-2.57,6.62-6.61,2.57,2.57Z" style="fill:#bdcada"/><path d="M1347.1,279.21l-3,3,3.57,3.58,2.82-2.82,2.58,2.58-7.86,7.86-2.58-2.58,2-2-12.46-12.47-2,2-2.57-2.58,7.86-7.86c4.36-4.36,8.81-4.15,12.09-.87C1351.43,270.92,1350.57,275.74,1347.1,279.21Zm-9.41-8.37-2.46,2.46,6.34,6.35,2.46-2.47c2.55-2.55,2.36-4.85.36-6.86S1340.29,268.24,1337.69,270.84Z" style="fill:#bdcada"/><path d="M1370.11,268.51l-2.58-2.58,1.79-1.78-3.31-1.52-6.58,6.58,1.46,3.36,2-2,2.57,2.57-6.66,6.67-2.58-2.58,1.63-1.62-7.16-17.78-2.57,2.57-2.58-2.57,5.67-5.67,21.38,8.7,1.71-1.7,2.57,2.57Zm-15.53-11.09-.17.17,3.69,8.56,4.9-4.9Z" style="fill:#bdcada"/><path d="M1379.26,229.27l15,15-1.71,1.76-22-2.47-.11.11,9.62,9.62,2.58-2.57,2.57,2.57-7.34,7.35-2.58-2.58,2-2-12.46-12.46-2.23,2.22-2.57-2.58,4.42-4.41,21,2.35.11-.11-9.08-9.08-2.58,2.58-2.57-2.57,7.42-7.43,2.58,2.57Z" style="fill:#bdcada"/><path d="M1514.81,367.91l-2.57-2.57,2-2-12.47-12.46-2,2-2.57-2.58,7.67-7.67,2.57,2.58-2.63,2.63,12.47,12.46,5.42-5.41-3.12-4.21,2.79-2.35,5.48,6.56Z" style="fill:#bdcada"/><path d="M1535.87,347.4c-3.71,3.71-8.59,3.76-12.41-.06-3.56-3.55-4.34-8.62-.14-12.82s9.24-3.39,12.68.06C1539.8,338.37,1539.69,343.57,1535.87,347.4Zm-10.33-10.55c-2.06,2.06-1.68,4.88.76,7.32s5.23,3,7.4.84,1.68-5-.78-7.51C1530.31,334.9,1527.52,334.87,1525.54,336.85Z" style="fill:#bdcada"/><path d="M1554.84,327.88l-10.6-3.33-2.9,2.9,4.39,4.39,2.06-2.06,2.58,2.58-7.1,7.1-2.58-2.58,2-2-12.46-12.47-2,2-2.57-2.57,7.83-7.83c4.37-4.37,8.46-4.61,11.74-1.33a6.89,6.89,0,0,1,1.3,8.35l7.7,2.33,2.16-2.17,2.58,2.57Zm-19.27-10.81-2.3,2.3,5.66,5.67,2.28-2.28c2.87-2.87,2.76-4.93.89-6.8S1538.36,314.28,1535.57,317.07Z" style="fill:#bdcada"/><path d="M1553.67,304.23c2.71-2.72,6-3.31,8.78-.55l5.48,5.48c.78.78,1.35.81,2,.19a3.41,3.41,0,0,0,.51-.73l1.63,1.57a5.71,5.71,0,0,1-1.44,2.46,3.3,3.3,0,0,1-4.9.09l-.06-.06a6.45,6.45,0,0,1-1.52,6.45c-1.7,1.71-4.63,2.85-7.21.27-3-3-.78-6.58,2-9.35a25.26,25.26,0,0,1,2.17-1.95l-.68-.68c-1.43-1.43-3.06-2.57-5.09-.54a6,6,0,0,0-1.63,2.44l1.38,2.36-2.57,2.09-2.52-3.55A14,14,0,0,1,1553.67,304.23Zm8.92,5.39a20.33,20.33,0,0,0-2.12,1.79c-1.43,1.43-2.41,3.17-.89,4.69A2.23,2.23,0,0,0,1563,316a4.25,4.25,0,0,0,0-5.94Z" style="fill:#bdcada"/><line x1="121.23" y1="640.2" x2="1746.58" y2="640.2" style="fill:none;stroke:#bdcada;stroke-linecap:round;stroke-miterlimit:10;stroke-width:15px"/></svg>